<svg width="178" height="120" viewBox="0 0 178 120" fill="none" xmlns="http://www.w3.org/2000/svg">
<path d="M66.9712 91.4976C66.9712 91.4976 69.0167 94.9642 73.0002 96.3087" stroke="black" stroke-miterlimit="10" stroke-linecap="round" stroke-linejoin="round"/>
<path d="M66.9834 93.2341C66.9834 93.2341 68.8524 95.7528 70.8971 96.7095" stroke="black" stroke-miterlimit="10" stroke-linecap="round" stroke-linejoin="round"/>
<path d="M32.9111 106.73C32.9111 106.73 35.483 108.564 44.0197 107.996" stroke="black" stroke-miterlimit="10" stroke-linecap="round" stroke-linejoin="round"/>
<path d="M32 108.096C32 108.096 34.4793 110.062 37.8944 110.047" stroke="black" stroke-miterlimit="10" stroke-linecap="round" stroke-linejoin="round"/>
<rect x="25" y="64.0002" width="7" height="4" fill="#333131"/>
<path d="M12.4747 66.4497C6.80812 61.6571 18.8314 44.1509 25.5514 35.9969L28.2757 34L31 59.4605C27.186 63.7871 18.1413 71.2422 12.4747 66.4497Z" fill="black"/>
<path d="M100.054 58.875L165.791 53.9837L168.263 73.7682L102.321 75.3817L100.054 58.875Z" fill="#2D2D2D"/>
<path d="M142.909 74.5017L140.622 78.6826L165.768 77.4431L163.376 72.1708L142.909 74.5017Z" fill="black"/>
<path d="M67.1565 86.7169C66.0913 88.8055 67.3421 91.3178 69.6574 91.7325L86.1911 94.6818C88.553 95.1019 90.6322 93.104 90.2899 90.7461L90.0362 89.0142C89.8015 87.3999 88.471 86.1606 86.8264 86.0393L70.5463 84.822C69.1432 84.7175 67.8009 85.4615 67.1565 86.7169Z" fill="black"/>
<path d="M65.6862 82.5522L63.2442 86.6449L88.4295 86.3291L86.2233 80.968L65.6862 82.5522Z" fill="black"/>
<path d="M151.739 79.2174L84.5493 92.1438L85.2053 95.5292L152.395 82.6028L151.739 79.2174Z" fill="black"/>
<path d="M89.2731 81.855L27.8491 90.1724L28.3141 93.589L89.738 85.2717L89.2731 81.855Z" fill="black"/>
<path d="M168.043 71.5379L167.988 71.5515L163.545 72.5422L161.432 73.0102L157.514 73.8841L156.78 74.0456L151.52 75.2138L147.485 76.1157L141.281 77.4902L134.553 78.9906L99.4752 86.7853L97.281 87.2784C96.5206 87.2402 95.7693 87.2012 95.0188 87.1714C93.6379 87.1109 92.266 87.0497 90.9141 87.0053C90.2469 86.9777 89.5896 86.9585 88.9224 86.931C88.311 86.908 87.6912 86.8949 87.0798 86.8719C86.515 86.8543 85.9411 86.8374 85.3763 86.8197C83.3303 86.7591 81.3134 86.7144 79.3347 86.6849C78.4749 86.6733 77.6151 86.6616 76.7645 86.6492C76.607 86.6438 76.4504 86.6476 76.2929 86.6422C76.2096 86.6399 76.1171 86.6384 76.0338 86.6361C73.0019 86.6017 70.0556 86.597 67.2033 86.6121C61.7019 86.6438 56.558 86.7561 51.7978 86.9286C46.66 87.1139 41.9708 87.3631 37.7645 87.6459C35.8635 87.7752 34.055 87.9061 32.3574 88.037C31.7428 88.0877 31.1374 88.1376 30.5412 88.1868C29.2663 88.292 28.0654 88.4002 26.9203 88.5131C26.3065 88.5729 25.7203 88.6304 25.1431 88.6872C24.5202 88.7478 23.9155 88.8069 23.33 88.8735C16.5911 89.5764 12.9652 90.1783 12.9652 90.1783L12.9592 90.1054L12.9532 90.0325L12.8076 88.6037C15.239 86.1729 18.3378 84.2195 21.9022 82.6497C22.2494 82.4926 22.6066 82.3438 22.9637 82.1951C23.9555 81.792 24.9771 81.414 26.0292 81.0703C26.0828 81.0475 26.1371 81.0339 26.1906 81.0111C29.6253 79.8834 33.3699 79.0421 37.2992 78.4243C37.6363 78.3689 37.9742 78.3227 38.3113 78.2674C40.0084 78.0172 41.7375 77.8195 43.478 77.6484C45.9699 77.4061 48.5053 77.2428 51.0551 77.1425C54.24 77.0174 57.4424 76.9918 60.5951 77.0346C64.7932 77.1012 68.9194 77.3022 72.839 77.5754C73.591 77.6235 74.3346 77.6814 75.069 77.7402C77.9784 77.9682 80.7531 78.244 83.3253 78.5274C84.0521 78.6051 84.7605 78.6843 85.4604 78.7734C85.6469 78.7947 85.8242 78.8168 86.0106 78.8381C87.2509 78.9836 88.446 79.1419 89.5663 79.2881C91.9283 79.598 94.0037 79.904 95.7161 80.1757C95.7444 80.1826 95.7726 80.1894 95.8002 80.1871C95.8559 80.1917 95.9217 80.2046 95.9782 80.2183C97.5408 80.4657 98.7772 80.6757 99.6391 80.8249C100.529 80.9808 101.018 81.0782 101.018 81.0782L142.549 75.1738L147.88 74.4128L149.121 74.237L151.348 73.9156L157.153 73.0879L161.188 72.5164L163.397 72.2057L167.997 71.5508L168.043 71.5379Z" fill="black"/>
<path d="M150.209 73.881L152.387 73.7472C155.502 73.5545 158.318 75.2219 159.156 77.7683C160.127 80.6984 160.888 84.8847 159.827 89.5977C159.43 91.3925 157.629 92.7341 155.486 92.8375L152.469 92.9855C151.53 93.0262 150.726 92.4502 150.623 91.6602L148.523 75.5987C148.423 74.7258 149.19 73.9467 150.209 73.881Z" fill="#020302"/>
<path d="M156.157 83.1709C155.891 77.8532 153.141 73.67 150.014 73.8274C146.887 73.9848 144.567 78.4232 144.832 83.7409C145.098 89.0586 147.848 93.2418 150.975 93.0844C154.103 92.927 156.422 88.4885 156.157 83.1709Z" fill="#020302"/>
<path d="M89.9014 71.2578L91.8774 71.0305C94.6958 70.7154 97.3542 72.2673 98.2535 74.772C99.2951 77.6595 100.219 81.8049 99.5117 86.5529C99.2449 88.3553 97.6807 89.7692 95.7384 89.957L92.9989 90.2197C92.1466 90.2992 91.3907 89.7559 91.2519 88.9689L88.4676 73.0188C88.3242 72.1772 88.978 71.3707 89.9014 71.2578Z" fill="black"/>
<path d="M91.637 90.4005C94.4743 90.1168 96.3441 85.5925 95.8134 80.2951C95.2827 74.9977 92.5523 70.9333 89.715 71.2169C86.8777 71.5005 85.0079 76.0249 85.5386 81.3222C86.0693 86.6196 88.7997 90.6841 91.637 90.4005Z" fill="black"/>
<path d="M102.068 73.5487L102.066 73.5304L100.315 61.5974L95.0367 25.5986C94.0719 18.942 88.3161 14.3234 82.1883 15.2694L39.1575 21.9216C36.7044 22.2984 33.7158 23.5728 30.9988 25.2287L37.3092 78.4326C33.3891 79.0497 29.6445 79.891 26.2006 81.0194C26.073 81.0391 25.9552 81.0672 25.8367 81.0862C25.9009 81.0809 25.9651 81.0756 26.0385 81.0695C27.1316 80.9977 28.3711 81.134 29.8188 81.5561C33.4035 82.5819 35.5989 83.447 39.0087 83.2482C39.5231 83.215 40.0727 83.1604 40.6567 83.0756C41.8248 82.9058 42.9928 82.736 44.1609 82.5662C46.6606 82.1948 49.1497 81.8059 51.6479 81.4162C51.9032 81.3768 52.1494 81.3381 52.3955 81.2994C55.2584 80.8522 58.1289 80.3859 60.9918 79.9386C62.1859 79.7483 63.3807 79.5672 64.5839 79.3761C66.216 79.1222 67.839 78.869 69.4718 78.6241C70.6208 78.4467 71.7606 78.2701 72.9004 78.0934C73.6205 77.979 74.3414 77.8736 75.0615 77.7591C78.581 77.2118 82.1013 76.6736 85.6208 76.1262C85.6842 76.1118 85.7485 76.1065 85.8127 76.1012C86.7522 75.9595 87.7001 75.8078 88.6396 75.6661L88.6488 75.6653C88.7397 75.6486 88.8223 75.6418 88.9133 75.6251C90.7005 75.3492 92.4878 75.0733 94.2751 74.7973C94.5029 74.7602 94.7315 74.7321 94.9501 74.6957C95.0594 74.6775 95.1779 74.6586 95.2964 74.6396C96.1992 74.5009 97.102 74.3622 98.0048 74.2235C99.3541 74.0112 100.713 73.8073 102.063 73.595L102.068 73.5487ZM12.8077 88.6036L12.9717 90.031C14.2302 89.6151 15.4411 88.8453 16.4084 87.9211C18.5313 85.8921 20.1259 83.9526 21.9123 82.6581C18.3371 84.2103 15.2391 86.1729 12.8077 88.6036ZM12.5782 51.7936C13.5254 49.2834 14.4908 46.992 15.4635 44.9019C14.3828 47.1386 13.4182 49.4391 12.5782 51.7936ZM11.3839 55.0033C11.5663 54.6395 11.6399 54.4132 11.6676 54.3007C11.5763 54.5377 11.4843 54.7656 11.3839 55.0033ZM6.92538 86.0329L5.13629 72.8549C5.10606 72.6004 5.07659 72.355 5.04786 72.1188C5.59773 70.7244 6.473 69.4683 7.16647 68.1354C7.3657 67.7518 7.54508 67.3516 7.60221 66.9247C7.65859 66.4887 7.58505 66.0451 7.50309 65.6114C7.38549 64.9695 7.18423 62.3063 6.54486 62.0561C6.38216 61.987 6.21855 62.0188 6.06939 62.1137C6.23329 61.8616 6.34501 61.7606 6.34501 61.7606C7.52914 60.4423 8.45313 59.329 9.16977 58.3889C8.18322 59.4155 7.086 60.332 6.27042 61.5281C6.08893 61.7909 5.92729 62.0704 5.784 62.3484C4.24684 65.3202 4.49473 69.1084 4.86608 72.6019C4.87435 72.7021 4.89104 72.7925 4.89931 72.8928C5.26163 76.2769 5.63387 79.6694 5.99619 83.0535C6.24991 85.3452 6.61642 87.8847 8.29667 89.3337C9.40055 90.2889 10.7661 90.4975 12.1391 90.2373C8.01747 90.6508 6.92538 86.0329 6.92538 86.0329Z" fill="white"/>
<path d="M169.422 73.8194L96.5084 84.6257L93.8227 62.3717L167.374 53.5869L169.422 73.8194Z" fill="#D1D0D0"/>
<path d="M76.6925 86.4441L79.3979 85.9915C83.26 85.3425 86.9708 86.8902 88.3122 89.7163C89.8555 92.9754 91.2715 97.7134 90.4874 103.321C90.1926 105.456 88.0876 107.254 85.4342 107.666L81.6869 108.251C80.5196 108.43 79.4579 107.875 79.236 106.975L74.807 88.6646C74.5585 87.6664 75.4265 86.6587 76.6925 86.4441Z" fill="black"/>
<path d="M80.0813 108.712C83.4851 108.058 85.2894 102.598 84.1112 96.5176C82.933 90.4374 79.2185 86.0393 75.8146 86.6942C72.4107 87.349 70.6065 92.8088 71.7847 98.889C72.9629 104.969 76.6774 109.367 80.0813 108.712Z" fill="#ADADAD"/>
<path d="M82.4387 96.882C83.2926 101.299 81.9849 105.262 79.5034 105.742C77.031 106.221 74.329 103.021 73.4751 98.6035C72.6212 94.1862 73.9289 90.2238 76.4104 89.7438C78.8827 89.2645 81.5848 92.4647 82.4387 96.882Z" fill="black"/>
<path d="M27.9525 82.9618L30.19 82.6579C33.396 82.2282 36.3877 83.7893 37.3984 86.4133C38.5621 89.4376 39.5682 93.7964 38.7298 98.8581C38.4086 100.784 36.6242 102.327 34.4204 102.591L31.3107 102.958C30.3506 103.074 29.4831 102.521 29.3413 101.698L26.3106 84.8869C26.1528 83.9821 26.893 83.1043 27.9525 82.9618Z" fill="black"/>
<path d="M30.4616 103.559C33.3086 103.05 34.8085 98.1513 33.8118 92.6176C32.8151 87.0839 29.6992 83.0109 26.8522 83.5202C24.0052 84.0295 22.5052 88.9283 23.5019 94.462C24.4986 99.9957 27.6146 104.069 30.4616 103.559Z" fill="#ADADAD"/>
<path d="M32.3922 92.8247C33.1388 96.8379 32.0778 100.431 30.0159 100.849C27.9541 101.267 25.6812 98.3434 24.9337 94.3211C24.1863 90.2988 25.2481 86.7146 27.31 86.2967C29.3718 85.8788 31.6447 88.8024 32.3922 92.8247Z" fill="black"/>
<path d="M90.844 89.7987L85.7524 90.3076L85.8646 91.427L90.9562 90.918L90.844 89.7987Z" fill="#333333"/>
<path d="M29.4439 33.0201L33.6386 74.9085L33.6845 74.9047L33.6807 74.8591C33.6624 74.8606 33.644 74.8621 33.6257 74.8636C33.1854 74.9 32.7104 75.1869 32.3507 75.5286C32.1104 75.7504 31.8792 76.0815 31.8105 76.5919C31.7634 76.917 31.792 77.2634 31.8206 77.6098C31.8702 78.2114 31.9198 78.813 31.9603 79.4154L32.052 79.4078C32.0024 78.8062 31.9528 78.2046 31.9123 77.6022C31.8845 77.2649 31.8551 76.9094 31.9037 76.6026C31.9655 76.1203 32.1898 75.8172 32.4118 75.597C32.763 75.2652 33.2296 74.9881 33.6332 74.9548C33.6515 74.9533 33.6699 74.9518 33.6791 74.951L33.7249 74.9472L29.5257 33.0041L29.4439 33.0201Z" fill="#2B2B2B"/>
<path d="M36.7324 66.7422L93.3651 63.0977L96.308 84.4401L38.9993 83.2489" fill="white"/>
<path d="M37.1211 66.0769L93.7537 62.4324L96.6959 83.7657L39.3964 82.5737L37.1211 66.0769Z" fill="#F3F3F3"/>
<path d="M37.4877 68.9559L94.2461 66.1637L94.2118 65.5241L37.4534 68.3164" fill="#B4B4B4"/>
<path d="M37.8192 71.4066L94.673 69.3224L94.6479 68.682L37.7941 70.7663" fill="#B4B4B4"/>
<path d="M38.2116 74.2559L95.0578 72.0805L95.0326 71.4402L38.1872 73.6247" fill="#B4B4B4"/>
<path d="M38.5522 76.7057L95.4755 75.1296L95.4512 74.4984L38.527 76.0654" fill="#B4B4B4"/>
<path d="M38.7797 78.4581L95.8795 78.1248L95.8727 77.483L38.7821 77.8155" fill="#B4B4B4"/>
<path d="M39.1205 80.9079L96.2823 81.1017L96.2846 80.4591L39.1229 80.2652" fill="#B4B4B4"/>
<path d="M41.6852 65.7648L44.1111 83.4148L45.3892 83.2359L42.9542 65.5867" fill="#B4B4B4"/>
<path d="M49.2401 65.1046L51.7825 83.6076L53.0614 83.4378L50.5098 64.9356" fill="#B4B4B4"/>
<path d="M58.7179 64.5798L61.3474 83.6905L62.6263 83.5207L59.9961 64.4009" fill="#B4B4B4"/>
<path d="M70.7865 63.8868L73.5834 84.1309L74.8524 83.9528L72.0654 63.7171" fill="#B4B4B4"/>
<path d="M83.6801 63.1258L86.5314 83.8059L87.8103 83.6362L84.959 62.9561" fill="#B4B4B4"/>
<path d="M37.3827 65.3488C37.3827 65.3488 34.5009 42.0098 33.6631 31.9654C33.451 29.3948 34.9402 27.0235 37.2621 26.2446C45.2825 23.5547 65.3021 19.9298 85.0815 19.3533C87.8887 19.2686 90.2062 21.748 90.7107 24.6615L97.0529 61.9033L37.3827 65.3488Z" fill="url(#paint0_linear_546_1061)"/>
<path d="M78.1999 42.369L53.1151 45.8061C50.2019 46.2024 47.5143 44.1849 47.1185 41.29L46.6877 38.196C46.2919 35.3011 48.3247 32.6279 51.2379 32.2315L76.3227 28.7945C79.2359 28.3981 81.9235 30.4157 82.3194 33.3106L82.7501 36.4046C83.1551 39.2988 81.1124 41.9636 78.1999 42.369Z" fill="black"/>
<path d="M24.2097 33.3784C22.8683 35.7008 21.536 38.0225 20.1947 40.3449C17.472 45.0665 14.6888 49.9491 13.8124 55.4452C13.3815 58.1698 13.426 60.9469 13.6546 63.7179C13.7862 65.3131 13.9728 66.9038 14.1679 68.4846C14.7348 73.2284 15.31 77.9624 15.8769 82.7062L15.9686 82.6987C15.4017 77.9548 14.8265 73.2208 14.2596 68.477C14.0737 66.8955 13.8779 65.3056 13.7463 63.7104C13.5177 60.9393 13.4648 58.1721 13.8965 55.4567C14.7652 49.9795 17.5408 45.1159 20.2626 40.3852C21.604 38.0628 22.9362 35.7411 24.2776 33.4187L24.2097 33.3784Z" fill="#2B2B2B"/>
<path d="M5.01317 71.5679C4.71437 68.382 4.65096 65.1006 5.98974 62.4946C6.0709 62.41 6.13506 62.3536 6.18985 62.3232L6.18994 62.3233L6.19783 62.3186C6.2996 62.2571 6.3747 62.2519 6.45334 62.2801C6.46719 62.2863 6.50315 62.3103 6.55358 62.3852C6.60439 62.4606 6.65634 62.5676 6.7074 62.7052C6.80939 62.98 6.89451 63.3399 6.96616 63.7241C7.03741 64.1062 7.09346 64.5019 7.13993 64.8451C7.14765 64.9021 7.15516 64.9581 7.16245 65.0125C7.19811 65.2785 7.22887 65.508 7.25674 65.6494C7.33978 66.0941 7.40475 66.5008 7.35426 66.8921C7.30326 67.2723 7.1339 67.6386 6.94305 68.023C6.68573 68.5278 6.40185 69.0188 6.1144 69.516C6.02425 69.6719 5.93375 69.8285 5.84361 69.9862C5.54981 70.5004 5.26185 71.0242 5.01317 71.5679Z" fill="#E4E4E4" stroke="#B4B4B4" stroke-width="0.5"/>
<path d="M134.546 88.9761L113.573 93.0099C112.109 93.2867 110.701 92.3383 110.416 90.8935L109.755 87.4698C109.478 86.0151 110.434 84.6147 111.888 84.3295L132.86 80.2957C134.323 80.0098 135.732 80.9673 136.017 82.4122L136.678 85.8359C136.955 87.2906 136 88.691 134.546 88.9761Z" fill="black"/>
<path d="M169.972 79.4731L97.7458 92.3518L96.9456 83.7727L169.324 72.6251L169.972 79.4731Z" fill="#E1E1E1"/>
<path d="M38.98 84.0214L96.3039 85.2849L96.3362 83.9974L39.0039 82.7438" fill="#B4B4B4"/>
<path d="M37.0389 66.4234L94.3258 63.3214L94.2572 62.0422L36.9703 65.1442" fill="#B4B4B4"/>
<path d="M37.3093 78.4325L30.9989 25.2285C28.6338 26.6718 26.477 28.4007 25.0294 30.1079C21.2593 34.5579 18.0411 39.5406 15.4636 44.9018C14.4909 46.9919 13.5256 49.2833 12.5783 51.7935C12.5476 51.8694 12.5177 51.9545 12.4962 52.0297C12.2261 52.7862 11.9668 53.5601 11.6769 54.2999C11.6492 54.4123 11.5664 54.6394 11.3932 55.0024C11.0597 55.7733 10.6689 56.5214 10.1887 57.1942C9.88246 57.6233 9.53571 58.0098 9.17905 58.388C8.46166 59.3191 7.53842 60.4415 6.35429 61.7597C6.35429 61.7597 6.24257 61.8607 6.07867 62.1129C6.23701 62.0172 6.39219 61.9952 6.55414 62.0553C7.18434 62.3061 7.38559 64.9693 7.51237 65.6105C7.59433 66.0442 7.66787 66.4879 7.61149 66.9239C7.55436 67.3507 7.36581 67.7517 7.17575 68.1345C6.4922 69.4757 5.61693 70.7319 5.05714 72.1179C5.08587 72.3542 5.11535 72.5995 5.14558 72.854L6.93467 86.032C6.93467 86.032 8.02675 90.6499 12.1484 90.2365C12.4144 90.2145 12.6964 90.1637 12.9862 90.0939C13.9457 89.8587 15.0416 89.3737 16.3023 88.5355L22.9731 82.1942L23.0756 82.0939C23.0756 82.0939 24.2214 81.4304 25.8368 81.086C25.9546 81.058 26.0822 81.0383 26.2007 81.0193C27.4117 80.8093 28.834 80.8112 30.2288 81.3753L37.839 82.95L37.3093 78.4325ZM16.6374 60.9205C16.2922 56.7366 17.5715 52.8775 18.9817 49.3746C20.3222 46.0336 21.6641 41.5911 23.6488 38.8944C25.0109 37.0475 26.9146 36.0553 27.8196 38.8532C29.0473 42.6523 28.5731 49.1064 28.8741 53.2023C29.0483 55.5373 29.066 58.3258 27.6266 59.5734C27.0405 60.0806 26.3127 60.214 25.611 60.327C22.648 60.7917 19.6448 60.9936 16.6374 60.9205ZM30.7351 65.7962L27.534 65.9501L27.4744 64.7803L30.6755 64.6264L30.7351 65.7962Z" fill="#F3F3F3"/>
<path d="M29.1173 78.9891C29.2027 78.0093 29.6893 77.0789 30.4079 76.3864C31.1258 75.6847 32.0749 75.2118 33.0747 75.1293C33.093 75.1278 33.1022 75.127 33.1205 75.1255C33.1756 75.121 33.2306 75.1164 33.2948 75.1111C33.4507 75.0983 33.6059 75.0763 33.7497 75.0277C33.8934 74.9792 34.025 74.8949 34.097 74.7605C34.1859 74.6063 34.1892 74.4225 34.1757 74.2584C34.1726 74.2219 34.1704 74.1946 34.1674 74.1581C32.6959 60.1279 31.2342 46.1061 29.7627 32.076L29.7582 32.0213L29.7039 32.0349C28.0556 32.4279 26.0389 33.3927 24.8747 34.6176C19.8846 39.8383 16.4579 46.3249 14.0971 53.0815C13.5969 54.5178 13.144 55.9685 12.8699 57.4595C12.4765 59.6303 12.4643 61.8338 12.5072 64.0329C12.5705 67.0379 12.717 70.0451 12.9644 73.0441C13.1396 75.168 13.3607 77.2881 13.6277 79.4044L13.7194 79.3968C13.4525 77.2805 13.2314 75.1604 13.0561 73.0365C12.8087 70.0376 12.6538 67.0402 12.5997 64.0344C12.5576 61.8445 12.5598 59.6326 12.9639 57.4792C13.2388 55.9973 13.6916 54.5467 14.1919 53.1104C16.545 46.3728 19.9716 39.8861 24.945 34.6852C26.0922 33.4801 28.1006 32.5251 29.7305 32.1337L29.7176 32.0889L29.6717 32.0926C31.1433 46.1228 32.6049 60.1446 34.0764 74.1748C34.0787 74.2022 34.0817 74.2386 34.0839 74.266C34.0975 74.43 34.0919 74.5865 34.0199 74.7209C33.9555 74.8364 33.85 74.9001 33.7154 74.948C33.59 74.995 33.4348 75.017 33.2789 75.0299C33.2238 75.0344 33.1688 75.0389 33.1138 75.0435C33.0954 75.045 33.0862 75.0458 33.0679 75.0473C32.0406 75.132 31.0739 75.6156 30.3384 76.3279C29.6122 77.0394 29.108 77.9804 29.0249 78.9876L29.1173 78.9891Z" fill="#474646"/>
<path d="M115.934 82.6402L102.046 84.9119L102.756 89.235L116.644 86.9634L115.934 82.6402Z" fill="url(#paint1_linear_546_1061)"/>
<path d="M165.937 74.8209L154.066 76.5808L154.63 80.3713L166.502 78.6114L165.937 74.8209Z" fill="url(#paint2_linear_546_1061)"/>
<path d="M165.02 71.7229L103.468 80.8943C100.929 81.2414 98.485 80.2684 98.1263 77.5998L97.0169 69.4133C96.6582 66.7447 98.4148 64.3054 100.953 63.9583L161.203 55.8029C163.742 55.4558 166.096 57.3449 166.455 60.0135L167.564 68.2C167.931 70.8586 167.558 71.3758 165.02 71.7229Z" fill="#F3F3F3"/>
<path fill-rule="evenodd" clip-rule="evenodd" d="M116.184 72.4075C116.245 72.8225 116.89 73.0693 117.635 72.9628C118.379 72.8562 118.926 72.4388 118.865 72.0238L118.315 68.2776C118.254 67.8625 117.609 67.6157 116.865 67.7222C116.12 67.8288 115.573 68.2462 115.634 68.6613L116.184 72.4075ZM125.139 71.1258C125.2 71.5409 125.844 71.7877 126.589 71.6811C127.334 71.5745 127.881 71.1572 127.82 70.7421L127.269 66.9959C127.208 66.5808 126.564 66.334 125.819 66.4406C125.075 66.5472 124.528 66.9645 124.589 67.3796L125.139 71.1258ZM125.6 64.9463C127.834 64.6265 129.769 65.3773 129.95 66.6122L130.5 70.3584C130.683 71.6037 129.024 72.8583 126.809 73.1754C124.575 73.4952 122.64 72.7444 122.458 71.5095L121.908 67.7633C121.726 66.5284 123.384 65.2633 125.6 64.9463ZM116.645 66.2279C118.879 65.9082 120.814 66.659 120.996 67.8939L121.546 71.6401C121.729 72.8853 120.069 74.14 117.854 74.4571C115.62 74.7768 113.685 74.026 113.504 72.7912L112.953 69.045C112.772 67.8101 114.43 66.545 116.645 66.2279Z" fill="url(#paint3_radial_546_1061)"/>
<path opacity="0.88" fill-rule="evenodd" clip-rule="evenodd" d="M108.9 75.7492C106.665 76.0692 104.73 75.3181 104.548 74.0827L103.667 68.0818L106.568 69.1928L107.228 73.6883C107.289 74.1035 107.934 74.3504 108.679 74.2438C109.424 74.1371 109.971 73.7195 109.91 73.3042L109.69 71.8092L112.592 72.9202C112.794 74.1634 111.135 75.4292 108.9 75.7492ZM162.201 68.1168L161.193 61.2542L164.039 61.9914L164.883 67.7328L162.201 68.1168ZM152.253 62.6615L152.032 61.1561L157.414 60.3854L160.096 60.0014L160.316 61.4964L157.634 61.8804L158.624 68.6184L155.942 69.0024L154.952 62.2644L152.252 62.6511L152.253 62.6615ZM152.018 67.2746C152.201 68.5204 150.541 69.7758 148.325 70.0932C146.09 70.4132 144.154 69.6621 143.973 68.4267L143.9 67.9283L146.581 67.5443L146.655 68.0426C146.716 68.4579 147.36 68.7048 148.105 68.5981C148.85 68.4915 149.397 68.0739 149.336 67.6586L149.201 66.7346C149.175 66.5581 148.893 66.4501 148.576 66.4954L146.472 66.7968C145 67.0075 143.691 66.506 143.57 65.6858C143.497 65.1874 143.497 65.1874 143.424 64.6891C143.241 63.4432 144.901 62.1879 147.117 61.8705C149.352 61.5505 151.288 62.3015 151.469 63.537L151.542 64.0354L148.861 64.4194L148.787 63.921C148.726 63.5058 148.082 63.2589 147.337 63.3655C146.592 63.4722 146.045 63.8898 146.106 64.3051L146.189 64.8761C146.224 65.1149 146.587 65.2537 147.015 65.1924L148.859 64.9284C150.386 64.7097 151.736 65.2266 151.861 66.078C151.913 66.5582 151.948 66.797 152.018 67.2746ZM143.391 70.8102L142.383 63.9477L139.866 65.4529L140.709 71.1943L143.391 70.8102ZM134.563 63.6576C136.798 63.3375 138.734 64.0886 138.915 65.3241L139.062 66.3208L136.38 66.7048L136.233 65.7081C136.172 65.2928 135.528 65.0459 134.783 65.1526C134.038 65.2593 133.491 65.6768 133.552 66.0921L134.102 69.8401C134.163 70.2553 134.808 70.5022 135.553 70.3956C136.298 70.2889 136.845 69.8713 136.784 69.456L135.816 69.5947L135.596 68.0997L136.564 67.961L139.079 67.601L139.265 67.5743L139.338 68.0727L139.484 69.0694L139.814 71.3119L137.352 73.1909L137.112 71.5609C136.696 71.7053 136.255 71.8109 135.79 71.8775C133.555 72.1976 131.619 71.4465 131.438 70.211L130.887 66.4631C130.688 65.2407 132.347 63.9749 134.563 63.6576Z" fill="black"/>
<path fill-rule="evenodd" clip-rule="evenodd" d="M139.615 63.7134C139.554 63.2984 140.101 62.881 140.845 62.7745C141.59 62.6679 142.234 62.9147 142.295 63.3297C142.356 63.7448 141.809 64.1621 141.065 64.2687C140.32 64.3753 139.674 64.1181 139.615 63.7134Z" fill="#6ABD50"/>
<path fill-rule="evenodd" clip-rule="evenodd" d="M161.114 60.6333C161.053 60.2183 161.6 59.801 162.345 59.6944C163.089 59.5878 163.734 59.8346 163.795 60.2497C163.856 60.6647 163.309 61.082 162.564 61.1886C161.838 61.2925 161.174 61.038 161.114 60.6333Z" fill="#6ABD50"/>
<path d="M17.8809 65.9006L16.4797 66.0162C15.7579 66.0757 15.1145 65.5314 15.055 64.811L14.4536 57.5216C14.3942 56.8011 14.9397 56.1587 15.6615 56.0992L17.0628 55.9836C17.7846 55.924 18.428 56.4683 18.4875 57.1887L19.0924 64.5205C19.1483 65.1986 18.6028 65.841 17.8809 65.9006Z" fill="black" stroke="black" stroke-width="0.75" stroke-miterlimit="10" stroke-linecap="round" stroke-linejoin="round"/>
<path d="M17.3879 49.0443C17.3879 49.0443 18.5519 49.1617 19.3901 49.4765C20.2283 49.7914 20.8752 50.378 20.8752 50.378L22.7675 47.4058C22.7675 47.4058 19.5595 46.3477 18.9021 45.6339C18.2412 44.8777 18.2412 44.8777 18.2412 44.8777L17.3879 49.0443Z" fill="white"/>
<mask id="mask0_546_1061" style="mask-type:luminance" maskUnits="userSpaceOnUse" x="17" y="44" width="6" height="7">
<path d="M17.3879 49.0443C17.3879 49.0443 18.5519 49.1617 19.3901 49.4765C20.2283 49.7914 20.8752 50.378 20.8752 50.378L22.7675 47.4058C22.7675 47.4058 19.5595 46.3477 18.9021 45.6339C18.2412 44.8777 18.2412 44.8777 18.2412 44.8777L17.3879 49.0443Z" fill="white"/>
</mask>
<g mask="url(#mask0_546_1061)">
<path opacity="0.5" d="M18.902 45.6339C18.5238 45.1958 18.3365 44.9979 18.287 44.9166L18.2056 44.966L17.3454 49.0479C17.3454 49.0479 17.5612 49.0727 17.9078 49.1295L20.7408 46.677C20.0299 46.3516 19.2272 45.9485 18.902 45.6339Z" fill="#6ABD50"/>
</g>
<path d="M17.3879 49.0443C17.3879 49.0443 18.5519 49.1617 19.3901 49.4765C20.2283 49.7914 20.8752 50.378 20.8752 50.378L22.7675 47.4058C22.7675 47.4058 19.5595 46.3477 18.9021 45.6339C18.2412 44.8777 18.2412 44.8777 18.2412 44.8777L17.3879 49.0443Z" stroke="black" stroke-width="0.75" stroke-miterlimit="10" stroke-linecap="round" stroke-linejoin="round"/>
<path d="M21.6932 46.2997L19.3758 49.8191L19.8099 50.9353L23.4196 46.4986L21.6932 46.2997Z" fill="#6ABD50" stroke="black" stroke-miterlimit="10" stroke-linecap="round" stroke-linejoin="round"/>
<path d="M16.7626 37.3194C14.9098 36.1069 10.3939 37.3329 9.76791 40.6273C9.37675 42.6224 9.92223 45.6068 9.92223 45.6068L15.0541 44.0741C15.199 44.2755 15.3403 44.4345 15.5311 44.6747C16.4853 45.8761 18.2412 44.8778 18.6733 44.4155C18.9106 44.1826 18.8546 43.5045 18.7243 42.9605L18.9331 42.9007C18.9331 42.9007 18.6154 38.532 16.7626 37.3194Z" fill="black" stroke="black" stroke-width="0.75" stroke-miterlimit="10" stroke-linecap="round" stroke-linejoin="round"/>
<path d="M15.3199 43.668C15.3199 43.668 11.8845 43.4821 8.57852 44.8643C5.27601 46.2888 4.84689 47.3056 7.2637 47.0635C9.68051 46.8214 15.3199 43.668 15.3199 43.668Z" fill="black" stroke="black" stroke-width="0.75" stroke-miterlimit="10" stroke-linecap="round" stroke-linejoin="round"/>
<path d="M11.057 42.7823C11.4557 42.7494 11.7428 42.2863 11.6984 41.748C11.654 41.2096 11.2948 40.7999 10.8962 40.8328C10.4975 40.8657 10.2103 41.3287 10.2547 41.8671C10.2992 42.4054 10.6583 42.8152 11.057 42.7823Z" fill="#6ABD50"/>
<path d="M27.6682 47.2149C27.6682 47.2149 22.8995 46.4136 21.5892 47.6311C20.2789 48.8486 20.0436 50.6601 20.689 52.7829C21.3344 54.9058 22.9104 60.5361 22.9104 60.5361L28.6032 56.9942L27.6682 47.2149Z" fill="black" stroke="black" stroke-width="0.75" stroke-miterlimit="10" stroke-linecap="round" stroke-linejoin="round"/>
<path d="M21.2656 59.7756C21.2656 59.7756 21.1927 62.0004 20.9199 62.3216C20.6472 62.6428 12.3842 56.7962 11.8682 56.2414C11.3522 55.6866 11.51 53.4548 11.5815 52.7662C11.6529 52.0776 11.4091 51.7137 10.6833 52.2429C9.95745 52.7722 10.3306 54.7042 10.3306 54.7042C10.3306 54.7042 7.99223 54.3424 7.56411 54.3351C7.09004 54.2888 6.75684 54.9137 6.87673 55.3305C7.00012 55.7897 7.59458 55.7406 7.59458 55.7406C7.59458 55.7406 7.43422 56.9059 7.8828 57.6796C8.33139 58.4533 8.84392 58.9657 9.70714 59.0652C10.5739 59.207 12.3537 59.0175 12.3537 59.0175C12.3537 59.0175 16.6138 62.4635 17.9182 63.764C19.2225 65.0644 21.7576 66.7754 22.9186 66.3382C24.0795 65.9011 24.733 59.8309 24.733 59.8309L21.2656 59.7756Z" fill="white"/>
<mask id="mask1_546_1061" style="mask-type:luminance" maskUnits="userSpaceOnUse" x="6" y="51" width="19" height="16">
<path d="M21.2656 59.7756C21.2656 59.7756 21.1927 62.0004 20.9199 62.3216C20.6472 62.6428 12.3842 56.7962 11.8682 56.2414C11.3522 55.6866 11.51 53.4548 11.5815 52.7662C11.6529 52.0776 11.4091 51.7137 10.6833 52.2429C9.95745 52.7722 10.3306 54.7042 10.3306 54.7042C10.3306 54.7042 7.99223 54.3424 7.56411 54.3351C7.09004 54.2888 6.75684 54.9137 6.87673 55.3305C7.00012 55.7897 7.59458 55.7406 7.59458 55.7406C7.59458 55.7406 7.43422 56.9059 7.8828 57.6796C8.33139 58.4533 8.84392 58.9657 9.70714 59.0652C10.5739 59.207 12.3537 59.0175 12.3537 59.0175C12.3537 59.0175 16.6138 62.4635 17.9182 63.764C19.2225 65.0644 21.7576 66.7754 22.9186 66.3382C24.0795 65.9011 24.733 59.8309 24.733 59.8309L21.2656 59.7756Z" fill="white"/>
</mask>
<g mask="url(#mask1_546_1061)">
<path opacity="0.5" d="M20.9202 62.3216L23.2336 62.8988C23.2336 62.8988 23.6672 64.5271 22.0142 65.2181C21.0655 65.6378 19.1453 64.6441 17.7945 63.8169L17.8405 63.8557C19.1448 65.1562 21.68 66.8671 22.8409 66.43C24.0019 65.9929 24.6553 59.9227 24.6553 59.9227L21.181 59.7826C21.2659 59.7756 21.1929 62.0004 20.9202 62.3216Z" fill="#6ABD50"/>
</g>
<path d="M21.2656 59.7756C21.2656 59.7756 21.1927 62.0004 20.9199 62.3216C20.6472 62.6428 12.3842 56.7962 11.8682 56.2414C11.3522 55.6866 11.51 53.4548 11.5815 52.7662C11.6529 52.0776 11.4091 51.7137 10.6833 52.2429C9.95745 52.7722 10.3306 54.7042 10.3306 54.7042C10.3306 54.7042 7.99223 54.3424 7.56411 54.3351C7.09004 54.2888 6.75684 54.9137 6.87673 55.3305C7.00012 55.7897 7.59458 55.7406 7.59458 55.7406C7.59458 55.7406 7.43422 56.9059 7.8828 57.6796C8.33139 58.4533 8.84392 58.9657 9.70714 59.0652C10.5739 59.207 12.3537 59.0175 12.3537 59.0175C12.3537 59.0175 16.6138 62.4635 17.9182 63.764C19.2225 65.0644 21.7576 66.7754 22.9186 66.3382C24.0795 65.9011 24.733 59.8309 24.733 59.8309L21.2656 59.7756Z" stroke="black" stroke-width="0.75" stroke-miterlimit="10" stroke-linecap="round" stroke-linejoin="round"/>
<path d="M13.2822 57.3196L12.3181 59.1059L12.9016 59.4417L13.9151 57.7367L13.2822 57.3196Z" fill="black" stroke="black" stroke-miterlimit="10"/>
<path d="M13.0292 58.9193C13.2637 58.8999 13.4382 58.6945 13.4189 58.4604C13.3996 58.2264 13.1938 58.0523 12.9593 58.0717C12.7248 58.091 12.5503 58.2964 12.5696 58.5305C12.5889 58.7646 12.7947 58.9386 13.0292 58.9193Z" fill="white" stroke="black" stroke-width="0.75" stroke-miterlimit="10" stroke-linecap="round" stroke-linejoin="round"/>
<path d="M10.9443 46.0772C10.9443 46.0772 11.2515 46.6919 11.7705 47.8011C12.286 48.868 14.8172 51.0486 15.9777 51.1235C17.1346 51.1561 18.1542 46.9331 18.2966 46.068C18.357 45.7643 18.3645 45.337 18.3645 45.337C18.3645 45.337 19.7523 44.5398 19.3462 43.7626C18.94 42.9854 18.2292 42.66 17.9529 42.9388C17.6767 43.2176 17.6792 44.2841 17.2121 44.3227C16.745 44.3612 16.4798 44.2551 16.0062 43.6968C15.5326 43.1385 11.2535 44.6436 10.9443 46.0772Z" fill="white"/>
<mask id="mask2_546_1061" style="mask-type:luminance" maskUnits="userSpaceOnUse" x="10" y="42" width="10" height="10">
<path d="M10.9443 46.0772C10.9443 46.0772 11.2515 46.6919 11.7705 47.8011C12.286 48.868 14.8172 51.0486 15.9777 51.1235C17.1346 51.1561 18.1542 46.9331 18.2966 46.068C18.357 45.7643 18.3645 45.337 18.3645 45.337C18.3645 45.337 19.7523 44.5398 19.3462 43.7626C18.94 42.9854 18.2292 42.66 17.9529 42.9388C17.6767 43.2176 17.6792 44.2841 17.2121 44.3227C16.745 44.3612 16.4798 44.2551 16.0062 43.6968C15.5326 43.1385 11.2535 44.6436 10.9443 46.0772Z" fill="white"/>
</mask>
<g mask="url(#mask2_546_1061)">
<path opacity="0.5" d="M16.0025 43.6544C15.5324 43.1385 11.2957 44.6401 10.9441 46.0772C10.9441 46.0772 11.0465 46.2821 11.2513 46.6919C12.0161 46.1167 14.0872 44.7938 16.4196 44.0467C16.2852 43.9724 16.1439 43.8134 16.0025 43.6544Z" fill="#6ABD50"/>
</g>
<mask id="mask3_546_1061" style="mask-type:luminance" maskUnits="userSpaceOnUse" x="10" y="42" width="10" height="10">
<path d="M10.9443 46.0772C10.9443 46.0772 11.2515 46.6919 11.7705 47.8011C12.286 48.868 14.8172 51.0486 15.9777 51.1235C17.1346 51.1561 18.1542 46.9331 18.2966 46.068C18.357 45.7643 18.3645 45.337 18.3645 45.337C18.3645 45.337 19.7523 44.5398 19.3462 43.7626C18.94 42.9854 18.2292 42.66 17.9529 42.9388C17.6767 43.2176 17.6792 44.2841 17.2121 44.3227C16.745 44.3612 16.4798 44.2551 16.0062 43.6968C15.5326 43.1385 11.2535 44.6436 10.9443 46.0772Z" fill="white"/>
</mask>
<g mask="url(#mask3_546_1061)">
<path opacity="0.5" d="M19.2899 43.5965C18.8908 42.904 18.2259 42.6175 17.9496 42.8963C17.7903 43.0375 17.7368 43.4259 17.5949 43.779C18.1824 43.6452 18.7344 43.5996 19.2899 43.5965Z" fill="#6ABD50"/>
</g>
<path d="M10.9443 46.0772C10.9443 46.0772 11.2515 46.6919 11.7705 47.8011C12.286 48.868 14.8172 51.0486 15.9777 51.1235C17.1346 51.1561 18.1542 46.9331 18.2966 46.068C18.357 45.7643 18.3645 45.337 18.3645 45.337C18.3645 45.337 19.7523 44.5398 19.3462 43.7626C18.94 42.9854 18.2292 42.66 17.9529 42.9388C17.6767 43.2176 17.6792 44.2841 17.2121 44.3227C16.745 44.3612 16.4798 44.2551 16.0062 43.6968C15.5326 43.1385 11.2535 44.6436 10.9443 46.0772Z" stroke="black" stroke-width="0.75" stroke-miterlimit="10" stroke-linecap="round" stroke-linejoin="round"/>
<path d="M12.4976 46.2478C12.6035 46.4951 12.582 46.7529 12.4971 46.7599C12.4157 46.8093 12.2283 46.6114 12.1224 46.3641C12.0165 46.1168 12.038 45.8591 12.1229 45.8521C12.2503 45.8415 12.3917 46.0006 12.4976 46.2478Z" fill="black" stroke="black" stroke-miterlimit="10"/>
<path d="M11.6734 45.5903C12.2538 45.3717 12.5471 45.8169 12.6635 46.1913L12.8328 46.6894L13.3688 48.5226L13.8998 48.2227" stroke="black" stroke-width="0.5" stroke-miterlimit="10" stroke-linecap="round" stroke-linejoin="round"/>
<path d="M14.0654 45.5636C14.0654 45.5636 14.3701 45.1118 15.053 45.0981" stroke="black" stroke-width="0.5" stroke-miterlimit="10" stroke-linecap="round" stroke-linejoin="round"/>
<path d="M14.4771 44.335C14.4771 44.335 13.6384 44.5322 13.5809 45.3903" stroke="black" stroke-width="0.5" stroke-miterlimit="10" stroke-linecap="round" stroke-linejoin="round"/>
<path d="M14.4196 48.8201C14.4196 48.8201 15.63 48.4642 15.6415 47.5672" stroke="black" stroke-width="0.5" stroke-miterlimit="10" stroke-linecap="round" stroke-linejoin="round"/>
<path d="M26.0714 62.5792L19.6862 61.3566C19.6862 61.3566 19.364 50.716 20.1938 48.8555C21.4492 45.9357 24.9935 46.9234 25.9171 50.346C26.7843 53.6026 26.0714 62.5792 26.0714 62.5792Z" fill="#6ABD50" stroke="black" stroke-miterlimit="10" stroke-linecap="round" stroke-linejoin="round"/>
<path d="M19.7583 60.156C19.7583 60.156 23.2182 60.6386 25.3547 61.145" stroke="black" stroke-width="0.5" stroke-miterlimit="10" stroke-linecap="round" stroke-linejoin="round"/>
<path d="M24.0312 46.6614C24.0312 46.6614 26.0834 46.6627 27.4871 47.6137" stroke="#6ABD50" stroke-width="0.5" stroke-miterlimit="10" stroke-linecap="round" stroke-linejoin="round"/>
<path d="M83.0049 66.9959C83.0049 66.9959 102.007 63.9341 124.162 67.8464" stroke="black" stroke-miterlimit="10" stroke-linecap="round" stroke-linejoin="round"/>
<path d="M161.158 47.4492C162.533 47.4466 163.879 47.4968 165.185 47.5589" stroke="black" stroke-miterlimit="10" stroke-linecap="round" stroke-linejoin="round"/>
<path d="M126.777 51.4575C126.777 51.4575 141.506 48.0897 156.384 47.5136" stroke="black" stroke-miterlimit="10" stroke-linecap="round" stroke-linejoin="round"/>
<path d="M85.4512 96.3335C85.4512 96.3335 102.834 93.2292 122.944 95.6531" stroke="black" stroke-miterlimit="10" stroke-linecap="round" stroke-linejoin="round"/>
<path d="M83.8745 94.3349C83.8745 94.3349 92.7791 93.2292 95.7189 93.0166" stroke="black" stroke-miterlimit="10" stroke-linecap="round" stroke-linejoin="round"/>
<path d="M118.221 40.2461C119.508 40.1694 120.812 40.1761 121.998 40.249" stroke="black" stroke-miterlimit="10" stroke-linecap="round" stroke-linejoin="round"/>
<path d="M100.122 43.3718C100.122 43.3718 107.863 41.2184 115.613 40.4495" stroke="black" stroke-miterlimit="10" stroke-linecap="round" stroke-linejoin="round"/>
<path d="M39 74.7343C39 74.7343 48.7393 68.8571 62.8109 67.2429" stroke="black" stroke-miterlimit="10" stroke-linecap="round" stroke-linejoin="round"/>
<path d="M53.394 63.679C53.394 63.679 61.1057 61.6804 72.8223 61" stroke="black" stroke-miterlimit="10" stroke-linecap="round" stroke-linejoin="round"/>
<path fill-rule="evenodd" clip-rule="evenodd" d="M21.1508 79.5329L17.6323 74.3422C17.4674 74.0992 17.4354 73.6824 17.5609 73.412L20.4782 67.2672L24.2997 72.8998C24.4645 73.1428 24.4965 73.5596 24.3711 73.83L21.6828 79.492C21.5569 79.7573 21.3186 79.7756 21.1508 79.5329Z" fill="url(#paint4_radial_546_1061)"/>
<path fill-rule="evenodd" clip-rule="evenodd" d="M22.365 75.4259C21.708 75.4763 21.1046 74.5869 21.0165 73.4381L20.6333 68.4466L21.5301 69.7685L21.8072 73.3774C21.8364 73.7587 22.0376 74.0551 22.2556 74.0384C22.4736 74.0217 22.6271 73.698 22.5979 73.3167L22.4921 71.9392L23.389 73.2611C23.48 74.4097 23.0191 75.3756 22.365 75.4259ZM19.8563 75.6184C20.5133 75.568 20.9738 74.597 20.8856 73.4482L20.5025 68.4566L19.8179 69.8999L20.0949 73.5089C20.1242 73.8901 19.9707 74.2138 19.7527 74.2305C19.5346 74.2473 19.3335 73.9508 19.3042 73.5696L19.1985 72.1921L18.511 73.6356C18.5992 74.7844 19.2022 75.6687 19.8563 75.6184Z" fill="white"/>
<defs>
<linearGradient id="paint0_linear_546_1061" x1="60.5" y1="4.50006" x2="67" y2="77.0001" gradientUnits="userSpaceOnUse">
<stop stop-color="white"/>
<stop offset="1" stop-color="#C0C0C0"/>
</linearGradient>
<linearGradient id="paint1_linear_546_1061" x1="108.99" y1="83.776" x2="109.697" y2="88.0997" gradientUnits="userSpaceOnUse">
<stop stop-color="#D5D5D5"/>
<stop offset="0.82" stop-color="#BDBCBC"/>
<stop offset="1" stop-color="#747474"/>
</linearGradient>
<linearGradient id="paint2_linear_546_1061" x1="160.002" y1="75.7008" x2="160.564" y2="79.4917" gradientUnits="userSpaceOnUse">
<stop stop-color="#D5D5D5"/>
<stop offset="0.82" stop-color="#BDBCBC"/>
<stop offset="1" stop-color="#747474"/>
</linearGradient>
<radialGradient id="paint3_radial_546_1061" cx="0" cy="0" r="1" gradientUnits="userSpaceOnUse" gradientTransform="translate(126.192 66.8992) rotate(-37.2204) scale(8.62742 7.41148)">
<stop stop-color="#1C9102"/>
<stop offset="1" stop-color="#6ABD50"/>
</radialGradient>
<radialGradient id="paint4_radial_546_1061" cx="0" cy="0" r="1" gradientUnits="userSpaceOnUse" gradientTransform="translate(22.6535 70.1125) rotate(59.5909) scale(3.51806 2.79951)">
<stop stop-color="#1C9102"/>
<stop offset="1" stop-color="#6ABD50"/>
</radialGradient>
</defs>
</svg>
