<svg width="451" height="280" viewBox="0 0 451 280" fill="none" xmlns="http://www.w3.org/2000/svg">
<g clip-path="url(#clip0_547_1186)">
<rect width="451" height="280" fill="white"/>
<g clip-path="url(#clip1_547_1186)">
<rect width="281.899" height="554.255" transform="matrix(0.712826 0.701341 -0.858811 0.512293 290.093 -179.623)" fill="url(#paint0_linear_547_1186)"/>
<path d="M291.795 78.7065L243.889 79.7075L237.341 261.185L285.247 260.184L291.795 78.7065Z" fill="#1D9E00"/>
<path d="M302.815 78.4845L254.909 79.4856L248.361 260.964L296.267 259.963L302.815 78.4845Z" fill="#6ABD50"/>
<path d="M253.978 90.4509L302.747 89.4236L303.135 78.7462L254.366 79.7735L253.978 90.4509Z" fill="#1D9E00"/>
<path d="M253.192 113.084L301.961 112.057L302.349 101.379L253.58 102.407L253.192 113.084Z" fill="#1D9E00"/>
<path d="M252.404 135.718L301.174 134.69L301.562 124.013L252.793 125.04L252.404 135.718Z" fill="#1D9E00"/>
<path d="M251.618 158.351L300.388 157.323L300.776 146.646L252.007 147.673L251.618 158.351Z" fill="#1D9E00"/>
<path d="M250.831 180.984L299.601 179.957L299.989 169.279L251.22 170.306L250.831 180.984Z" fill="#1D9E00"/>
<path d="M250.044 203.637L298.813 202.61L299.202 191.932L250.432 192.96L250.044 203.637Z" fill="#1D9E00"/>
<path d="M249.257 226.271L298.026 225.243L298.415 214.566L249.645 215.593L249.257 226.271Z" fill="#1D9E00"/>
<path d="M248.471 248.904L297.24 247.877L297.629 237.199L248.859 238.227L248.471 248.904Z" fill="#1D9E00"/>
<path d="M369.381 102.694L321.443 103.699L315.797 259.597L363.734 258.592L369.381 102.694Z" fill="#1D9E00"/>
<path d="M380.401 102.472L332.464 103.477L326.818 259.375L374.755 258.37L380.401 102.472Z" fill="#6ABD50"/>
<path d="M331.585 112.95L380.389 111.925L380.721 102.754L331.917 103.778L331.585 112.95Z" fill="#1D9E00"/>
<path d="M330.909 132.376L379.713 131.352L380.045 122.181L331.241 123.205L330.909 132.376Z" fill="#1D9E00"/>
<path d="M330.234 151.803L379.038 150.779L379.37 141.608L330.567 142.632L330.234 151.803Z" fill="#1D9E00"/>
<path d="M329.558 171.25L378.362 170.226L378.695 161.054L329.891 162.079L329.558 171.25Z" fill="#1D9E00"/>
<path d="M328.883 190.677L377.687 189.653L378.019 180.481L329.215 181.506L328.883 190.677Z" fill="#1D9E00"/>
<path d="M328.208 210.104L377.012 209.08L377.344 199.909L328.54 200.933L328.208 210.104Z" fill="#1D9E00"/>
<path d="M327.532 229.531L376.336 228.507L376.668 219.336L327.864 220.36L327.532 229.531Z" fill="#1D9E00"/>
<path d="M326.856 248.978L375.66 247.954L375.993 238.783L327.189 239.807L326.856 248.978Z" fill="#1D9E00"/>
<path d="M209.846 278.563L230.065 278.13L230.913 255.194L210.694 255.627L209.846 278.563Z" fill="#6ABD50"/>
<path d="M215.922 224.965L213.555 288.932L-1.4751 293.542L-2.93606 293.553L-57.7878 294.323C-57.8377 294.263 -57.8869 294.183 -57.9361 294.103C-58.0099 293.983 -58.1352 293.843 -58.2335 293.683C-58.2835 293.623 -58.3073 293.563 -58.3573 293.503C-58.5056 293.283 -58.6786 293.023 -58.8769 292.743C-59.1251 292.403 -59.3711 292.002 -59.667 291.542C-60.7531 289.881 -62.2066 287.578 -63.8218 284.71C-64.3608 283.767 -64.9235 282.764 -65.484 281.701C-65.7031 281.279 -65.9484 280.858 -66.1667 280.416C-66.3859 279.995 -66.6042 279.553 -66.8487 279.112C-66.848 279.091 -66.8741 279.092 -66.8733 279.072C-67.0186 278.77 -67.1901 278.469 -67.3347 278.148C-67.5053 277.827 -67.6499 277.505 -67.8199 277.164C-68.6434 275.456 -69.5162 273.668 -70.3583 271.758C-70.3829 271.718 -70.4067 271.658 -70.4313 271.618C-70.9851 270.371 -71.5373 269.084 -72.0619 267.755C-72.3481 267.031 -72.6596 266.287 -72.945 265.542C-72.9696 265.502 -72.9934 265.441 -72.9919 265.401C-73.1096 265.058 -73.2542 264.736 -73.372 264.394C-73.4919 264.112 -73.5858 263.83 -73.6797 263.548C-73.8928 262.964 -74.1052 262.36 -74.3436 261.756C-74.6283 260.991 -74.8861 260.205 -75.1692 259.399C-75.5202 258.31 -75.8711 257.222 -76.2213 256.113C-76.3129 255.77 -76.4314 255.448 -76.523 255.104C-76.8247 254.096 -77.1257 253.067 -77.4006 252.038C-77.4929 251.715 -77.5846 251.372 -77.6762 251.029C-77.7209 250.827 -77.7917 250.626 -77.8356 250.403C-78.2706 248.769 -78.6519 247.092 -79.0325 245.395C-79.4324 243.516 -79.8055 241.616 -80.1248 239.675C-80.4233 237.875 -80.6689 236.053 -80.8876 234.211C-81.0839 232.469 -81.2527 230.687 -81.3692 228.903C-81.6573 224.708 -81.6806 220.405 -81.4398 216.016C-81.0005 208.375 -79.6907 200.471 -77.1758 192.42C-77.0869 192.134 -76.9974 191.828 -76.9085 191.542C-76.2897 189.621 -75.6194 187.719 -74.844 185.794C-74.2678 184.32 -73.6401 182.866 -72.9856 181.39C-72.5028 180.324 -71.9939 179.258 -71.4849 178.192C-70.2999 175.771 -68.9851 173.368 -67.5391 170.942L-66.3906 170.918L-66.3169 168.927C-58.5265 156.46 -47.2682 144.02 -31.4408 132.152C-31.1455 131.922 -30.8508 131.713 -30.5554 131.483L-29.6679 131.464L-30.5733 155.921L-2.74842 155.325L-1.27304 115.47L29.4231 114.812L28.4651 140.691L35.4605 140.541L36.6042 109.645L67.3004 108.986L65.1557 166.92L103.97 166.088L102.719 199.869L117.232 199.558L116.917 208.069L150.249 207.355L150.791 192.709L169.924 192.298L171.398 152.484L195.021 151.978L192.3 225.472L215.922 224.965Z" fill="#6ABD50"/>
<path d="M35.6422 120.767L66.5752 120.118L66.7909 114.165L35.8578 114.814L35.6422 120.767Z" fill="#1D9E00"/>
<path d="M35.2632 131.68L66.1963 131.031L66.412 125.077L35.4789 125.726L35.2632 131.68Z" fill="#1D9E00"/>
<path d="M34.9214 141.502L65.8545 140.853L66.0702 134.899L35.1371 135.548L34.9214 141.502Z" fill="#1D9E00"/>
<path d="M-3.24066 142.27L27.6924 141.621L27.9081 135.667L-3.02497 136.316L-3.24066 142.27Z" fill="#1D9E00"/>
<path d="M-2.89984 132.448L28.0332 131.799L28.2489 125.845L-2.68415 126.494L-2.89984 132.448Z" fill="#1D9E00"/>
<path d="M-2.55902 122.656L28.374 122.007L28.5897 116.053L-2.34333 116.702L-2.55902 122.656Z" fill="#1D9E00"/>
<path d="M-3.56758 151.807L65.5059 150.383L65.7184 144.412L-3.35503 145.836L-3.56758 151.807Z" fill="#1D9E00"/>
<path d="M-3.89864 161.332L65.1748 159.908L65.3874 153.937L-3.68608 155.361L-3.89864 161.332Z" fill="#1D9E00"/>
<path d="M172.095 162.367L196.002 161.857L196.338 152.727L172.431 153.237L172.095 162.367Z" fill="#1D9E00"/>
<path d="M171.631 175.705L195.538 175.196L195.874 166.066L171.967 166.575L171.631 175.705Z" fill="#1D9E00"/>
<path d="M171.167 189.043L195.074 188.534L195.41 179.404L171.503 179.913L171.167 189.043Z" fill="#1D9E00"/>
<path d="M170.681 203.028L194.588 202.519L194.925 193.369L171.018 193.878L170.681 203.028Z" fill="#1D9E00"/>
<path d="M170.211 216.567L194.117 216.057L194.454 206.907L170.547 207.416L170.211 216.567Z" fill="#1D9E00"/>
<path d="M169.74 230.125L193.646 229.616L193.982 220.486L170.076 220.995L169.74 230.125Z" fill="#1D9E00"/>
<path d="M169.247 244.296L193.153 243.786L193.489 234.656L169.582 235.165L169.247 244.296Z" fill="#1D9E00"/>
<path d="M-4.18021 168.492L64.96 167.078L65.0935 163.298L-4.04667 164.712L-4.18021 168.492Z" fill="#1D9E00"/>
<path d="M172.565 153.2L163.873 153.381L162.46 192.737L171.151 192.557L172.565 153.2Z" fill="#1D9E00"/>
<path d="M151.671 192.763L134.037 193.141L133.496 207.756L151.13 207.378L151.671 192.763Z" fill="#1D9E00"/>
<path d="M35.8771 110.992L32.1699 111.068L31.0887 141.539L34.7958 141.462L35.8771 110.992Z" fill="#1D9E00"/>
<g opacity="0.8">
<path d="M92.2551 178.257L97.4268 178.146L97.6372 172.46L92.4655 172.571L92.2551 178.257Z" fill="#1D9E00"/>
<path d="M82.4054 178.455L87.5771 178.344L87.7876 172.658L82.6159 172.769L82.4054 178.455Z" fill="#1D9E00"/>
<path d="M72.7853 178.649L77.957 178.538L78.1675 172.852L72.9958 172.963L72.7853 178.649Z" fill="#1D9E00"/>
<path d="M63.6349 178.833L68.8066 178.722L69.0171 173.036L63.8454 173.147L63.6349 178.833Z" fill="#1D9E00"/>
<path d="M54.3469 179.02L59.5186 178.909L59.729 173.223L54.5573 173.334L54.3469 179.02Z" fill="#1D9E00"/>
<path d="M44.924 179.209L50.0957 179.099L50.3062 173.413L45.1345 173.524L44.924 179.209Z" fill="#1D9E00"/>
<path d="M35.0734 179.408L40.2451 179.297L40.4556 173.611L35.2839 173.722L35.0734 179.408Z" fill="#1D9E00"/>
<path d="M25.4279 179.602L30.5996 179.491L30.8101 173.805L25.6384 173.916L25.4279 179.602Z" fill="#1D9E00"/>
<path d="M16.3049 179.785L21.4766 179.675L21.687 173.989L16.5153 174.1L16.3049 179.785Z" fill="#1D9E00"/>
<path d="M6.98943 179.973L12.1611 179.862L12.3716 174.177L7.19988 174.287L6.98943 179.973Z" fill="#1D9E00"/>
<path d="M-2.71369 180.168L2.45801 180.058L2.66846 174.372L-2.50324 174.483L-2.71369 180.168Z" fill="#1D9E00"/>
<path d="M91.9103 188.173L97.082 188.062L97.2925 182.376L92.1208 182.487L91.9103 188.173Z" fill="#1D9E00"/>
<path d="M82.0607 188.371L87.2324 188.26L87.4429 182.574L82.2712 182.685L82.0607 188.371Z" fill="#1D9E00"/>
<path d="M72.4406 188.564L77.6123 188.454L77.8228 182.768L72.651 182.879L72.4406 188.564Z" fill="#1D9E00"/>
<path d="M63.2902 188.749L68.4619 188.638L68.6724 182.952L63.5007 183.063L63.2902 188.749Z" fill="#1D9E00"/>
<path d="M54.0021 188.936L59.1738 188.825L59.3843 183.139L54.2126 183.25L54.0021 188.936Z" fill="#1D9E00"/>
<path d="M44.5793 189.125L49.751 189.014L49.9614 183.329L44.7897 183.44L44.5793 189.125Z" fill="#1D9E00"/>
<path d="M34.7287 189.324L39.9004 189.213L40.1108 183.527L34.9391 183.638L34.7287 189.324Z" fill="#1D9E00"/>
<path d="M25.0832 189.518L30.2549 189.407L30.4653 183.721L25.2936 183.832L25.0832 189.518Z" fill="#1D9E00"/>
<path d="M15.9601 189.701L21.1318 189.591L21.3423 183.905L16.1706 184.016L15.9601 189.701Z" fill="#1D9E00"/>
<path d="M6.64471 189.889L11.8164 189.778L12.0269 184.092L6.85516 184.203L6.64471 189.889Z" fill="#1D9E00"/>
<path d="M-3.05939 190.084L2.1123 189.974L2.32276 184.288L-2.84894 184.399L-3.05939 190.084Z" fill="#1D9E00"/>
<path d="M91.5705 197.945L96.7422 197.834L96.9526 192.148L91.7809 192.259L91.5705 197.945Z" fill="#1D9E00"/>
<path d="M81.7209 198.143L86.8926 198.032L87.103 192.347L81.9313 192.458L81.7209 198.143Z" fill="#1D9E00"/>
<path d="M72.1008 198.337L77.2725 198.226L77.4829 192.54L72.3112 192.651L72.1008 198.337Z" fill="#1D9E00"/>
<path d="M62.9504 198.521L68.1221 198.41L68.3325 192.725L63.1608 192.836L62.9504 198.521Z" fill="#1D9E00"/>
<path d="M53.6623 198.708L58.834 198.597L59.0444 192.912L53.8727 193.023L53.6623 198.708Z" fill="#1D9E00"/>
<path d="M44.2394 198.898L49.4111 198.787L49.6216 193.101L44.4499 193.212L44.2394 198.898Z" fill="#1D9E00"/>
<path d="M34.3888 199.096L39.5605 198.985L39.771 193.299L34.5993 193.41L34.3888 199.096Z" fill="#1D9E00"/>
<path d="M24.7433 199.29L29.915 199.179L30.1255 193.493L24.9538 193.604L24.7433 199.29Z" fill="#1D9E00"/>
<path d="M15.6203 199.474L20.792 199.363L21.0024 193.677L15.8307 193.788L15.6203 199.474Z" fill="#1D9E00"/>
<path d="M6.30486 199.661L11.4766 199.551L11.687 193.865L6.51531 193.976L6.30486 199.661Z" fill="#1D9E00"/>
<path d="M-3.39924 199.857L1.77246 199.746L1.98291 194.06L-3.18879 194.171L-3.39924 199.857Z" fill="#1D9E00"/>
<path d="M91.2101 208.317L96.3818 208.206L96.5923 202.521L91.4206 202.631L91.2101 208.317Z" fill="#1D9E00"/>
<path d="M81.3605 208.515L86.5322 208.405L86.7427 202.719L81.571 202.83L81.3605 208.515Z" fill="#1D9E00"/>
<path d="M71.7404 208.709L76.9121 208.598L77.1226 202.912L71.9509 203.023L71.7404 208.709Z" fill="#1D9E00"/>
<path d="M62.59 208.893L67.7617 208.782L67.9722 203.097L62.8005 203.208L62.59 208.893Z" fill="#1D9E00"/>
<path d="M53.3019 209.08L58.4736 208.969L58.6841 203.284L53.5124 203.395L53.3019 209.08Z" fill="#1D9E00"/>
<path d="M43.8791 209.27L49.0508 209.159L49.2612 203.473L44.0895 203.584L43.8791 209.27Z" fill="#1D9E00"/>
<path d="M34.0285 209.468L39.2002 209.357L39.4106 203.671L34.2389 203.782L34.0285 209.468Z" fill="#1D9E00"/>
<path d="M24.383 209.662L29.5547 209.551L29.7651 203.866L24.5934 203.976L24.383 209.662Z" fill="#1D9E00"/>
<path d="M15.2599 209.846L20.4316 209.735L20.6421 204.049L15.4704 204.16L15.2599 209.846Z" fill="#1D9E00"/>
<path d="M5.94451 210.033L11.1162 209.923L11.3267 204.237L6.15496 204.348L5.94451 210.033Z" fill="#1D9E00"/>
<path d="M-3.75959 210.229L1.41211 210.118L1.62256 204.432L-3.54914 204.543L-3.75959 210.229Z" fill="#1D9E00"/>
<path d="M90.8654 218.233L96.0371 218.122L96.2476 212.437L91.0759 212.547L90.8654 218.233Z" fill="#1D9E00"/>
<path d="M81.0158 218.431L86.1875 218.321L86.398 212.635L81.2262 212.746L81.0158 218.431Z" fill="#1D9E00"/>
<path d="M71.3957 218.625L76.5674 218.514L76.7778 212.828L71.6061 212.939L71.3957 218.625Z" fill="#1D9E00"/>
<path d="M62.2453 218.809L67.417 218.698L67.6274 213.013L62.4557 213.124L62.2453 218.809Z" fill="#1D9E00"/>
<path d="M52.9572 218.996L58.1289 218.885L58.3394 213.2L53.1677 213.311L52.9572 218.996Z" fill="#1D9E00"/>
<path d="M43.5344 219.186L48.7061 219.075L48.9165 213.389L43.7448 213.5L43.5344 219.186Z" fill="#1D9E00"/>
<path d="M33.6838 219.384L38.8555 219.273L39.0659 213.587L33.8942 213.698L33.6838 219.384Z" fill="#1D9E00"/>
<path d="M24.0383 219.578L29.21 219.467L29.4204 213.782L24.2487 213.892L24.0383 219.578Z" fill="#1D9E00"/>
<path d="M14.9152 219.762L20.0869 219.651L20.2974 213.965L15.1257 214.076L14.9152 219.762Z" fill="#1D9E00"/>
<path d="M5.59979 219.949L10.7715 219.839L10.9819 214.153L5.81024 214.264L5.59979 219.949Z" fill="#1D9E00"/>
<path d="M-4.10431 220.145L1.06738 220.034L1.27783 214.348L-3.89386 214.459L-4.10431 220.145Z" fill="#1D9E00"/>
<path d="M90.5256 228.005L95.6973 227.894L95.9077 222.208L90.736 222.319L90.5256 228.005Z" fill="#1D9E00"/>
<path d="M80.676 228.203L85.8477 228.092L86.0581 222.407L80.8864 222.517L80.676 228.203Z" fill="#1D9E00"/>
<path d="M71.0558 228.397L76.2275 228.286L76.438 222.6L71.2663 222.711L71.0558 228.397Z" fill="#1D9E00"/>
<path d="M61.9054 228.581L67.0771 228.47L67.2876 222.784L62.1159 222.895L61.9054 228.581Z" fill="#1D9E00"/>
<path d="M52.6174 228.768L57.7891 228.657L57.9995 222.971L52.8278 223.082L52.6174 228.768Z" fill="#1D9E00"/>
<path d="M43.1945 228.958L48.3662 228.847L48.5767 223.161L43.405 223.272L43.1945 228.958Z" fill="#1D9E00"/>
<path d="M33.3439 229.156L38.5156 229.045L38.7261 223.359L33.5544 223.47L33.3439 229.156Z" fill="#1D9E00"/>
<path d="M23.6984 229.35L28.8701 229.239L29.0806 223.553L23.9089 223.664L23.6984 229.35Z" fill="#1D9E00"/>
<path d="M14.5754 229.533L19.7471 229.423L19.9575 223.737L14.7858 223.848L14.5754 229.533Z" fill="#1D9E00"/>
<path d="M5.25994 229.721L10.4316 229.61L10.6421 223.925L5.47039 224.035L5.25994 229.721Z" fill="#1D9E00"/>
<path d="M-4.44416 229.917L0.727539 229.806L0.937989 224.12L-4.23371 224.231L-4.44416 229.917Z" fill="#1D9E00"/>
</g>
<path d="M101.372 289.888L222.77 287.336L223.695 261.834L102.298 264.387L101.372 289.888Z" fill="#1D9E00"/>
<path d="M100.957 254.887L123.489 254.406L123.836 244.996L101.303 245.477L100.957 254.887Z" fill="#6ABD50"/>
<path d="M71.7409 255.475L94.2734 254.994L94.6202 245.584L72.0877 246.065L71.7409 255.475Z" fill="#6ABD50"/>
<path d="M43.0837 256.052L65.6162 255.571L65.9629 246.161L43.4304 246.642L43.0837 256.052Z" fill="#6ABD50"/>
<path d="M14.9988 256.617L37.5312 256.136L37.878 246.726L15.3455 247.207L14.9988 256.617Z" fill="#6ABD50"/>
<path d="M191.018 152.927L191.637 152.914L191.776 149.002L191.158 149.015L191.018 152.927Z" fill="#6ABD50"/>
<path d="M168.21 153.386L168.828 153.373L168.968 149.461L168.349 149.474L168.21 153.386Z" fill="#6ABD50"/>
<path d="M200.494 287.565L283.38 285.788L284.988 242.368L202.102 244.146L200.494 287.565Z" fill="#6ABD50"/>
<path d="M201.467 252.971L284.889 251.224L285.403 237.007L201.981 238.755L201.467 252.971Z" fill="#1D9E00"/>
<path d="M274.832 260.022L279.068 259.932L279.241 255.278L275.004 255.369L274.832 260.022Z" fill="#1D9E00"/>
<path d="M266.76 260.185L270.996 260.094L271.168 255.44L266.932 255.531L266.76 260.185Z" fill="#1D9E00"/>
<path d="M258.888 260.343L263.124 260.252L263.296 255.599L259.06 255.689L258.888 260.343Z" fill="#1D9E00"/>
<path d="M251.437 260.493L255.673 260.403L255.845 255.749L251.609 255.84L251.437 260.493Z" fill="#1D9E00"/>
<path d="M243.831 260.646L248.067 260.556L248.24 255.902L244.003 255.993L243.831 260.646Z" fill="#1D9E00"/>
<path d="M236.131 260.802L240.367 260.711L240.539 256.057L236.303 256.148L236.131 260.802Z" fill="#1D9E00"/>
<path d="M228.084 260.963L232.32 260.873L232.493 256.219L228.256 256.31L228.084 260.963Z" fill="#1D9E00"/>
<path d="M220.213 261.122L224.449 261.031L224.621 256.377L220.385 256.468L220.213 261.122Z" fill="#1D9E00"/>
<path d="M212.736 261.272L216.972 261.182L217.144 256.528L212.908 256.619L212.736 261.272Z" fill="#1D9E00"/>
<path d="M205.129 261.426L209.365 261.335L209.537 256.681L205.301 256.772L205.129 261.426Z" fill="#1D9E00"/>
<path d="M274.55 268.135L278.786 268.044L278.958 263.39L274.722 263.481L274.55 268.135Z" fill="#1D9E00"/>
<path d="M266.478 268.297L270.714 268.206L270.886 263.552L266.65 263.643L266.478 268.297Z" fill="#1D9E00"/>
<path d="M258.606 268.456L262.842 268.365L263.014 263.711L258.778 263.802L258.606 268.456Z" fill="#1D9E00"/>
<path d="M251.155 268.606L255.391 268.515L255.563 263.861L251.327 263.952L251.155 268.606Z" fill="#1D9E00"/>
<path d="M243.549 268.759L247.785 268.668L247.957 264.014L243.721 264.105L243.549 268.759Z" fill="#1D9E00"/>
<path d="M235.849 268.914L240.085 268.823L240.257 264.169L236.021 264.26L235.849 268.914Z" fill="#1D9E00"/>
<path d="M227.802 269.076L232.038 268.985L232.21 264.331L227.974 264.422L227.802 269.076Z" fill="#1D9E00"/>
<path d="M219.931 269.234L224.167 269.143L224.339 264.489L220.103 264.58L219.931 269.234Z" fill="#1D9E00"/>
<path d="M212.453 269.385L216.689 269.294L216.862 264.64L212.626 264.731L212.453 269.385Z" fill="#1D9E00"/>
<path d="M204.847 269.538L209.083 269.447L209.255 264.793L205.019 264.884L204.847 269.538Z" fill="#1D9E00"/>
<path d="M274.273 276.119L278.509 276.028L278.681 271.374L274.445 271.465L274.273 276.119Z" fill="#1D9E00"/>
<path d="M266.2 276.281L270.437 276.19L270.609 271.537L266.373 271.627L266.2 276.281Z" fill="#1D9E00"/>
<path d="M258.328 276.44L262.564 276.349L262.737 271.695L258.501 271.786L258.328 276.44Z" fill="#1D9E00"/>
<path d="M250.877 276.59L255.113 276.499L255.286 271.845L251.049 271.936L250.877 276.59Z" fill="#1D9E00"/>
<path d="M243.272 276.743L247.508 276.652L247.68 271.998L243.444 272.089L243.272 276.743Z" fill="#1D9E00"/>
<path d="M235.572 276.898L239.808 276.807L239.98 272.153L235.744 272.244L235.572 276.898Z" fill="#1D9E00"/>
<path d="M227.525 277.06L231.761 276.969L231.933 272.315L227.697 272.406L227.525 277.06Z" fill="#1D9E00"/>
<path d="M219.653 277.218L223.89 277.127L224.062 272.474L219.826 272.564L219.653 277.218Z" fill="#1D9E00"/>
<path d="M212.176 277.369L216.412 277.278L216.584 272.624L212.348 272.715L212.176 277.369Z" fill="#1D9E00"/>
<path d="M204.57 277.522L208.806 277.431L208.978 272.777L204.742 272.868L204.57 277.522Z" fill="#1D9E00"/>
<path d="M275.314 246.075L278.868 245.999L279.045 241.209L275.491 241.285L275.314 246.075Z" fill="#6ABD50"/>
<path d="M239.371 246.798L242.926 246.722L243.103 241.933L239.548 242.009L239.371 246.798Z" fill="#6ABD50"/>
<path d="M210.803 247.373L214.357 247.297L214.534 242.508L210.98 242.584L210.803 247.373Z" fill="#6ABD50"/>
<path d="M289.599 285.772L372.485 283.994L374.093 240.575L291.207 242.352L289.599 285.772Z" fill="#6ABD50"/>
<path d="M290.573 251.177L373.994 249.43L374.508 235.214L291.087 236.961L290.573 251.177Z" fill="#1D9E00"/>
<path d="M363.938 258.229L368.174 258.138L368.346 253.484L364.11 253.575L363.938 258.229Z" fill="#1D9E00"/>
<path d="M355.891 258.391L360.127 258.3L360.299 253.646L356.063 253.737L355.891 258.391Z" fill="#1D9E00"/>
<path d="M348.02 258.549L352.256 258.458L352.428 253.804L348.192 253.895L348.02 258.549Z" fill="#1D9E00"/>
<path d="M340.569 258.699L344.805 258.608L344.977 253.954L340.741 254.045L340.569 258.699Z" fill="#1D9E00"/>
<path d="M332.936 258.853L337.172 258.762L337.344 254.108L333.108 254.199L332.936 258.853Z" fill="#1D9E00"/>
<path d="M325.263 259.007L329.499 258.917L329.671 254.263L325.435 254.353L325.263 259.007Z" fill="#1D9E00"/>
<path d="M317.19 259.17L321.426 259.079L321.598 254.425L317.362 254.516L317.19 259.17Z" fill="#1D9E00"/>
<path d="M309.318 259.328L313.554 259.237L313.726 254.583L309.49 254.674L309.318 259.328Z" fill="#1D9E00"/>
<path d="M301.866 259.478L306.103 259.387L306.275 254.734L302.039 254.824L301.866 259.478Z" fill="#1D9E00"/>
<path d="M294.261 259.631L298.497 259.541L298.669 254.887L294.433 254.977L294.261 259.631Z" fill="#1D9E00"/>
<path d="M363.655 266.341L367.892 266.25L368.064 261.596L363.828 261.687L363.655 266.341Z" fill="#1D9E00"/>
<path d="M355.609 266.503L359.845 266.412L360.017 261.758L355.781 261.849L355.609 266.503Z" fill="#1D9E00"/>
<path d="M347.738 266.661L351.974 266.571L352.146 261.917L347.91 262.008L347.738 266.661Z" fill="#1D9E00"/>
<path d="M340.286 266.811L344.522 266.72L344.695 262.067L340.459 262.157L340.286 266.811Z" fill="#1D9E00"/>
<path d="M332.654 266.965L336.89 266.874L337.062 262.22L332.826 262.311L332.654 266.965Z" fill="#1D9E00"/>
<path d="M324.981 267.12L329.217 267.029L329.389 262.375L325.153 262.466L324.981 267.12Z" fill="#1D9E00"/>
<path d="M316.907 267.282L321.144 267.191L321.316 262.537L317.08 262.628L316.907 267.282Z" fill="#1D9E00"/>
<path d="M309.035 267.44L313.271 267.35L313.444 262.696L309.208 262.787L309.035 267.44Z" fill="#1D9E00"/>
<path d="M301.584 267.591L305.82 267.5L305.993 262.846L301.756 262.937L301.584 267.591Z" fill="#1D9E00"/>
<path d="M293.979 267.744L298.215 267.653L298.387 262.999L294.151 263.09L293.979 267.744Z" fill="#1D9E00"/>
<path d="M363.378 274.325L367.614 274.234L367.787 269.581L363.55 269.671L363.378 274.325Z" fill="#1D9E00"/>
<path d="M355.331 274.487L359.567 274.396L359.74 269.742L355.503 269.833L355.331 274.487Z" fill="#1D9E00"/>
<path d="M347.46 274.645L351.696 274.555L351.869 269.901L347.632 269.992L347.46 274.645Z" fill="#1D9E00"/>
<path d="M340.009 274.795L344.245 274.705L344.417 270.051L340.181 270.142L340.009 274.795Z" fill="#1D9E00"/>
<path d="M332.376 274.949L336.612 274.858L336.785 270.205L332.548 270.295L332.376 274.949Z" fill="#1D9E00"/>
<path d="M324.703 275.104L328.939 275.013L329.112 270.359L324.876 270.45L324.703 275.104Z" fill="#1D9E00"/>
<path d="M316.63 275.266L320.866 275.175L321.038 270.521L316.802 270.612L316.63 275.266Z" fill="#1D9E00"/>
<path d="M308.758 275.425L312.994 275.334L313.166 270.68L308.93 270.771L308.758 275.425Z" fill="#1D9E00"/>
<path d="M301.307 275.575L305.543 275.484L305.715 270.83L301.479 270.921L301.307 275.575Z" fill="#1D9E00"/>
<path d="M293.701 275.728L297.938 275.637L298.11 270.983L293.874 271.074L293.701 275.728Z" fill="#1D9E00"/>
<path d="M364.419 244.281L367.974 244.205L368.151 239.415L364.596 239.491L364.419 244.281Z" fill="#6ABD50"/>
<path d="M328.503 245.004L332.058 244.928L332.235 240.138L328.68 240.214L328.503 245.004Z" fill="#6ABD50"/>
<path d="M299.908 245.579L303.463 245.503L303.64 240.714L300.085 240.79L299.908 245.579Z" fill="#6ABD50"/>
<path opacity="0.7" d="M425.032 31.0785C425.032 31.0785 424.753 26.9936 416.236 27.0169C407.677 27.0409 409.85 31.2359 407.494 32.3208C405.18 33.4049 404.603 31.7862 402.247 32.8711C399.933 33.9551 400.874 35.9814 399.008 36.3154C397.141 36.6494 394.666 35.0986 392.352 36.153C390.039 37.2073 390.008 38.0972 388.954 38.1184C387.899 38.1397 385.852 37.588 384.566 38.2067C383.28 38.8255 381.821 39.5662 381.821 39.5662L434.555 38.5048C434.555 38.5048 435.233 37.1869 432.944 36.3437C430.696 35.4997 429.616 36.2625 428.798 35.5379C428.022 34.8125 431.21 32.8513 425.032 31.0785Z" fill="white"/>
<path opacity="0.7" d="M28.6242 78.4875C28.6242 78.4875 28.4297 75.8883 22.675 75.9098C16.8918 75.9319 18.3657 78.5996 16.775 79.2919C15.2128 79.9835 14.8213 78.9539 13.2306 79.6461C11.6683 80.3378 12.3072 81.6265 11.0464 81.8405C9.78564 82.0545 8.11078 81.0696 6.54921 81.7424C4.98765 82.4151 4.96796 82.9814 4.25534 82.9958C3.54272 83.0101 2.15911 82.6607 1.29084 83.0554C0.422578 83.4502 -0.562332 83.9227 -0.562332 83.9227L35.0687 83.2055C35.0687 83.2055 35.5251 82.3663 33.977 81.8316C32.4575 81.2963 31.7284 81.7826 31.1747 81.3221C30.6496 80.8611 32.8009 79.6106 28.6242 78.4875Z" fill="white"/>
<path opacity="0.7" d="M344.079 74.2153C344.079 74.2153 343.971 72.73 340.749 72.7409C337.51 72.7522 338.334 74.277 337.443 74.6722C336.568 75.0671 336.349 74.4786 335.458 74.8738C334.583 75.2687 334.941 76.0052 334.234 76.1272C333.528 76.2492 332.591 75.6861 331.716 76.0702C330.841 76.4542 330.83 76.7778 330.431 76.7859C330.032 76.7939 329.257 76.5939 328.771 76.8193C328.285 77.0446 327.733 77.3144 327.733 77.3144L347.686 76.9128C347.686 76.9128 347.942 76.4334 347.075 76.1275C346.225 75.8212 345.816 76.0989 345.506 75.8357C345.212 75.5721 346.418 74.858 344.079 74.2153Z" fill="white"/>
<path opacity="0.7" d="M11.2916 16.1504C11.2916 16.1504 10.9155 10.58 -0.593404 10.6095C-12.1593 10.6403 -9.22484 16.3613 -12.4096 17.8401C-15.5373 19.3178 -16.3151 17.1103 -19.4999 18.5891C-22.6276 20.0668 -21.3564 22.8302 -23.8789 23.2852C-26.4013 23.7402 -29.746 21.6248 -32.8723 23.062C-35.9986 24.4992 -36.0408 25.7127 -37.4661 25.7414C-38.8913 25.7701 -41.6566 25.0173 -43.395 25.8607C-45.1335 26.7041 -47.1055 27.7139 -47.1055 27.7139L24.1565 26.2795C24.1565 26.2795 25.0735 24.4825 21.9801 23.3322C18.9438 22.1807 17.4834 23.2206 16.3784 22.2323C15.3303 21.2429 19.639 18.5693 11.2916 16.1504Z" fill="white"/>
</g>
</g>
<defs>
<linearGradient id="paint0_linear_547_1186" x1="280.282" y1="221.408" x2="127.225" y2="353.887" gradientUnits="userSpaceOnUse">
<stop stop-color="#6ABD50"/>
<stop offset="1" stop-color="#1C9102"/>
</linearGradient>
<clipPath id="clip0_547_1186">
<rect width="451" height="280" fill="white"/>
</clipPath>
<clipPath id="clip1_547_1186">
<rect width="281.899" height="554.255" fill="white" transform="matrix(0.712826 0.701341 -0.858811 0.512293 290.093 -179.623)"/>
</clipPath>
</defs>
</svg>
