<svg width="109" height="113" viewBox="0 0 109 113" fill="none" xmlns="http://www.w3.org/2000/svg">
<path d="M94.3367 103.728C94.2163 103.8 94.0718 103.872 93.9514 103.969C93.8311 104.041 93.7107 104.113 93.5903 104.185C93.4699 104.258 93.3254 104.33 93.205 104.402C93.0846 104.474 92.9402 104.547 92.8198 104.619C92.6994 104.691 92.5549 104.763 92.4345 104.812C92.3142 104.884 92.1697 104.932 92.0493 105.004C91.9048 105.076 91.7844 105.125 91.6641 105.197C91.5196 105.245 91.3992 105.317 91.2547 105.39C91.0862 105.462 90.9417 105.534 90.7732 105.606C90.6046 105.679 90.4602 105.751 90.2916 105.799C89.9545 105.919 89.6415 106.064 89.3044 106.184C89.1841 106.232 89.0396 106.281 88.9192 106.329C88.871 106.353 88.8229 106.353 88.7747 106.377C88.2932 106.546 87.8116 106.714 87.306 106.859C86.9689 106.955 86.6318 107.051 86.2947 107.148C86.1262 107.196 85.9576 107.244 85.7891 107.268C85.5965 107.316 85.3798 107.364 85.1871 107.413C85.0427 107.437 84.8982 107.485 84.7537 107.509C84.0555 107.653 83.3572 107.798 82.6349 107.918C82.4664 107.942 82.2978 107.966 82.1293 107.991C81.9607 108.015 81.7922 108.039 81.5996 108.063C81.2384 108.111 80.9013 108.159 80.5401 108.207C80.3716 108.231 80.179 108.255 80.0104 108.255C79.89 108.28 79.7697 108.28 79.6252 108.304C79.5529 108.304 79.4566 108.328 79.3844 108.328C79.0714 108.352 78.7584 108.376 78.4213 108.4C77.6749 108.448 76.9285 108.496 76.1821 108.52C76.0857 108.52 75.9654 108.52 75.869 108.52C75.7005 108.52 75.5079 108.52 75.3393 108.52C75.1226 108.52 74.9059 108.52 74.7133 108.52C74.2077 108.52 73.678 108.52 73.1723 108.496C72.8112 108.496 72.4259 108.472 72.0648 108.448C71.9925 108.448 71.9203 108.448 71.8481 108.424C71.2461 108.4 70.6201 108.352 70.0182 108.304C69.6088 108.28 69.1995 108.231 68.7902 108.183H68.742C68.5494 108.159 68.3568 108.135 68.1642 108.135C67.9234 108.111 67.6826 108.087 67.4178 108.039C67.2492 108.015 67.0807 107.991 66.888 107.966C66.6954 107.942 66.4787 107.918 66.2861 107.894C65.5638 107.798 64.8174 107.677 64.095 107.557C63.9024 107.533 63.7339 107.485 63.5653 107.461C63.2282 107.413 62.8911 107.34 62.554 107.268C62.3855 107.244 62.241 107.196 62.0725 107.172C61.3742 107.027 60.6519 106.859 59.9537 106.69C59.761 106.642 59.5684 106.594 59.3517 106.546C59.1591 106.497 58.9665 106.449 58.7498 106.401C57.3051 106.04 55.8845 105.606 54.4639 105.149C54.3195 105.101 54.1509 105.052 54.0064 105.004C53.6212 104.884 53.26 104.763 52.8748 104.619C52.5618 104.498 52.2247 104.402 51.9117 104.282C51.4061 104.089 50.9245 103.92 50.4429 103.728C50.1059 103.607 49.7688 103.463 49.4317 103.318C49.0464 103.174 48.6612 103.005 48.3 102.861C47.9629 102.716 47.6499 102.596 47.3128 102.451C47.1924 102.403 47.0721 102.331 46.9276 102.283C46.6387 102.162 46.3256 102.018 46.0367 101.873C45.6996 101.729 45.3385 101.56 45.0014 101.392C44.9532 101.368 44.9051 101.344 44.8569 101.319C44.5198 101.151 44.1586 100.982 43.8216 100.838C43.5326 100.693 43.2196 100.549 42.9307 100.404C42.4973 100.188 42.0398 99.9707 41.6064 99.7299C41.2452 99.5372 40.8841 99.3446 40.5229 99.1519C40.2099 98.9833 39.8728 98.8147 39.5598 98.6221C39.5116 98.598 39.4635 98.5739 39.4153 98.5498C39.0782 98.3572 38.7652 98.1886 38.4281 97.9959C38.1874 97.8514 37.9466 97.7069 37.6817 97.5624C37.4409 97.4179 37.2002 97.2975 36.9594 97.153C36.7427 97.0326 36.5019 96.8881 36.2852 96.7436C35.9 96.5027 35.5147 96.286 35.1295 96.0451C32.818 94.6242 30.5306 93.1069 28.3396 91.5174C24.6316 88.8441 21.044 85.906 17.7694 82.6788C17.5527 82.462 17.3119 82.2453 17.0952 82.0044C15.9636 80.8725 14.8801 79.7165 13.8448 78.5123C11.0999 75.3574 8.66803 71.9857 6.71774 68.3972C5.27307 65.7239 4.06918 62.9062 3.20238 59.9921C3.00976 59.3418 2.84122 58.6916 2.67267 58.0413C2.52821 57.5115 2.4319 56.9575 2.31151 56.4036C1.90218 54.1879 1.68548 51.9482 1.63733 49.6843C1.63733 48.9859 1.63733 48.2634 1.66141 47.565C1.82995 43.0854 2.76898 38.6059 4.30996 34.3431C6.74181 27.6719 10.7628 21.5066 15.8673 16.5213C26.4133 6.23759 35.0573 1.39679 49.8651 0.385286C49.8651 0.385286 61.8799 -2.04715 69.1995 13.0773C71.824 18.472 73.4372 24.3966 76.8322 29.3578C81.4792 36.1253 88.847 40.5326 94.8182 46.2163C102.908 53.923 108.543 64.4475 108.904 75.5019C109.337 86.5321 103.968 97.9477 94.3367 103.728Z" fill="#92E3A9"/>
<g opacity="0.7">
<path d="M94.3367 103.728C94.2163 103.8 94.0718 103.872 93.9514 103.969C93.8311 104.041 93.7107 104.113 93.5903 104.185C93.4699 104.258 93.3254 104.33 93.205 104.402C93.0846 104.474 92.9402 104.547 92.8198 104.619C92.6994 104.691 92.5549 104.763 92.4345 104.812C92.3142 104.884 92.1697 104.932 92.0493 105.004C91.9048 105.076 91.7845 105.125 91.6641 105.197C91.5196 105.245 91.3992 105.317 91.2547 105.39C91.0862 105.462 90.9417 105.534 90.7732 105.606C90.6046 105.679 90.4602 105.751 90.2916 105.799C89.9545 105.919 89.6415 106.064 89.3044 106.184C89.184 106.232 89.0396 106.281 88.9192 106.329C88.871 106.353 88.8229 106.353 88.7747 106.377C88.2932 106.546 87.8116 106.714 87.306 106.859C86.9689 106.955 86.6318 107.051 86.2947 107.148C86.1262 107.196 85.9576 107.244 85.7891 107.268C85.5965 107.316 85.3798 107.364 85.1871 107.413C85.0427 107.437 84.8982 107.485 84.7537 107.509C84.0555 107.653 83.3572 107.798 82.6349 107.918C82.4664 107.942 82.2978 107.966 82.1293 107.991C81.9607 108.015 81.7922 108.039 81.5996 108.063C81.2384 108.111 80.9013 108.159 80.5401 108.207C80.3716 108.231 80.179 108.255 80.0104 108.255C79.89 108.28 79.7697 108.28 79.6252 108.304C79.5529 108.304 79.4566 108.328 79.3844 108.328C79.0714 108.352 78.7584 108.376 78.4213 108.4C77.6749 108.448 76.9285 108.496 76.1821 108.52C76.0857 108.52 75.9654 108.52 75.869 108.52C75.7005 108.52 75.5079 108.52 75.3393 108.52C75.1226 108.52 74.9059 108.52 74.7133 108.52C74.2077 108.52 73.678 108.52 73.1723 108.496C72.8112 108.496 72.4259 108.472 72.0648 108.448C71.9925 108.448 71.9203 108.448 71.8481 108.424C71.2461 108.4 70.6201 108.352 70.0182 108.304C69.6088 108.28 69.1995 108.231 68.7902 108.183H68.742C68.5494 108.159 68.3568 108.135 68.1642 108.135C67.9234 108.111 67.6826 108.087 67.4178 108.039C67.2492 108.015 67.0807 107.991 66.888 107.966C66.6954 107.942 66.4787 107.918 66.2861 107.894C65.5638 107.798 64.8174 107.677 64.095 107.557C63.9024 107.533 63.7339 107.485 63.5653 107.461C63.2282 107.413 62.8911 107.34 62.554 107.268C62.3855 107.244 62.241 107.196 62.0725 107.172C61.3742 107.027 60.6519 106.859 59.9537 106.69C59.761 106.642 59.5684 106.594 59.3517 106.546C59.1591 106.497 58.9665 106.449 58.7498 106.401C57.3051 106.04 55.8845 105.606 54.4639 105.149C54.3195 105.101 54.1509 105.052 54.0064 105.004C53.6212 104.884 53.26 104.763 52.8748 104.619C52.5618 104.498 52.2247 104.402 51.9117 104.282C51.406 104.089 50.9245 103.92 50.4429 103.728C50.1059 103.607 49.7688 103.463 49.4317 103.318C49.0464 103.174 48.6612 103.005 48.3 102.861C47.9629 102.716 47.6499 102.596 47.3128 102.451C47.1924 102.403 47.0721 102.331 46.9276 102.283C46.6387 102.162 46.3256 102.018 46.0367 101.873C45.6996 101.729 45.3385 101.56 45.0014 101.392C44.9532 101.368 44.9051 101.344 44.8569 101.319C44.5198 101.151 44.1586 100.982 43.8216 100.838C43.5326 100.693 43.2196 100.549 42.9307 100.404C42.4973 100.188 42.0398 99.9707 41.6064 99.7299C41.2452 99.5372 40.8841 99.3446 40.5229 99.1519C40.2099 98.9833 39.8728 98.8147 39.5598 98.6221C39.5116 98.598 39.4635 98.5739 39.4153 98.5498C39.0782 98.3572 38.7652 98.1886 38.4281 97.9959C38.1874 97.8514 37.9466 97.7069 37.6817 97.5624C37.441 97.4179 37.2002 97.2975 36.9594 97.153C36.7427 97.0326 36.5019 96.8881 36.2852 96.7436C35.9 96.5027 35.5147 96.286 35.1295 96.0451C32.818 94.6242 30.5306 93.1069 28.3396 91.5174C24.6316 88.8442 21.044 85.906 17.7694 82.6788C17.5527 82.462 17.3119 82.2453 17.0952 82.0044C15.9636 80.8725 14.8801 79.7165 13.8448 78.5123C11.0999 75.3574 8.66803 71.9857 6.71774 68.3972C5.27307 65.7239 4.06918 62.9062 3.20238 59.9921C3.00976 59.3418 2.84122 58.6916 2.67267 58.0413C2.52821 57.5115 2.4319 56.9575 2.31151 56.4036C1.90218 54.1879 1.68548 51.9482 1.63733 49.6843C1.63733 48.9859 1.63733 48.2634 1.66141 47.565C1.82995 43.0854 2.76898 38.6059 4.30996 34.3431C6.74181 27.6719 10.7628 21.5066 15.8673 16.5213C26.4133 6.23759 35.0573 1.39679 49.8651 0.385286C49.8651 0.385286 61.8799 -2.04715 69.1995 13.0773C71.824 18.472 73.4372 24.3966 76.8322 29.3578C81.4792 36.1253 88.847 40.5326 94.8182 46.2163C102.908 53.923 108.543 64.4475 108.904 75.5019C109.337 86.5321 103.968 97.9477 94.3367 103.728Z" fill="white"/>
</g>
<path d="M91.8504 13.3614C91.3285 13.2409 90.8066 13.1205 90.2847 13.0803M89 13C82.938 13 78 17.9391 78 24.0026C78 30.0661 82.938 35.0053 89 35.0053C95.062 35.0053 100 30.0661 100 24.0026C100 19.3847 97.1496 15.4093 93.0949 13.8031M85.9088 22.9586L92.7336 30.9496C91.6095 31.5519 90.365 31.8731 89 31.8731C84.6642 31.8731 81.0912 28.3394 81.0912 24.0026C81.0912 22.2358 81.6934 20.5894 82.6971 19.2643L85.0255 21.9949L85.9088 22.9586ZM92.2117 25.5687L85.0255 17.1762C86.1898 16.4935 87.5547 16.092 89 16.092C93.3358 16.092 96.9088 19.6257 96.9088 24.0026C96.9088 25.89 96.2263 27.6166 95.1423 28.9819L94.1788 27.8576L92.2117 25.5687Z" stroke="#B90B00" stroke-width="0.5" stroke-miterlimit="10"/>
<path d="M27.7135 24.0836L28.0747 23.6982" stroke="#B90B00" stroke-miterlimit="10"/>
<path d="M26.9189 24.8542L23.3795 21.314L20.442 24.2522L24.0055 27.7924L20.442 31.3327L23.3795 34.2709L26.9189 30.7306L30.4824 34.2709L33.3958 31.3327L29.8564 27.7924L33.3958 24.2522L30.4824 21.314L28.5321 23.2406" stroke="#B90B00" stroke-width="0.5" stroke-miterlimit="10"/>
<path d="M5.27303 38.7985C5.34526 38.3169 5.56196 37.7388 6.01944 37.7388C6.50099 37.7388 6.71769 38.3409 6.69361 38.7985C6.66954 39.2802 6.52507 39.7859 6.76585 40.1954C7.4641 35.5232 8.47537 30.6583 11.6055 27.118C11.9426 26.7327 12.4723 26.3473 12.9298 26.5641C13.4595 26.8531 13.315 27.6238 13.0983 28.2018C11.3888 32.6331 10.3294 37.2813 9.92003 42.0016C11.1721 38.5095 13.1946 35.2342 16.0839 32.8981C16.5414 32.5368 17.0952 32.1515 17.649 32.296C18.3232 32.4646 18.6121 33.2593 18.6603 33.9577C18.7084 35.4268 18.0102 36.7996 17.3601 38.1242C14.8319 43.2781 12.8575 48.6969 11.461 54.2602C11.1721 55.4162 10.8831 56.6444 10.0404 57.4874C9.65518 57.8727 9.05323 58.1858 8.59576 57.9209C8.37906 57.8004 8.23459 57.5596 8.09012 57.3188C6.52507 54.5732 5.61011 51.4665 5.44157 48.2874C5.27303 45.1325 4.81555 42.0016 5.27303 38.7985Z" fill="#92E3A9"/>
<path opacity="0.2" d="M5.27303 38.7985C5.34526 38.3169 5.56196 37.7388 6.01944 37.7388C6.50099 37.7388 6.71769 38.3409 6.69361 38.7985C6.66954 39.2802 6.52507 39.7859 6.76585 40.1954C7.4641 35.5232 8.47537 30.6583 11.6055 27.118C11.9426 26.7327 12.4723 26.3473 12.9298 26.5641C13.4595 26.8531 13.315 27.6238 13.0983 28.2018C11.3888 32.6331 10.3294 37.2813 9.92003 42.0016C11.1721 38.5095 13.1946 35.2342 16.0839 32.8981C16.5414 32.5368 17.0952 32.1515 17.649 32.296C18.3232 32.4646 18.6121 33.2593 18.6603 33.9577C18.7084 35.4268 18.0102 36.7996 17.3601 38.1242C14.8319 43.2781 12.8575 48.6969 11.461 54.2602C11.1721 55.4162 10.8831 56.6444 10.0404 57.4874C9.65518 57.8727 9.05323 58.1858 8.59576 57.9209C8.37906 57.8004 8.23459 57.5596 8.09012 57.3188C6.52507 54.5732 5.61011 51.4665 5.44157 48.2874C5.27303 45.1325 4.81555 42.0016 5.27303 38.7985Z" fill="white"/>
<path d="M0.0481358 49.7325C-0.0481752 49.2027 -1.97226e-05 48.5283 0.505613 48.3597C1.01125 48.1911 1.44465 48.7451 1.56503 49.2508C1.68542 49.7566 1.7095 50.3587 2.11882 50.6958C1.32426 45.542 0.794546 40.0268 2.96154 35.2824C3.20232 34.7525 3.61164 34.1745 4.18951 34.2709C4.83961 34.3913 4.93592 35.2824 4.91184 35.9326C4.55068 41.1587 4.96 46.4571 6.06757 51.5869C6.2602 47.4927 7.31962 43.3744 9.58293 39.9305C9.94409 39.4007 10.4016 38.8226 11.0517 38.7745C11.8222 38.7263 12.4 39.4729 12.6408 40.1954C13.1705 41.7368 12.9057 43.4226 12.6408 45.0362C11.6777 51.322 11.3647 57.7041 11.7018 64.0381C11.774 65.3627 11.8703 66.7355 11.2684 67.9156C11.0035 68.4454 10.4497 68.9752 9.87186 68.8548C9.58293 68.7826 9.36623 68.5899 9.14953 68.3972C6.59728 66.013 4.62291 63.0025 3.39494 59.7272C2.11882 56.4277 0.601924 53.2487 0.0481358 49.7325Z" fill="#92E3A9"/>
<path opacity="0.2" d="M0.0481358 49.7325C-0.0481752 49.2027 -1.97226e-05 48.5283 0.505613 48.3597C1.01125 48.1911 1.44465 48.7451 1.56503 49.2508C1.68542 49.7566 1.7095 50.3587 2.11882 50.6958C1.32426 45.542 0.794546 40.0268 2.96154 35.2824C3.20232 34.7525 3.61164 34.1745 4.18951 34.2709C4.83961 34.3913 4.93592 35.2824 4.91184 35.9326C4.55068 41.1587 4.96 46.4571 6.06757 51.5869C6.2602 47.4927 7.31962 43.3744 9.58293 39.9305C9.94409 39.4007 10.4016 38.8226 11.0517 38.7745C11.8222 38.7263 12.4 39.4729 12.6408 40.1954C13.1705 41.7368 12.9057 43.4226 12.6408 45.0362C11.6777 51.322 11.3647 57.7041 11.7018 64.0381C11.774 65.3627 11.8703 66.7355 11.2684 67.9156C11.0035 68.4454 10.4497 68.9752 9.87186 68.8548C9.58293 68.7826 9.36623 68.5899 9.14953 68.3972C6.59728 66.013 4.62291 63.0025 3.39494 59.7272C2.11882 56.4277 0.601924 53.2487 0.0481358 49.7325Z" fill="black"/>
<path d="M14.0133 78.5125C13.9892 78.5366 13.941 78.5366 13.8447 78.5366C13.7966 78.5366 13.7243 78.5125 13.6521 78.5125C12.4964 77.4528 11.3888 76.369 10.3775 75.1889C9.9923 74.3219 9.5589 73.5272 9.02919 72.7083C8.13831 71.3115 7.07889 70.011 6.06762 68.6864C5.82685 68.3733 5.58607 68.0602 5.34529 67.7471C5.10451 67.41 4.83966 67.0728 4.59888 66.7356C3.80431 65.6278 3.0579 64.4477 2.48004 63.1953C2.19111 62.5451 1.92625 61.8226 2.09479 61.1242C2.19111 60.6907 2.52819 60.2812 2.93752 60.0886C3.03383 60.0404 3.10606 60.0163 3.20237 59.9922C3.2746 59.9681 3.34684 59.9681 3.41907 59.9681C3.4913 59.9681 3.56354 59.9922 3.65985 60.0163C4.11733 60.1608 4.40626 60.5943 4.64704 60.9797C5.27306 61.9912 5.92316 63.0027 6.54918 64.0142C5.63422 61.6299 4.74335 59.2456 4.33403 56.741C3.9247 54.2363 4.02101 51.5871 5.08044 49.2751C5.17675 49.0824 5.29714 48.8656 5.4416 48.697C5.58607 48.5285 5.77869 48.4321 5.99539 48.4321C6.0917 48.4321 6.18801 48.4562 6.28432 48.5044C6.64549 48.697 6.83811 49.2269 6.93442 49.6604C7.53637 52.4541 8.13831 55.2237 8.74025 58.0174C8.83657 58.475 8.93288 58.9566 9.05327 59.4142C9.07734 59.5828 9.1255 59.7514 9.17365 59.8959C9.17365 59.6551 9.17365 59.4142 9.14958 59.1734C9.14958 58.7881 9.14958 58.4027 9.14958 58.0174C9.17365 55.7535 9.46259 53.4656 10.7869 51.6352C11.0758 51.2499 11.461 50.8646 11.8944 50.6719C12.0871 50.5996 12.2556 50.5515 12.4723 50.5756C12.4964 50.5756 12.5445 50.5756 12.5686 50.5756C13.0743 50.6478 13.4836 51.0572 13.7003 51.5148C13.917 51.9724 13.9651 52.5022 14.0133 53.008C14.23 55.5609 13.002 57.5598 13.4595 64.2069C13.4836 64.4959 13.5077 64.8089 13.5317 65.0979C14.0374 70.5408 16.8304 75.3575 14.0133 78.5125Z" fill="#92E3A9"/>
<path d="M18.275 62.6411C18.2028 65.3144 16.6377 67.2169 16.4933 74.6106C16.4451 77.2357 16.9267 79.7645 17.1193 82.0283C15.9876 80.8964 14.9041 79.7404 13.8688 78.5362C13.8206 78.5362 13.7484 78.5121 13.6762 78.5121C12.5204 77.4525 11.4129 76.3687 10.4016 75.1886C10.0163 74.3216 9.58295 73.5268 9.05324 72.708C8.16236 71.3112 7.10294 70.0106 6.09167 68.6861C6.21206 68.5897 6.35653 68.5175 6.501 68.4693C6.57323 68.4452 6.64546 68.4211 6.74177 68.4211C6.83809 68.4211 6.91032 68.4211 7.00663 68.4211C7.07886 68.4211 7.1511 68.4452 7.24741 68.4934C7.68081 68.686 7.92158 69.1436 8.13828 69.5771C8.66799 70.6609 9.17363 71.7206 9.70334 72.8043C9.26994 71.1667 8.86062 69.529 8.57168 67.8672C8.42722 67.0243 8.33091 66.1814 8.28275 65.3384C8.16236 63.3395 8.37906 61.2683 9.12547 59.4139C9.14955 59.3416 9.17363 59.2694 9.22178 59.1971C9.39033 58.7877 9.60703 58.3783 9.82373 57.993C9.94412 57.8003 10.0886 57.6076 10.2571 57.4631C10.4257 57.3186 10.6183 57.2223 10.8591 57.2464C10.9554 57.2464 11.0517 57.2945 11.148 57.3427C11.3888 57.4872 11.5092 57.7762 11.5814 58.0893C11.6296 58.2338 11.6536 58.4024 11.6536 58.5469C11.9666 61.3887 12.2556 64.2065 12.5686 67.0484C12.6408 67.6986 12.7131 68.3248 12.7853 68.975C12.8334 68.3489 12.9057 67.7227 12.9779 67.0965C13.0983 66.1332 13.2668 65.1698 13.5317 64.2547C13.8929 63.0264 14.4226 61.8945 15.2894 60.9311C15.6024 60.5699 16.0358 60.2327 16.4933 60.1123C16.6859 60.0641 16.8785 60.0401 17.0711 60.0641C17.0952 60.0641 17.1434 60.0882 17.1674 60.0882C17.6731 60.2086 18.0342 60.6662 18.1787 61.1479C18.2991 61.6055 18.2991 62.1353 18.275 62.6411Z" fill="#92E3A9"/>
<path opacity="0.2" d="M18.275 62.6411C18.2028 65.3144 16.6377 67.2169 16.4933 74.6106C16.4451 77.2357 16.9267 79.7645 17.1193 82.0283C15.9876 80.8964 11.4129 76.3446 10.4016 75.1886C10.0163 74.3216 9.58295 73.5268 9.05324 72.708C8.16236 71.3112 7.10294 70.0106 6.09167 68.6861C6.21206 68.5897 6.35653 68.5175 6.501 68.4693C6.57323 68.4452 6.64546 68.4211 6.74177 68.4211C6.83809 68.4211 6.91032 68.4211 7.00663 68.4211C7.07886 68.4211 7.1511 68.4452 7.24741 68.4934C7.68081 68.686 7.92158 69.1436 8.13828 69.5771C8.66799 70.6609 9.17363 71.7206 9.70334 72.8043C9.26994 71.1667 8.86062 69.529 8.57168 67.8672C8.42722 67.0243 8.33091 66.1814 8.28275 65.3384C8.16236 63.3395 8.37906 61.2683 9.12547 59.4139C9.14955 59.3416 9.17363 59.2694 9.22178 59.1971C9.39033 58.7877 9.60703 58.3783 9.82373 57.993C9.94412 57.8003 10.0886 57.6076 10.2571 57.4631C10.4257 57.3186 10.6183 57.2223 10.8591 57.2464C10.9554 57.2464 11.0517 57.2945 11.148 57.3427C11.3888 57.4872 11.5092 57.7762 11.5814 58.0893C11.6296 58.2338 11.6536 58.4024 11.6536 58.5469C11.9666 61.3887 12.2556 64.2065 12.5686 67.0484C12.6408 67.6986 12.7131 68.3248 12.7853 68.975C12.8334 68.3489 12.9057 67.7227 12.9779 67.0965C13.0983 66.1332 13.2668 65.1698 13.5317 64.2547C13.8929 63.0264 14.4226 61.8945 15.2894 60.9311C15.6024 60.5699 16.0358 60.2327 16.4933 60.1123C16.6859 60.0641 16.8785 60.0401 17.0711 60.0641C17.0952 60.0641 17.1434 60.0882 17.1674 60.0882C17.6731 60.2086 18.0342 60.6662 18.1787 61.1479C18.2991 61.6055 18.2991 62.1353 18.275 62.6411Z" fill="white"/>
<path d="M95.0108 43.6874C95.083 45.277 94.1681 47.4927 92.5308 47.2277C92.2659 47.1796 92.0252 47.0832 91.7844 46.9628C92.0252 45.7827 91.4232 44.434 92.0733 43.4707C92.4345 42.9409 93.3013 41.9294 93.9273 41.8812C94.7941 41.8089 94.9626 42.7964 95.0108 43.6874Z" fill="#92E3A9"/>
<path d="M92.8438 48.5282C92.2178 49.6601 91.3991 50.5512 89.6655 50.3826C89.2803 50.3345 88.895 50.19 88.582 49.9491C88.269 49.7083 88.0523 49.3711 88.0282 48.9858C88.0042 48.48 88.3653 48.0224 88.7987 47.8298C89.208 47.6371 89.7378 47.5649 90.2675 47.5889C90.8213 47.5889 91.3991 47.7094 91.8325 47.8779C92.2418 48.0224 92.5308 48.2874 92.8438 48.5282Z" fill="#92E3A9"/>
<path d="M91.7122 47.0352C92.6753 48.1671 93.6384 49.2749 94.5293 50.4309" stroke="#92E3A9" stroke-miterlimit="10"/>
<path d="M100.38 50.5514C100.38 51.4184 100.043 52.3817 99.5374 53.032C99.0077 53.6823 98.3094 54.0676 97.539 53.8027C97.2741 53.7304 97.0574 53.5859 96.8407 53.4414C97.0333 52.8875 97.0092 52.2372 97.0092 51.6111C97.0092 50.9849 97.0333 50.3828 97.3704 49.9011C97.7316 49.3713 98.5984 48.3357 99.2725 48.3598C100.163 48.432 100.404 49.588 100.38 50.5514Z" fill="#92E3A9"/>
<path d="M97.6353 55.1273C97.226 55.6331 96.7926 56.0666 96.2388 56.3315C95.685 56.5723 95.0349 56.6446 94.2162 56.476C93.8551 56.4037 93.518 56.2352 93.2772 55.9943C93.0123 55.7535 92.8679 55.4645 92.916 55.1032C92.9642 54.6456 93.3735 54.2362 93.831 54.0676C94.2403 53.8991 94.7459 53.8509 95.2757 53.8991C95.8054 53.9472 96.3592 54.0917 96.7685 54.3326C97.1056 54.5252 97.3704 54.8383 97.6353 55.1273Z" fill="#92E3A9"/>
<path d="M94.5293 50.4312C95.372 51.4908 96.1666 52.6228 96.913 53.7547C97.6353 54.9107 98.3336 56.0667 98.9355 57.295" stroke="#92E3A9" stroke-miterlimit="10"/>
<path d="M104.666 58.499C104.305 60.1849 102.692 61.943 101.247 61.1723C101.006 61.0519 100.813 60.8833 100.621 60.6906C100.765 60.4257 100.886 60.1367 100.958 59.8477C101.03 59.5587 101.078 59.2456 101.126 58.9325C101.247 58.3304 101.391 57.7524 101.825 57.3189C102.282 56.8613 103.318 56.0184 103.992 56.187C104.834 56.4038 104.859 57.5838 104.666 58.499Z" fill="#92E3A9"/>
<path d="M101.102 62.4969C100.115 63.3639 99.0799 63.8937 97.4908 63.2194C96.8166 62.9304 96.2387 62.256 96.4314 61.5817C96.5758 61.1241 97.0333 60.811 97.5149 60.7388C97.9483 60.6665 98.478 60.7147 98.9836 60.8592C99.4892 61.0278 99.9949 61.2686 100.38 61.5576C100.693 61.8225 100.91 62.1597 101.102 62.4969Z" fill="#92E3A9"/>
<path d="M98.9354 57.2949C100.163 59.7274 101.199 62.2561 102.066 64.8572" stroke="#92E3A9" stroke-miterlimit="10"/>
<path d="M107.579 67.0487C107.266 67.9157 106.616 68.6864 105.87 69.0958C105.148 69.5052 104.329 69.5775 103.727 69.0477C103.51 68.8791 103.366 68.6623 103.197 68.4696C103.583 68.0361 103.799 67.4341 103.992 66.832C104.184 66.2299 104.401 65.7 104.883 65.3388C105.412 64.9535 106.544 64.2791 107.17 64.5199C107.579 64.6885 107.748 65.0257 107.796 65.4833C107.868 66.0131 107.748 66.567 107.579 67.0487Z" fill="#92E3A9"/>
<path d="M103.294 70.3C102.138 70.9262 100.982 71.1429 99.6097 70.2037C99.0318 69.8183 98.5984 69.144 98.9355 68.5901C99.1763 68.2288 99.6819 68.012 100.163 67.988C100.597 67.9639 101.102 68.0602 101.56 68.3011C102.042 68.5178 102.475 68.8791 102.788 69.2162C103.053 69.5534 103.173 69.9387 103.294 70.3Z" fill="#92E3A9"/>
<path d="M102.066 64.8569L102.692 66.8077C102.884 67.4339 103.029 68.1082 103.173 68.7585C103.414 70.0831 103.582 71.4317 103.631 72.7804" stroke="#92E3A9" stroke-miterlimit="10"/>
<path d="M108.254 76.4172C107.724 77.1397 106.881 77.7177 106.062 77.9104C105.244 78.103 104.473 77.9344 103.992 77.2601C103.847 77.0433 103.751 76.8025 103.655 76.5376C104.666 75.9114 105.099 74.4423 106.207 74.0088C106.809 73.7921 108.109 73.4549 108.639 73.8884C109.361 74.5146 108.855 75.6465 108.254 76.4172Z" fill="#92E3A9"/>
<path d="M103.245 78.3679C102.619 78.5124 101.993 78.5365 101.415 78.392C100.838 78.2475 100.284 77.8862 99.7541 77.2841C99.2966 76.7543 99.0799 76.0077 99.5614 75.526C99.8985 75.2129 100.452 75.1407 100.91 75.2611C101.343 75.3815 101.777 75.6464 102.162 75.9836C102.547 76.3449 102.884 76.8025 103.077 77.2119C103.221 77.5972 103.221 77.9825 103.245 78.3679Z" fill="#92E3A9"/>
<path d="M103.606 72.8047C103.727 75.502 103.534 78.2476 102.812 80.8245" stroke="#92E3A9" stroke-miterlimit="10"/>
<path d="M105.87 85.9777C105.461 86.2426 105.003 86.4353 104.546 86.5316C104.064 86.628 103.607 86.652 103.197 86.5798C102.355 86.4353 101.728 85.9295 101.608 85.1348C101.56 84.8699 101.584 84.605 101.584 84.34C102.186 84.2437 102.716 83.9065 103.245 83.5694C103.775 83.2322 104.305 82.895 104.883 82.895C105.533 82.895 106.881 82.9673 107.218 83.5934C107.676 84.4123 106.737 85.4238 105.87 85.9777Z" fill="#92E3A9"/>
<path d="M100.428 85.7612C99.8022 85.5926 99.2484 85.3518 98.791 84.9424C98.3335 84.557 97.9723 84.0031 97.7315 83.2806C97.4908 82.6544 97.5389 82.0042 98.1409 81.8115C98.5502 81.6911 99.104 81.8115 99.4892 82.1005C99.8504 82.3654 100.163 82.7507 100.404 83.2083C100.621 83.6659 100.789 84.2198 100.765 84.6533C100.765 85.0628 100.597 85.424 100.428 85.7612Z" fill="#92E3A9"/>
<path d="M102.836 80.8242C102.475 82.1247 101.993 83.3771 101.343 84.5331C100.693 85.6891 99.8985 86.7729 98.9354 87.688" stroke="#92E3A9" stroke-miterlimit="10"/>
<path d="M99.4652 93.4202C98.6706 93.4684 97.6834 93.2998 96.9611 92.8663C96.2387 92.4568 95.7572 91.8066 95.8776 90.9877C95.9257 90.7228 96.022 90.482 96.1183 90.2412C97.2982 90.482 98.6224 89.8317 99.6337 90.482C99.8985 90.6747 100.308 90.9396 100.645 91.2527C100.982 91.5658 101.247 91.9511 101.247 92.3123C101.343 93.1553 100.356 93.372 99.4652 93.4202Z" fill="#92E3A9"/>
<path d="M94.5774 91.3249C93.4457 90.6747 92.603 89.8318 92.7234 88.1459C92.7715 87.4234 93.2531 86.6046 94.0476 86.5564C94.5533 86.5323 95.0108 86.8695 95.2275 87.3271C95.4201 87.7365 95.4923 88.2663 95.4923 88.7962C95.4923 89.3501 95.396 89.904 95.2515 90.3616C95.1071 90.7228 94.8422 91.0118 94.5774 91.3249Z" fill="#92E3A9"/>
<path d="M98.9354 87.6885C98.7187 87.9293 98.4539 88.122 98.189 88.3628L97.3944 89.0372L95.8294 90.3858C95.2997 90.8434 94.794 91.2769 94.2643 91.7104C93.9995 91.9272 93.7346 92.1198 93.4698 92.3366C93.2049 92.5293 92.916 92.746 92.6511 92.9628" stroke="#92E3A9" stroke-miterlimit="10"/>
<path d="M93.566 98.4292C93.2049 98.4533 92.8196 98.4292 92.4103 98.3811C92.001 98.3329 91.5676 98.2366 91.1823 98.0921C90.4118 97.8271 89.7617 97.3214 89.7377 96.5026C89.7377 96.2376 89.7858 95.9727 89.8581 95.7078C91.0619 95.756 92.314 95.0575 93.3012 95.7078C93.855 96.045 94.8422 96.912 94.9625 97.49C95.0107 97.6826 94.9866 97.8271 94.9144 97.9476C94.8422 98.068 94.7458 98.1643 94.6014 98.2366C94.3365 98.357 93.9513 98.4052 93.566 98.4292Z" fill="#92E3A9"/>
<path d="M88.5097 97.1048C87.8596 96.9603 87.2818 96.7676 86.8002 96.3823C86.3427 95.9969 86.0056 95.3948 86.0056 94.3833C85.9816 93.5404 86.5353 92.4085 87.4021 92.1917C87.9559 92.0231 88.4616 92.3603 88.6783 92.7938C88.895 93.1792 89.0154 93.7331 89.0394 94.287C89.0635 94.865 89.0635 95.4671 88.9672 95.9488C88.8709 96.3582 88.7023 96.7435 88.5097 97.1048Z" fill="#92E3A9"/>
<path d="M92.6511 92.9385C90.3878 94.6484 88.5579 96.8882 87.2577 99.4169" stroke="#92E3A9" stroke-miterlimit="10"/>
<path d="M90.436 103.993C89.81 104.33 88.9673 104.619 88.1245 104.691C87.3059 104.763 86.5113 104.595 86.1502 103.872C86.0298 103.631 85.9575 103.367 85.9335 103.102C87.041 102.644 87.8838 101.464 89.0636 101.633C89.7137 101.705 90.9657 102.042 91.3269 102.524C91.7844 103.15 91.0861 103.607 90.436 103.993Z" fill="#92E3A9"/>
<path d="M85.3074 104.956C84.0313 105.221 82.8033 105.366 81.8643 103.559C81.6958 103.174 81.5995 102.668 81.6235 102.187C81.6717 101.705 81.8643 101.247 82.1773 100.958C82.6348 100.597 83.2127 100.669 83.5979 100.958C83.9591 101.223 84.2721 101.657 84.561 102.139C84.85 102.644 85.0667 103.198 85.2111 103.68C85.2593 103.897 85.2834 104.113 85.2834 104.306C85.3074 104.547 85.3074 104.74 85.3074 104.956Z" fill="#92E3A9"/>
<path d="M87.2577 99.417C85.9575 101.922 85.2352 104.739 85.163 107.581" stroke="#92E3A9" stroke-miterlimit="10"/>
<path d="M93.5902 57.7042C93.5902 58.1377 93.5179 58.5953 93.3494 59.0047C93.2049 59.4141 92.9641 59.7754 92.6993 60.0403C92.1455 60.5942 91.4472 60.811 90.7971 60.4979C90.5804 60.4015 90.3878 60.2571 90.1952 60.1125C90.4119 59.6309 90.436 59.0288 90.436 58.4508C90.436 57.8728 90.4119 57.2948 90.6767 56.8131C90.9657 56.3073 91.6399 55.2477 92.314 55.3199C92.7715 55.3681 93.1086 55.7293 93.3253 56.1869C93.4938 56.6445 93.5902 57.2225 93.5902 57.7042Z" fill="#92E3A9"/>
<path d="M90.6767 61.726C90.2433 62.1114 89.7618 62.4004 89.2321 62.5449C88.7024 62.6894 88.1245 62.6653 87.4262 62.4726C86.8725 62.304 86.3668 61.9909 86.5594 61.4611C86.6798 61.1239 87.041 60.7627 87.4503 60.5941C87.8115 60.4496 88.269 60.3773 88.7264 60.4255C89.208 60.4737 89.6655 60.6423 90.0026 60.8831C90.3156 61.1239 90.5082 61.4129 90.6767 61.726Z" fill="#92E3A9"/>
<path d="M90.0748 60.1846C90.749 61.461 91.1824 62.7374 91.3991 63.8694" stroke="#92E3A9" stroke-miterlimit="10"/>
<path d="M95.9739 66.7838C95.5405 67.5063 94.7941 68.1084 94.0718 68.3492C93.3254 68.59 92.6271 68.4696 92.1696 67.8916C92.0252 67.6989 91.9289 67.4822 91.8085 67.2654C92.6993 66.6152 92.9401 65.2183 93.8792 64.7126C94.4089 64.4477 95.5405 63.9419 96.0702 64.3272C96.7926 64.8089 96.4314 66.0131 95.9739 66.7838Z" fill="#92E3A9"/>
<path d="M91.5195 68.927C90.9417 69.0956 90.3879 69.1678 89.8582 69.0474C89.3284 68.9511 88.7987 68.638 88.269 68.1322C88.0523 67.9155 87.8838 67.6265 87.8115 67.3616C87.7393 67.0966 87.7875 66.8317 87.9801 66.615C88.2449 66.326 88.7506 66.2056 89.184 66.2778C89.5692 66.3501 90.0026 66.5427 90.3638 66.8076C90.749 67.0966 91.0861 67.482 91.2787 67.8432C91.4714 68.2045 91.4954 68.5657 91.5195 68.927Z" fill="#92E3A9"/>
<path d="M91.3992 63.8696C91.6399 65.0738 91.7363 66.3021 91.7122 67.5303C91.6881 68.7586 91.5436 69.9868 91.3029 71.2151" stroke="#92E3A9" stroke-miterlimit="10"/>
<path d="M94.6256 75.4056C94.0237 75.9113 93.1569 76.2244 92.3864 76.2485C91.6159 76.2726 90.9417 75.9595 90.6768 75.2852C90.5805 75.0684 90.5565 74.8276 90.5083 74.5867C91.5436 74.2255 92.2419 73.0213 93.3013 72.9009C93.8792 72.8286 95.1072 72.8286 95.4924 73.3344C95.998 73.9847 95.2998 74.8757 94.6256 75.4056Z" fill="#92E3A9"/>
<path d="M89.7859 76.1279C88.6061 76.152 87.5467 75.863 86.8725 74.4661C86.5836 73.864 86.5595 73.0934 87.0892 72.7562C87.4504 72.5394 87.956 72.5876 88.3412 72.8044C88.7024 72.997 89.0395 73.3342 89.2803 73.7195C89.5692 74.129 89.7618 74.6106 89.8341 75.02C89.9063 75.4054 89.8581 75.7666 89.7859 76.1279Z" fill="#92E3A9"/>
<path d="M91.3028 71.2148C90.8212 73.6473 90.0026 76.0075 89.0154 78.3195" stroke="#92E3A9" stroke-miterlimit="10"/>
<path d="M91.688 82.8474C91.062 83.1846 90.2193 83.3773 89.4488 83.3291C88.7024 83.2809 88.0282 82.9919 87.8115 82.2694C87.7393 82.0286 87.7152 81.7878 87.7152 81.5469C88.7746 81.282 89.6174 80.2223 90.7009 80.3187C91.2787 80.3668 92.4826 80.6077 92.7715 81.1375C93.1327 81.86 92.3622 82.4862 91.688 82.8474Z" fill="#92E3A9"/>
<path d="M86.8725 83.1125C85.6926 83.1125 84.5851 82.9439 84.0313 81.3062C83.7905 80.6078 83.9109 79.6445 84.5369 79.3073C84.9462 79.0906 85.4519 79.211 85.789 79.4759C86.102 79.7408 86.3668 80.1261 86.5835 80.5597C86.8002 81.0172 86.9447 81.523 86.9928 81.9806C87.041 82.3659 86.9447 82.7272 86.8725 83.1125Z" fill="#92E3A9"/>
<path d="M89.0153 78.3198C88.0522 80.6318 86.8965 82.9198 86.1982 85.4004" stroke="#92E3A9" stroke-miterlimit="10"/>
<path d="M89.9304 88.7964C89.4729 89.1817 88.7746 89.5671 88.0764 89.832C87.3781 90.0728 86.6317 90.1692 86.1261 89.6152C85.9575 89.4226 85.8612 89.2058 85.7408 88.9891C86.1742 88.6519 86.5113 88.1943 86.8966 87.809C87.2818 87.4236 87.6911 87.1106 88.2209 87.0624C88.7987 86.9901 90.0026 87.0865 90.4119 87.4477C90.9416 87.8812 90.4119 88.3629 89.9304 88.7964Z" fill="#92E3A9"/>
<path d="M85.6686 90.7954C85.163 91.1085 84.6573 91.3734 84.1035 91.4215C83.5498 91.4456 82.9237 91.2289 82.2977 90.4582C81.768 89.808 81.4791 88.5556 81.9847 87.8572C82.2977 87.3996 82.8274 87.3514 83.2368 87.5441C83.5979 87.7127 83.9832 88.0499 84.3203 88.4352C84.6814 88.8446 84.9944 89.2781 85.2352 89.6875C85.4519 90.0488 85.5482 90.41 85.6686 90.7954Z" fill="#92E3A9"/>
<path d="M86.1983 85.4004C85.8612 86.6527 85.6445 87.9532 85.6445 89.2538C85.6445 90.5543 84.8499 93.4202 85.9816 102.765" stroke="#92E3A9" stroke-miterlimit="10"/>
<path d="M67.2251 34.3192V60.5944L55.6196 73.9848C53.7897 75.9356 51.5986 77.501 49.1186 78.5366C48.011 79.0183 46.6627 79.1387 46.5664 79.235C45.8922 79.8612 38.5725 90.458 34.6719 96.1417C32.3605 94.7207 30.0731 93.2035 27.882 91.614C24.174 88.9407 20.5865 86.0025 17.3119 82.7753L29.7601 65.9168C31.903 60.6184 31.6141 57.608 32.1919 52.3096C32.6735 47.6615 33.9496 43.8081 34.07 42.2186C34.1182 41.6647 34.5756 34.849 34.5756 34.271C34.5997 33.5244 35.5387 31.7423 35.7073 31.0198C37.152 24.8544 38.2836 23.9392 39.8968 24.8785C40.1376 25.023 42.3046 26.2271 40.3784 33.2354C39.945 34.849 40.5469 45.1086 40.5469 45.1086L67.2251 34.3192Z" fill="white"/>
<mask id="mask0_406_10139" style="mask-type:luminance" maskUnits="userSpaceOnUse" x="17" y="24" width="51" height="73">
<path d="M67.2251 34.3192V60.5944L55.6196 73.9848C53.7897 75.9356 51.5986 77.501 49.1186 78.5366C48.011 79.0183 46.6627 79.1387 46.5664 79.235C45.8922 79.8612 38.5725 90.458 34.6719 96.1417C32.3605 94.7207 30.0731 93.2035 27.882 91.614C24.174 88.9407 20.5865 86.0025 17.3119 82.7753L29.7601 65.9168C31.903 60.6184 31.6141 57.608 32.1919 52.3096C32.6735 47.6615 33.9496 43.8081 34.07 42.2186C34.1182 41.6647 34.5756 34.849 34.5756 34.271C34.5997 33.5244 35.5387 31.7423 35.7073 31.0198C37.152 24.8544 38.2836 23.9392 39.8968 24.8785C40.1376 25.023 42.3046 26.2271 40.3784 33.2354C39.945 34.849 40.5469 45.1086 40.5469 45.1086L67.2251 34.3192Z" fill="white"/>
</mask>
<g mask="url(#mask0_406_10139)">
<path d="M50.8522 71.4802C46.6868 73.0938 41.9916 73.7199 37.7539 72.3472C39.5116 73.9126 41.2693 75.454 43.0269 77.0194C43.8697 77.766 44.7365 78.5367 45.82 78.8979C47.6258 79.5241 49.6483 78.8497 51.3097 77.9346C55.8122 75.4299 58.9423 71.0708 61.928 66.8802C62.5299 66.0132 63.1319 64.6405 61.5909 65.4111C60.3629 66.0373 59.2313 67.0247 58.0515 67.7472C55.7881 69.1441 53.4044 70.4928 50.8522 71.4802Z" fill="#92E3A9"/>
<path opacity="0.5" d="M50.8522 71.4802C46.6868 73.0938 41.9916 73.7199 37.7539 72.3472C39.5116 73.9126 41.2693 75.454 43.0269 77.0194C43.8697 77.766 44.7365 78.5367 45.82 78.8979C47.6258 79.5241 49.6483 78.8497 51.3097 77.9346C55.8122 75.4299 58.9423 71.0708 61.928 66.8802C62.5299 66.0132 63.1319 64.6405 61.5909 65.4111C60.3629 66.0373 59.2313 67.0247 58.0515 67.7472C55.7881 69.1441 53.4044 70.4928 50.8522 71.4802Z" fill="white"/>
<path d="M38.6688 34.536C41.197 38.1004 39.8246 44.9642 38.9818 46.3129C38.9818 46.3129 40.6673 59.4625 44.0141 64.4719C45.7236 55.8981 46.2533 47.0836 45.531 38.3412C45.1939 34.1748 43.8215 28.4188 40.8599 25.4565C40.884 25.4806 40.7154 32.1036 38.6688 34.536Z" fill="#92E3A9"/>
<g opacity="0.5">
<path d="M38.6688 34.536C41.197 38.1004 39.8246 44.9642 38.9818 46.3129C38.9818 46.3129 40.6673 59.4625 44.0141 64.4719C45.7236 55.8981 46.2533 47.0836 45.531 38.3412C45.1939 34.1748 43.8215 28.4188 40.8599 25.4565C40.884 25.4806 40.7154 32.1036 38.6688 34.536Z" fill="white"/>
</g>
<path d="M40.8599 67.3138C41.3415 68.8552 41.823 70.3965 42.3046 71.9379C45.531 71.5525 48.8056 71.3839 52.0561 71.4803C53.7415 71.5284 55.427 71.6248 57.0642 71.2876C58.7015 70.9263 60.3147 70.0353 61.1093 68.5662C61.639 67.5787 61.6631 66.1819 60.7722 65.5316C60.2425 65.1704 59.5683 65.1222 58.9182 65.1704C56.8475 65.2908 54.8491 65.8929 52.7784 66.1337C50.7318 66.3746 48.4926 66.206 46.8312 64.9777C45.7477 64.1589 45.0254 62.9547 44.0382 61.9914C43.1955 61.1484 40.9803 59.8238 40.0653 61.1484C39.1263 62.5453 40.4265 65.8688 40.8599 67.3138Z" fill="#92E3A9"/>
<path opacity="0.5" d="M40.8599 67.3138C41.3415 68.8552 41.823 70.3965 42.3046 71.9379C45.531 71.5525 48.8056 71.3839 52.0561 71.4803C53.7415 71.5284 55.427 71.6248 57.0642 71.2876C58.7015 70.9263 60.3147 70.0353 61.1093 68.5662C61.639 67.5787 61.6631 66.1819 60.7722 65.5316C60.2425 65.1704 59.5683 65.1222 58.9182 65.1704C56.8475 65.2908 54.8491 65.8929 52.7784 66.1337C50.7318 66.3746 48.4926 66.206 46.8312 64.9777C45.7477 64.1589 45.0254 62.9547 44.0382 61.9914C43.1955 61.1484 40.9803 59.8238 40.0653 61.1484C39.1263 62.5453 40.4265 65.8688 40.8599 67.3138Z" fill="white"/>
<path d="M35.4665 73.2866C35.0813 74.4907 34.4312 75.5745 33.757 76.6583C31.5178 80.2949 29.2785 83.9556 27.0393 87.5922C32.9624 81.4027 35.4906 77.1399 39.1986 73.2866C39.006 73.696 36.5259 70.9986 36.4537 70.9745C35.3461 70.6374 35.7314 72.4436 35.4665 73.2866Z" fill="#92E3A9"/>
<g opacity="0.5">
<path d="M35.4665 73.2866C35.0813 74.4907 34.4312 75.5745 33.757 76.6583C31.5178 80.2949 29.2785 83.9556 27.0393 87.5922C32.9624 81.4027 35.4906 77.1399 39.1986 73.2866C39.006 73.696 36.5259 70.9986 36.4537 70.9745C35.3461 70.6374 35.7314 72.4436 35.4665 73.2866Z" fill="white"/>
</g>
<path d="M35.1536 83.9553C36.3093 82.438 37.465 80.9448 38.6208 79.4276C39.7043 78.0067 40.9804 76.4653 42.7621 76.2486C41.9194 76.3449 41.1008 74.1774 40.0654 74.37C39.1745 74.5145 38.7652 76.369 38.4522 77.0674C37.4169 79.4035 36.3334 81.7155 35.1536 83.9553Z" fill="#92E3A9"/>
<path opacity="0.5" d="M35.1536 83.9553C36.3093 82.438 37.465 80.9448 38.6208 79.4276C39.7043 78.0067 40.9804 76.4653 42.7621 76.2486C41.9194 76.3449 41.1008 74.1774 40.0654 74.37C39.1745 74.5145 38.7652 76.369 38.4522 77.0674C37.4169 79.4035 36.3334 81.7155 35.1536 83.9553Z" fill="white"/>
<path d="M29.9768 97.6589C30.8677 98.4055 31.7826 99.128 32.6735 99.8746C38.3559 93.6128 43.1955 86.6286 47.072 79.1145C46.446 78.8255 45.8681 78.9941 44.0864 77.5491C43.5807 77.1156 37.0316 89.0129 29.9768 97.6589Z" fill="#92E3A9"/>
<path opacity="0.5" d="M29.9768 97.6589C30.8677 98.4055 31.7826 99.128 32.6735 99.8746C38.3559 93.6128 43.1955 86.6286 47.072 79.1145C46.446 78.8255 45.8681 78.9941 44.0864 77.5491C43.5807 77.1156 37.0316 89.0129 29.9768 97.6589Z" fill="white"/>
</g>
<path d="M17.3119 82.7753L29.7601 65.9168C31.903 60.6184 31.6141 57.608 32.1919 52.3096C32.6735 47.6615 33.9496 43.8081 34.07 42.2186C34.1182 41.6647 34.5756 34.849 34.5756 34.271C34.5997 33.5244 35.5388 31.7423 35.7073 31.0198C37.152 24.8544 38.2836 23.9392 39.8968 24.8785C40.1376 25.023 42.7139 26.2271 40.7877 33.2354C40.3543 34.849 40.8599 44.9882 40.8599 44.9882L67.201 34.3674V60.6425L55.5955 74.033C53.7656 75.9837 51.5745 77.5492 49.0945 78.5848C47.987 79.0664 46.6386 79.1869 46.5423 79.2832C45.8681 79.9094 38.5485 90.5061 34.6479 96.1898" stroke="black" stroke-miterlimit="10"/>
<path d="M69.5125 33.8129C69.8014 33.6684 70.0662 33.5721 70.307 33.4999C71.2701 33.1627 72.6185 33.0182 73.4612 33.5962C74.4002 34.2464 74.954 36.5103 72.763 38.0998C72.763 38.0998 71.1257 39.4003 68.5253 40.4359C67.8511 40.7008 67.0806 40.6767 66.4546 40.3155C66.0693 40.0987 65.7563 39.7857 65.7322 39.3281C65.6359 36.6789 67.1047 34.9208 69.5125 33.8129Z" fill="white"/>
<mask id="mask1_406_10139" style="mask-type:luminance" maskUnits="userSpaceOnUse" x="65" y="33" width="10" height="8">
<path d="M69.5125 33.8129C69.8014 33.6684 70.0662 33.5721 70.307 33.4999C71.2701 33.1627 72.6185 33.0182 73.4612 33.5962C74.4002 34.2464 74.954 36.5103 72.763 38.0998C72.763 38.0998 71.1257 39.4003 68.5253 40.4359C67.8511 40.7008 67.0806 40.6767 66.4546 40.3155C66.0693 40.0987 65.7563 39.7857 65.7322 39.3281C65.6359 36.6789 67.1047 34.9208 69.5125 33.8129Z" fill="white"/>
</mask>
<g mask="url(#mask1_406_10139)">
<path d="M68.742 35.3545C68.4531 36.366 68.5975 37.4738 68.742 38.5094C68.8142 39.0634 68.9828 39.7136 69.4884 39.9063C69.9459 40.099 70.4515 39.8099 70.8609 39.545C71.6313 39.0152 72.3778 38.4131 72.8593 37.5943C73.3409 36.7995 73.5576 35.7639 73.1964 34.8969C72.3055 32.6571 69.368 33.2592 68.742 35.3545Z" fill="#92E3A9"/>
<path opacity="0.5" d="M68.742 35.3545C68.4531 36.366 68.5975 37.4738 68.742 38.5094C68.8142 39.0634 68.9828 39.7136 69.4884 39.9063C69.9459 40.099 70.4515 39.8099 70.8609 39.545C71.6313 39.0152 72.3778 38.4131 72.8593 37.5943C73.3409 36.7995 73.5576 35.7639 73.1964 34.8969C72.3055 32.6571 69.368 33.2592 68.742 35.3545Z" fill="white"/>
</g>
<path d="M69.5125 33.8129C69.8014 33.6684 70.0662 33.5721 70.307 33.4999C71.2701 33.1627 72.6185 33.0182 73.4612 33.5962C74.4002 34.2464 74.954 36.5103 72.763 38.0998C72.763 38.0998 71.1257 39.4003 68.5253 40.4359C67.8511 40.7008 67.0806 40.6767 66.4546 40.3155C66.0693 40.0987 65.7563 39.7857 65.7322 39.3281C65.6359 36.6789 67.1047 34.9208 69.5125 33.8129Z" stroke="black" stroke-miterlimit="10"/>
<path d="M69.1754 46.0718L65.347 47.9985V42.1221L70.0181 39.9546C70.0181 39.9546 67.6344 43.1818 69.1754 46.0718Z" stroke="black" stroke-miterlimit="10"/>
<path d="M67.8752 48.3115L65.347 49.7084V56.2832L69.4884 54.7418L70.0181 48.6969C70.0181 48.7209 69.368 48.4319 67.8752 48.3115Z" stroke="black" stroke-miterlimit="10"/>
<path d="M69.6569 18.6165V65.748C69.6569 67.6987 68.0678 69.2882 66.1175 69.2882H44.4475C42.4972 69.2882 40.9081 67.6987 40.9081 65.748V18.6165C40.9081 16.6657 42.4972 15.0762 44.4475 15.0762H66.1175C66.3823 15.0762 66.6231 15.1003 66.888 15.1725C68.4771 15.4856 69.6569 16.9065 69.6569 18.6165Z" fill="black"/>
<path d="M64.6728 67.8432H45.9403C43.99 67.8432 42.4009 66.2537 42.4009 64.3029V20.0374C42.4009 18.0866 43.99 16.4971 45.9403 16.4971H64.6728C66.6231 16.4971 68.2122 18.0866 68.2122 20.0374V64.3029C68.2122 66.2537 66.6231 67.8432 64.6728 67.8432Z" fill="#92E3A9"/>
<path d="M59.8813 19.4836H51.2856C49.865 19.4836 48.6852 18.3276 48.6852 16.8826V16.4731H62.4577V16.8826C62.4817 18.3276 61.326 19.4836 59.8813 19.4836Z" fill="black"/>
<path d="M51.069 18.544C51.4413 18.544 51.7431 18.2421 51.7431 17.8697C51.7431 17.4972 51.4413 17.1953 51.069 17.1953C50.6966 17.1953 50.3948 17.4972 50.3948 17.8697C50.3948 18.2421 50.6966 18.544 51.069 18.544Z" fill="white" stroke="black" stroke-miterlimit="10"/>
<path d="M57.4494 18.6644H53.7174C53.4044 18.6644 53.1395 18.3995 53.1395 18.0864V17.9178C53.1395 17.6048 53.4044 17.3398 53.7174 17.3398H57.4494C57.7625 17.3398 58.0273 17.6048 58.0273 17.9178V18.0864C58.0273 18.3995 57.7865 18.6644 57.4494 18.6644Z" fill="white" stroke="black" stroke-miterlimit="10"/>
<path d="M68.0197 43.1815C67.8752 43.9763 68.116 44.8192 68.6457 45.4935C69.1995 46.1438 70.0422 46.6254 70.9812 46.794C71.7036 46.9145 72.5222 46.8181 72.9797 46.3605C73.389 45.9511 73.389 45.3731 73.389 44.8192C73.3649 43.5187 73.0279 41.7124 71.2461 41.303C69.7774 40.9658 68.2364 41.9773 68.0197 43.1815Z" fill="white"/>
<mask id="mask2_406_10139" style="mask-type:luminance" maskUnits="userSpaceOnUse" x="67" y="41" width="7" height="6">
<path d="M68.0197 43.1815C67.8752 43.9763 68.116 44.8192 68.6457 45.4935C69.1995 46.1438 70.0422 46.6254 70.9812 46.794C71.7036 46.9145 72.5222 46.8181 72.9797 46.3605C73.389 45.9511 73.389 45.3731 73.389 44.8192C73.3649 43.5187 73.0279 41.7124 71.2461 41.303C69.7774 40.9658 68.2364 41.9773 68.0197 43.1815Z" fill="white"/>
</mask>
<g mask="url(#mask2_406_10139)">
<path d="M68.0197 42.7963C67.7548 43.6874 68.0678 44.6989 68.6939 45.3973C69.3199 46.0958 70.2348 46.4811 71.1498 46.6497C71.3424 46.2643 71.0294 45.8308 70.8127 45.4455C70.4034 44.7952 70.1867 44.0005 70.2348 43.2298C70.2589 42.8686 70.3793 42.4591 70.7405 42.3869C71.0535 42.3387 71.3183 42.6036 71.4146 42.8926C71.511 43.1816 71.4628 43.5188 71.511 43.8319C71.5591 44.145 71.6795 44.4822 71.9925 44.5785C72.0166 43.8801 72.0166 43.1335 71.7517 42.4832C70.9812 40.701 68.5494 40.99 68.0197 42.7963Z" fill="#92E3A9"/>
<path opacity="0.5" d="M68.0197 42.7963C67.7548 43.6874 68.0678 44.6989 68.6939 45.3973C69.3199 46.0958 70.2348 46.4811 71.1498 46.6497C71.3424 46.2643 71.0294 45.8308 70.8127 45.4455C70.4034 44.7952 70.1867 44.0005 70.2348 43.2298C70.2589 42.8686 70.3793 42.4591 70.7405 42.3869C71.0535 42.3387 71.3183 42.6036 71.4146 42.8926C71.511 43.1816 71.4628 43.5188 71.511 43.8319C71.5591 44.145 71.6795 44.4822 71.9925 44.5785C72.0166 43.8801 72.0166 43.1335 71.7517 42.4832C70.9812 40.701 68.5494 40.99 68.0197 42.7963Z" fill="white"/>
</g>
<path d="M68.0197 43.1815C67.8752 43.9763 68.116 44.8192 68.6457 45.4935C69.1995 46.1438 70.0422 46.6254 70.9812 46.794C71.7036 46.9145 72.5222 46.8181 72.9797 46.3605C73.389 45.9511 73.389 45.3731 73.389 44.8192C73.3649 43.5187 73.0279 41.7124 71.2461 41.303C69.7774 40.9658 68.2364 41.9773 68.0197 43.1815Z" stroke="black" stroke-miterlimit="10"/>
<path d="M69.5366 58.2823L66.8881 60.3053C66.8881 60.3053 65.2267 63.0027 68.4291 63.7011L71.198 62.9063C72.5223 62.521 73.5095 61.3409 73.5095 59.9681C73.5335 58.6676 72.739 57.3189 69.5607 57.0059L69.5366 58.2823Z" fill="white"/>
<mask id="mask3_406_10139" style="mask-type:luminance" maskUnits="userSpaceOnUse" x="66" y="57" width="8" height="7">
<path d="M69.5366 58.2823L66.8881 60.3053C66.8881 60.3053 65.2267 63.0027 68.4291 63.7011L71.198 62.9063C72.5223 62.521 73.5095 61.3409 73.5095 59.9681C73.5335 58.6676 72.739 57.3189 69.5607 57.0059L69.5366 58.2823Z" fill="white"/>
</mask>
<g mask="url(#mask3_406_10139)">
<path d="M68.9347 59.4142C68.9347 59.631 69.0551 59.8477 69.1514 60.0404C69.7052 61.0278 70.0423 62.1356 70.1627 63.2676C70.0663 62.4487 70.5238 61.3891 70.4997 60.522C70.4757 59.631 70.4034 58.499 69.9219 57.7524C69.6811 58.1859 68.9347 58.8603 68.9347 59.4142Z" fill="#92E3A9"/>
<path opacity="0.5" d="M68.9347 59.4142C68.9347 59.631 69.0551 59.8477 69.1514 60.0404C69.7052 61.0278 70.0423 62.1356 70.1627 63.2676C70.0663 62.4487 70.5238 61.3891 70.4997 60.522C70.4757 59.631 70.4034 58.499 69.9219 57.7524C69.6811 58.1859 68.9347 58.8603 68.9347 59.4142Z" fill="white"/>
</g>
<path d="M69.5366 58.2823L66.8881 60.3053C66.8881 60.3053 65.2267 63.0027 68.4291 63.7011L71.198 62.9063C72.5223 62.521 73.5095 61.3409 73.5095 59.9681C73.5335 58.6676 72.739 57.3189 69.5607 57.0059L69.5366 58.2823Z" stroke="black" stroke-miterlimit="10"/>
<path d="M68.5976 50.3829L66.1175 53.0561C66.1175 53.0561 64.8655 56.2592 68.429 56.4037L71.222 55.0551C72.6185 54.3807 73.6539 53.1043 73.9187 51.563C74.1836 50.0216 73.6057 48.4562 69.9218 48.7452L68.5976 50.3829Z" fill="white"/>
<mask id="mask4_406_10139" style="mask-type:luminance" maskUnits="userSpaceOnUse" x="65" y="48" width="9" height="9">
<path d="M68.5976 50.3829L66.1175 53.0561C66.1175 53.0561 64.8655 56.2592 68.429 56.4037L71.222 55.0551C72.6185 54.3807 73.6539 53.1043 73.9187 51.563C74.1836 50.0216 73.6057 48.4562 69.9218 48.7452L68.5976 50.3829Z" fill="white"/>
</mask>
<g mask="url(#mask4_406_10139)">
<path d="M68.7661 56.0906C69.0069 56.3074 69.4162 56.1388 69.5848 55.8739C69.7533 55.5849 69.7292 55.2477 69.6811 54.9346C69.6088 54.4529 69.0069 51.1535 68.2605 51.5629C67.803 51.7797 68.6698 55.4885 68.7661 56.0906Z" fill="#92E3A9"/>
<path opacity="0.5" d="M68.7661 56.0906C69.0069 56.3074 69.4162 56.1388 69.5848 55.8739C69.7533 55.5849 69.7292 55.2477 69.6811 54.9346C69.6088 54.4529 69.0069 51.1535 68.2605 51.5629C67.803 51.7797 68.6698 55.4885 68.7661 56.0906Z" fill="white"/>
</g>
<path d="M68.5976 50.3829L66.1175 53.0561C66.1175 53.0561 64.8655 56.2592 68.429 56.4037L71.222 55.0551C72.6185 54.3807 73.6539 53.1043 73.9187 51.563C74.1836 50.0216 73.6057 48.4562 69.9218 48.7452L68.5976 50.3829Z" stroke="black" stroke-miterlimit="10"/>
<path d="M68.429 52.3335C67.6586 52.478 67.1529 53.3691 67.4178 54.0916C67.6826 54.8141 68.6698 55.1754 69.3199 54.79" stroke="black" stroke-miterlimit="10"/>
<path d="M69.2476 60.3773C68.4772 60.2569 67.7548 61.0998 67.9956 61.8464C68.2364 62.5689 69.3199 62.8579 69.8737 62.304" fill="white"/>
<path d="M69.2476 60.3773C68.4772 60.2569 67.7548 61.0998 67.9956 61.8464C68.2364 62.5689 69.3199 62.8579 69.8737 62.304" stroke="black" stroke-miterlimit="10"/>
<path d="M37.5372 34.5358C38.693 34.6321 39.8969 34.2708 40.8118 33.5483" stroke="black" stroke-miterlimit="10"/>
<path d="M40.3543 45.6382C39.4153 46.4089 38.2355 46.8424 37.0316 46.8424" stroke="black" stroke-miterlimit="10"/>
<path d="M43.7252 69.0957C43.1955 70.613 42.1601 71.9376 40.8118 72.8046" stroke="black" stroke-miterlimit="10"/>
<path d="M55.5233 59.6062C59.26 59.6062 62.2891 56.5763 62.2891 52.8388C62.2891 49.1012 59.26 46.0713 55.5233 46.0713C51.7866 46.0713 48.7574 49.1012 48.7574 52.8388C48.7574 56.5763 51.7866 59.6062 55.5233 59.6062Z" fill="#B90B00"/>
<path d="M58.0274 48.2388L60.074 50.2859L57.594 52.7665L60.074 55.2471L58.0274 57.2942L55.5474 54.8136L53.0674 57.2942L51.0208 55.2471L53.5008 52.7665L51.0208 50.2859L53.0674 48.2388L55.5474 50.7194L58.0274 48.2388Z" fill="#92E3A9"/>
<path d="M52.2729 43.0131V43.278H51.9598V43.0131C51.9598 42.7482 51.8635 42.6036 51.6228 42.6036C51.382 42.6036 51.2857 42.7482 51.2857 43.0131V44.5303C51.2857 44.7952 51.382 44.9398 51.6228 44.9398C51.8635 44.9398 51.9598 44.7952 51.9598 44.5303V44.1691H52.2729V44.5303C52.2729 44.9638 52.0802 45.2528 51.6228 45.2528C51.1894 45.2528 50.9727 44.9638 50.9727 44.5303V43.0612C50.9727 42.6277 51.1653 42.3387 51.6228 42.3387C52.0802 42.2906 52.2729 42.5796 52.2729 43.0131Z" fill="#263238"/>
<path d="M52.8988 44.6263L52.7784 45.2043H52.4895L53.0433 42.3384H53.5008L54.0546 45.2043H53.7415L53.6212 44.6263H52.8988ZM52.9229 44.3373H53.5489L53.2359 42.6755L52.9229 44.3373Z" fill="#263238"/>
<path d="M54.5843 45.1804H54.2954V42.3145H54.7047L55.3789 44.3856V42.3145H55.6678V45.1804H55.3308L54.6084 42.8684V45.1804H54.5843Z" fill="#263238"/>
<path d="M57.2328 43.0131V43.278H56.9198V43.0131C56.9198 42.7482 56.8235 42.6036 56.5827 42.6036C56.3419 42.6036 56.2456 42.7482 56.2456 43.0131V44.5303C56.2456 44.7952 56.3419 44.9398 56.5827 44.9398C56.8235 44.9398 56.9198 44.7952 56.9198 44.5303V44.1691H57.2328V44.5303C57.2328 44.9638 57.0402 45.2528 56.5827 45.2528C56.1493 45.2528 55.9326 44.9638 55.9326 44.5303V43.0612C55.9326 42.6277 56.1252 42.3387 56.5827 42.3387C57.0161 42.2906 57.2328 42.5796 57.2328 43.0131Z" fill="#263238"/>
<path d="M58.5331 43.5909V43.8799H57.8349V44.8914H58.7017V45.1804H57.5219V42.3145H58.7017V42.6035H57.8349V43.5909H58.5331Z" fill="#263238"/>
<path d="M58.9906 45.1804V42.3145H59.3036V44.8914H60.1223V45.1804H58.9906Z" fill="#263238"/>
<path opacity="0.2" d="M49.9373 15.0762L40.884 26.7808V18.6165C40.884 16.6657 42.4732 15.0762 44.4235 15.0762H49.9373Z" fill="white"/>
<path opacity="0.2" d="M66.8639 15.0762L40.884 47.6372V35.0415L57.5218 15.004H66.0934C66.3583 14.9799 66.5991 15.028 66.8639 15.0762Z" fill="white"/>
<path opacity="0.2" d="M69.6569 51.2256V56.6685L68.2123 58.4506L60.5555 67.8432L59.3757 69.2882H54.6565L55.8604 67.8432L68.2123 52.9837L69.6569 51.2256Z" fill="white"/>
<path d="M91.2065 105.414C85.6204 107.918 79.3121 108.737 73.1482 108.569C72.7629 108.569 72.4018 108.544 72.0406 108.52L71.3664 105.919C66.4546 100.862 57.4254 96.2137 56.6308 89.2054C55.6196 80.1981 54.2471 80.5594 54.2471 78.3196C54.2471 78.2474 54.8732 77.1877 55.6436 74.8997C55.8844 74.1532 56.0048 73.0694 56.1493 72.1783C56.2937 71.239 57.1365 70.5406 58.0755 70.6129C58.7256 70.661 59.3516 70.9019 59.8332 71.2872C60.7481 72.0579 61.2056 73.2621 61.326 74.4422C61.4464 75.6463 61.2538 76.8264 61.0611 78.0065C62.0242 79.8369 62.578 82.1007 62.9874 84.1237C63.4208 82.4379 64.0709 77.2599 62.3373 73.7919C59.4238 67.9396 56.2215 62.3522 53.7174 54.9345C53.5248 54.3565 53.4766 53.3931 53.6211 52.8151C54.199 50.5994 56.4623 50.9607 57.5217 52.1408C57.8106 52.4539 58.0273 52.8151 58.1959 53.2005C59.3998 55.8256 61.8557 59.8234 63.6134 62.1114L69.6087 70.0589L70.3311 69.505C70.3311 69.505 70.6441 59.6308 70.4996 59.4622C70.3311 59.2936 69.368 52.9837 69.368 52.9837C69.368 52.9837 68.8383 51.8036 68.1882 50.3104C67.5621 48.8173 68.1882 47.6372 68.1882 47.6372C69.3198 45.3252 71.6553 46.4089 72.1369 47.6372C72.6185 48.8654 74.0631 51.2738 74.0631 51.2738L76.7358 58.5952C76.6394 60.2569 77.5785 68.4454 77.5785 68.4454L78.5416 68.0118L80.1066 63.1951L78.9268 58.2821C78.9268 58.2821 76.3505 55.4402 76.7839 53.7785C77.2173 52.1167 79.4084 52.5984 79.4084 52.5984L83.7905 57.8486H85.0907L88.1486 61.702C88.9673 64.2067 89.3766 66.7836 89.3766 69.3846C89.3766 71.0945 89.208 72.8045 88.8469 74.4903L88.1486 77.7416V98.7665C88.1486 98.7665 90.2434 102.138 90.2434 102.451C90.1711 102.596 90.6045 103.8 91.2065 105.414Z" fill="white"/>
<mask id="mask5_406_10139" style="mask-type:luminance" maskUnits="userSpaceOnUse" x="53" y="46" width="39" height="63">
<path d="M91.2065 105.414C85.6204 107.918 79.3121 108.737 73.1482 108.569C72.7629 108.569 72.4018 108.544 72.0406 108.52L71.3664 105.919C66.4546 100.862 57.4254 96.2137 56.6308 89.2054C55.6196 80.1981 54.2471 80.5594 54.2471 78.3196C54.2471 78.2474 54.8732 77.1877 55.6436 74.8997C55.8844 74.1532 56.0048 73.0694 56.1493 72.1783C56.2937 71.239 57.1365 70.5406 58.0755 70.6129C58.7256 70.661 59.3516 70.9019 59.8332 71.2872C60.7481 72.0579 61.2056 73.2621 61.326 74.4422C61.4464 75.6463 61.2538 76.8264 61.0611 78.0065C62.0242 79.8369 62.578 82.1007 62.9874 84.1237C63.4208 82.4379 64.0709 77.2599 62.3373 73.7919C59.4238 67.9396 56.2215 62.3522 53.7174 54.9345C53.5248 54.3565 53.4766 53.3931 53.6211 52.8151C54.199 50.5994 56.4623 50.9607 57.5217 52.1408C57.8106 52.4539 58.0273 52.8151 58.1959 53.2005C59.3998 55.8256 61.8557 59.8234 63.6134 62.1114L69.6087 70.0589L70.3311 69.505C70.3311 69.505 70.6441 59.6308 70.4996 59.4622C70.3311 59.2936 69.368 52.9837 69.368 52.9837C69.368 52.9837 68.8383 51.8036 68.1882 50.3104C67.5621 48.8173 68.1882 47.6372 68.1882 47.6372C69.3198 45.3252 71.6553 46.4089 72.1369 47.6372C72.6185 48.8654 74.0631 51.2738 74.0631 51.2738L76.7358 58.5952C76.6394 60.2569 77.5785 68.4454 77.5785 68.4454L78.5416 68.0118L80.1066 63.1951L78.9268 58.2821C78.9268 58.2821 76.3505 55.4402 76.7839 53.7785C77.2173 52.1167 79.4084 52.5984 79.4084 52.5984L83.7905 57.8486H85.0907L88.1486 61.702C88.9673 64.2067 89.3766 66.7836 89.3766 69.3846C89.3766 71.0945 89.208 72.8045 88.8469 74.4903L88.1486 77.7416V98.7665C88.1486 98.7665 90.2434 102.138 90.2434 102.451C90.1711 102.596 90.6045 103.8 91.2065 105.414Z" fill="white"/>
</mask>
<g mask="url(#mask5_406_10139)">
<path d="M54.801 77.2597C54.7769 77.356 54.7528 77.5005 54.8491 77.5728C54.9695 77.6691 55.1621 77.5246 55.2584 77.3801C55.8845 76.4649 57.1606 76.0555 58.1959 76.4168C58.6052 76.4168 58.7256 75.7906 58.4608 75.5016C58.1959 75.1885 57.7625 75.1403 57.3532 75.1403C56.9439 75.1403 56.5346 75.1644 56.1975 74.9477C55.7881 74.6827 55.6196 74.1529 55.7159 73.6953C55.427 74.8754 55.0899 76.0555 54.801 77.2597Z" fill="#92E3A9"/>
<g opacity="0.5">
<path d="M54.801 77.2597C54.7769 77.356 54.7528 77.5005 54.8491 77.5728C54.9695 77.6691 55.1621 77.5246 55.2584 77.3801C55.8845 76.4649 57.1606 76.0555 58.1959 76.4168C58.6052 76.4168 58.7256 75.7906 58.4608 75.5016C58.1959 75.1885 57.7625 75.1403 57.3532 75.1403C56.9439 75.1403 56.5346 75.1644 56.1975 74.9477C55.7881 74.6827 55.6196 74.1529 55.7159 73.6953C55.427 74.8754 55.0899 76.0555 54.801 77.2597Z" fill="white"/>
</g>
<path d="M60.1944 85.761C60.2426 85.6647 60.3148 85.5442 60.363 85.4238C60.2426 85.4961 60.1704 85.6165 60.1944 85.761Z" fill="#92E3A9"/>
<path d="M61.6631 78.0788C61.5668 76.8505 61.7353 75.6222 61.6872 74.4181C61.639 73.1898 61.326 71.9134 60.4351 71.0704C59.159 69.8663 55.6677 70.4924 56.8476 72.7563C57.1606 73.3825 58.0033 73.7196 58.6534 73.4306C59.3035 73.1416 59.6165 72.2505 59.2794 71.6485C60.7 73.7919 60.5555 76.8264 58.9905 78.8494C60.7963 80.4149 61.3742 83.2326 60.387 85.4002C60.6037 85.2316 60.9648 85.2075 61.2056 85.4002C61.5427 85.6651 61.6631 86.1227 61.8316 86.508C62.0002 86.9174 62.3373 87.3268 62.7707 87.3028C63.3726 85.8577 63.1559 84.196 62.7707 82.6546C62.3373 81.1615 61.7835 79.6683 61.6631 78.0788Z" fill="#92E3A9"/>
<path d="M71.7999 57.4629C71.7999 57.5351 71.824 57.6315 71.824 57.7037C71.8481 57.6315 71.8481 57.5351 71.7999 57.4629Z" fill="#92E3A9"/>
<path d="M69.368 68.1802C67.6344 64.7844 65.9008 61.3645 63.9987 58.041C62.8911 56.1143 61.7113 54.1876 60.2185 52.5259C59.5684 51.7793 57.6662 50.0694 56.6309 51.2013C55.9326 51.9479 56.8476 53.3206 56.0049 54.1395C56.1975 54.1395 57.1606 54.0431 57.281 54.1636C59.448 56.8368 60.6519 60.3049 60.6037 63.7488C61.302 63.1949 62.2651 63.9656 62.7948 64.664C66.1416 68.9749 69.2717 73.4545 72.1851 78.0785C71.6313 76.0314 71.6073 73.8639 71.0053 71.8409C70.596 70.5645 69.97 69.3844 69.368 68.1802Z" fill="#92E3A9"/>
<g opacity="0.5">
<path d="M60.1944 85.761C60.2426 85.6647 60.3148 85.5442 60.363 85.4238C60.2426 85.4961 60.1704 85.6165 60.1944 85.761Z" fill="white"/>
<path d="M61.6631 78.0788C61.5668 76.8505 61.7353 75.6222 61.6872 74.4181C61.639 73.1898 61.326 71.9134 60.4351 71.0704C59.159 69.8663 55.6677 70.4924 56.8476 72.7563C57.1606 73.3825 58.0033 73.7196 58.6534 73.4306C59.3035 73.1416 59.6165 72.2505 59.2794 71.6485C60.7 73.7919 60.5555 76.8264 58.9905 78.8494C60.7963 80.4149 61.3742 83.2326 60.387 85.4002C60.6037 85.2316 60.9648 85.2075 61.2056 85.4002C61.5427 85.6651 61.6631 86.1227 61.8316 86.508C62.0002 86.9174 62.3373 87.3268 62.7707 87.3028C63.3726 85.8577 63.1559 84.196 62.7707 82.6546C62.3373 81.1615 61.7835 79.6683 61.6631 78.0788Z" fill="white"/>
<path d="M71.7999 57.4629C71.7999 57.5351 71.824 57.6315 71.824 57.7037C71.8481 57.6315 71.8481 57.5351 71.7999 57.4629Z" fill="white"/>
<path d="M69.368 68.1802C67.6344 64.7844 65.9008 61.3645 63.9987 58.041C62.8911 56.1143 61.7113 54.1876 60.2185 52.5259C59.5684 51.7793 57.6662 50.0694 56.6309 51.2013C55.9326 51.9479 56.8476 53.3206 56.0049 54.1395C56.1975 54.1395 57.1606 54.0431 57.281 54.1636C59.448 56.8368 60.6519 60.3049 60.6037 63.7488C61.302 63.1949 62.2651 63.9656 62.7948 64.664C66.1416 68.9749 69.2717 73.4545 72.1851 78.0785C71.6313 76.0314 71.6073 73.8639 71.0053 71.8409C70.596 70.5645 69.97 69.3844 69.368 68.1802Z" fill="white"/>
</g>
<path d="M71.1016 48.9857C72.9555 51.394 74.039 54.4045 74.1113 57.4631C73.0519 57.6076 72.1851 58.6673 72.2814 59.751C72.3777 59.0285 73.4371 58.8359 74.015 59.2694C74.5928 59.7029 74.7855 60.4735 74.9299 61.196C75.7004 65.4348 75.1225 69.7939 75.4356 74.0807C75.5559 75.6943 76.9284 79.2346 77.8433 86.6524C77.6026 81.2576 77.8433 75.5498 77.6026 70.1551C77.434 66.0609 77.3618 62.6892 76.7117 58.6673C76.2301 55.7773 74.9299 52.5019 73.5093 49.949C73.1722 49.3229 72.3295 47.4443 71.6313 47.2035C70.4755 46.77 71.246 48.2391 71.1016 48.9857Z" fill="#92E3A9"/>
<path opacity="0.5" d="M71.1016 48.9857C72.9555 51.394 74.039 54.4045 74.1113 57.4631C73.0519 57.6076 72.1851 58.6673 72.2814 59.751C72.3777 59.0285 73.4371 58.8359 74.015 59.2694C74.5928 59.7029 74.7855 60.4735 74.9299 61.196C75.7004 65.4348 75.1225 69.7939 75.4356 74.0807C75.5559 75.6943 76.9284 79.2346 77.8433 86.6524C77.6026 81.2576 77.8433 75.5498 77.6026 70.1551C77.434 66.0609 77.3618 62.6892 76.7117 58.6673C76.2301 55.7773 74.9299 52.5019 73.5093 49.949C73.1722 49.3229 72.3295 47.4443 71.6313 47.2035C70.4755 46.77 71.246 48.2391 71.1016 48.9857Z" fill="white"/>
<path d="M77.2173 54.3802C77.1691 53.8022 77.6266 53.2242 78.2045 53.1038C78.7823 52.9833 79.4084 53.3687 79.601 53.9226C79.0713 53.8985 78.5657 54.4043 78.5897 54.9341C78.9991 54.7655 79.4325 54.5969 79.8418 54.4524C80.0103 55.6807 80.829 56.7163 81.6476 57.6556C82.4663 58.5948 82.5144 59.2451 82.8274 60.4492C83.1163 61.6534 83.4294 63.5079 82.2496 63.8932C82.7793 63.7969 83.2849 64.2544 83.4294 64.7602C83.5738 65.29 83.4534 65.8199 83.3571 66.3497C82.5385 70.2994 82.081 74.3214 81.9606 78.3433C83.0441 76.3203 84.3925 73.1413 84.9463 70.9256C86.2465 65.555 85.7408 64.712 84.8981 61.2199C84.3684 58.9561 83.309 56.8849 81.7921 55.1027C81.1661 54.3561 80.2029 53.176 79.2639 52.8148C78.3008 52.4294 77.0006 53.2483 77.2173 54.3802Z" fill="#92E3A9"/>
<path opacity="0.5" d="M77.2173 54.3802C77.1692 53.8022 77.6266 53.2242 78.2045 53.1038C78.7824 52.9833 79.4084 53.3687 79.601 53.9226C79.0713 53.8985 78.5657 54.4043 78.5897 54.9341C78.9991 54.7655 79.4325 54.5969 79.8418 54.4524C80.0103 55.6807 80.829 56.7163 81.6476 57.6556C82.4663 58.5948 82.5144 59.2451 82.8274 60.4492C83.1164 61.6534 83.4294 63.5079 82.2496 63.8932C82.7793 63.7969 83.2849 64.2544 83.4294 64.7602C83.5738 65.29 83.4535 65.8199 83.3571 66.3497C82.5385 70.2994 82.081 74.3214 81.9606 78.3433C82.4422 77.4522 82.9719 76.3444 83.4534 75.1643C84.0795 73.6952 84.6333 72.1538 84.9222 70.9256C86.2224 65.555 85.7168 64.712 84.874 61.2199C84.3443 58.9561 83.2849 56.8849 81.768 55.1027C81.142 54.3561 80.1789 53.176 79.2398 52.8148C78.3008 52.4294 77.0006 53.2483 77.2173 54.3802Z" fill="white"/>
<path d="M85.4278 62.9297C85.7889 62.4722 86.1501 61.9905 86.6798 61.7256C87.2095 61.4606 87.9078 61.5088 88.2689 61.9664C87.4262 61.0271 86.6798 59.9916 86.0538 58.9078C85.8371 58.5225 85.6204 58.113 85.2351 57.8722C84.9221 57.6795 84.2961 57.5832 84.0553 57.9685C83.8386 58.3057 84.1516 58.9078 84.248 59.2209C84.6332 60.4251 85.0425 61.6774 85.4278 62.9297Z" fill="#92E3A9"/>
<path opacity="0.5" d="M85.4278 62.9297C85.7889 62.4722 86.1501 61.9905 86.6798 61.7256C87.2095 61.4606 87.9078 61.5088 88.2689 61.9664C87.4262 61.0271 86.6798 59.9916 86.0538 58.9078C85.8371 58.5225 85.6204 58.113 85.2351 57.8722C84.9221 57.6795 84.2961 57.5832 84.0553 57.9685C83.8386 58.3057 84.1516 58.9078 84.248 59.2209C84.6332 60.4251 85.0425 61.6774 85.4278 62.9297Z" fill="white"/>
<path d="M85.0426 68.9991C84.8019 70.131 84.4166 71.2388 84.3925 72.3948C84.3685 73.8158 84.9463 75.2608 85.9576 76.2723C85.8131 74.7069 85.9094 73.0933 86.1984 71.5519C86.2947 71.0462 86.3188 69.2399 86.7281 68.9027C87.1374 68.5656 87.8597 68.5896 88.0764 69.0713C88.0524 68.3488 87.1856 67.819 86.5355 68.1321C87.0411 67.8912 86.3428 65.242 86.1984 64.7363C86.0298 64.0378 85.2834 60.618 84.4889 60.4494C83.6943 60.2567 84.4166 61.5332 84.5129 61.7981C84.8019 62.5688 84.9945 63.3635 85.139 64.1583C85.4038 65.7478 85.3797 67.4095 85.0426 68.9991Z" fill="#92E3A9"/>
<path opacity="0.5" d="M85.0426 68.9991C84.8019 70.131 84.4166 71.2388 84.3925 72.3948C84.3685 73.8158 84.9463 75.2608 85.9576 76.2723C85.8131 74.7069 85.9094 73.0933 86.1984 71.5519C86.2947 71.0462 86.3188 69.2399 86.7281 68.9027C87.1374 68.5656 87.8597 68.5896 88.0764 69.0713C88.0524 68.3488 87.1856 67.819 86.5355 68.1321C87.0411 67.8912 86.3428 65.242 86.1984 64.7363C86.0298 64.0378 85.2834 60.618 84.4889 60.4494C83.6943 60.2567 84.4166 61.5332 84.5129 61.7981C84.8019 62.5688 84.9945 63.3635 85.139 64.1583C85.4038 65.7478 85.3797 67.4095 85.0426 68.9991Z" fill="white"/>
<path d="M81.142 79.1141L81.3105 87.5193C82.0569 86.7727 82.6107 85.8575 82.9719 84.846C83.2367 84.0754 84.3684 84.2921 84.3443 85.0869C84.3443 85.2073 84.3443 85.3277 84.3202 85.4481C84.0795 89.3978 83.8628 93.3475 83.622 97.2972L86.2946 87.2062C86.7762 90.1685 85.5 98.5496 84.5851 101.416C86.8002 101.777 87.5948 104.546 87.667 106.786C87.7393 109.026 87.7152 111.675 89.521 113C91.2546 112.229 91.0379 112.735 91.9288 112.759C93.0123 112.759 93.9754 112.157 94.7941 111.169C95.1071 110.784 95.396 110.062 95.396 109.58C95.4201 108.231 94.7218 107.123 94.1199 105.991C89.7136 97.6585 91.2546 87.134 86.9206 78.777C86.8966 78.7288 86.8002 78.7288 86.8002 78.8011C86.6076 80.4869 85.9334 80.0775 84.8981 78.7288L83.3571 79.7644C82.6107 78.777 82.4903 77.4765 82.3699 76.2241C81.3587 77.8859 81.142 79.1141 81.142 79.1141Z" fill="#92E3A9"/>
<g opacity="0.5">
<path d="M81.142 79.1141L81.3105 87.5193C82.0569 86.7727 82.6107 85.8575 82.9719 84.846C83.2367 84.0754 84.3684 84.2921 84.3443 85.0869C84.3443 85.2073 84.3443 85.3277 84.3202 85.4481C84.0795 89.3978 83.8628 93.3475 83.622 97.2972L86.2946 87.2062C86.7762 90.1685 85.5 98.5496 84.5851 101.416C86.8002 101.777 87.5948 104.546 87.667 106.786C87.7393 109.026 87.7152 111.675 89.521 113C91.2546 112.229 91.0379 112.735 91.9288 112.759C93.0123 112.759 93.9754 112.157 94.7941 111.169C95.1071 110.784 95.396 110.062 95.396 109.58C95.4201 108.231 94.7218 107.123 94.1199 105.991C89.7136 97.6585 91.2546 87.134 86.9206 78.777C86.8966 78.7288 86.8002 78.7288 86.8002 78.8011C86.6076 80.4869 85.9334 80.0775 84.8981 78.7288L83.3571 79.7644C82.6107 78.777 82.4903 77.4765 82.3699 76.2241C81.3587 77.8859 81.142 79.1141 81.142 79.1141Z" fill="white"/>
</g>
<path d="M72.6907 111.097C72.8833 109.628 73.1963 106.69 72.6907 105.317C72.3054 104.306 71.559 103.439 70.6922 102.812C69.392 101.873 67.7066 101.343 66.0934 101.343C66.1415 102.186 67.0565 102.21 67.6584 102.547C68.5252 103.029 69.3198 103.8 69.994 104.522C70.933 105.582 72.9074 109.532 72.6907 111.097Z" fill="#92E3A9"/>
<path opacity="0.5" d="M72.6907 111.097C72.8833 109.628 73.2204 106.69 72.6907 105.317C72.2814 104.257 71.535 103.414 70.6922 102.812C69.368 101.897 67.7066 101.343 66.0934 101.343C66.1415 102.186 67.0565 102.21 67.6584 102.547C68.5252 103.029 69.3198 103.8 69.994 104.522C70.933 105.582 72.9074 109.532 72.6907 111.097Z" fill="white"/>
</g>
<path d="M72.0165 108.52L71.3424 105.919C66.4305 100.862 57.4013 96.2137 56.6068 89.2054C55.5955 80.1981 54.2231 80.5594 54.2231 78.3196C54.2231 78.2474 54.8491 77.1877 55.6196 74.8997C55.8604 74.1532 55.9808 73.0694 56.1252 72.1783C56.2697 71.239 57.1124 70.5406 58.0514 70.6129C58.7015 70.661 59.3276 70.9019 59.8091 71.2872C60.7241 72.0579 61.1816 73.2621 61.3019 74.4422C61.4223 75.6463 61.2297 76.8264 61.0371 78.0065C62.0002 79.8369 62.554 82.1007 62.9633 84.1237C63.3967 82.4379 64.0468 77.2599 62.3132 73.7919C59.3998 67.9396 56.1975 62.3522 53.6934 54.9345C53.5007 54.3565 53.4526 53.3931 53.5971 52.8151C54.1749 50.5994 56.4382 50.9607 57.4977 52.1408C57.7866 52.4539 58.0033 52.8151 58.1718 53.2005C59.3757 55.8256 61.8317 59.8234 63.5893 62.1114L69.5847 70.059L70.307 69.505C70.307 69.505 70.62 59.6308 70.4756 59.4622C70.307 59.2936 69.3439 52.9837 69.3439 52.9837C69.3439 52.9837 68.8142 51.8036 68.1641 50.3104C67.5381 48.8173 68.1641 47.6372 68.1641 47.6372C69.2958 45.3252 71.6313 46.4089 72.1129 47.6372C72.5944 48.8654 74.0391 51.2738 74.0391 51.2738L76.7117 58.5952C76.6154 60.2569 77.5544 68.4454 77.5544 68.4454L78.5175 68.0118L80.0826 63.1951L78.9028 58.2821C78.9028 58.2821 76.3265 55.4402 76.7599 53.7785C77.1933 52.1167 79.3843 52.5984 79.3843 52.5984L83.7665 57.8486H85.0667L88.1246 61.702C88.9432 64.2067 89.3525 66.7836 89.3525 69.3846C89.3525 71.0945 89.184 72.8045 88.8228 74.4903L88.1246 77.7416V98.7665C88.1246 98.7665 90.2193 102.138 90.2193 102.451C90.2193 102.524 90.6527 103.728 91.2306 105.317" stroke="#263238" stroke-miterlimit="10"/>
<path d="M60.1461 64.1105C60.9166 63.2435 62.1205 62.81 63.2522 62.9304" stroke="#263238" stroke-miterlimit="10"/>
<path d="M58.1477 54.0677C57.2809 53.9232 56.3419 54.1399 55.6196 54.6698C55.6196 54.6698 54.3675 53.4174 54.6324 52.3818" stroke="#263238" stroke-miterlimit="10"/>
<path d="M85.789 76.3688C85.0907 75.2851 84.4165 73.816 84.6092 72.5396C84.9703 70.059 86.102 67.193 85.5964 64.7365C85.2593 63.1711 84.9463 61.6056 84.6092 60.0161" stroke="#263238" stroke-miterlimit="10"/>
<path d="M72.2573 49.7325C71.7758 50.0696 71.0775 50.1178 70.5719 49.8529C70.0422 49.5639 69.7051 48.9859 69.7051 48.3838" stroke="#263238" stroke-miterlimit="10"/>
<path d="M70.4033 65.0498C70.3552 65.8927 70.4515 69.8906 70.4033 70.7335" stroke="#263238" stroke-miterlimit="10"/>
<path d="M75.4115 72.3228C76.5191 73.5269 76.3505 76.441 75.58 78.0306" stroke="#263238" stroke-miterlimit="10"/>
<path d="M66.8879 75.6943C67.4899 76.8503 68.4048 77.8619 69.4883 78.5121" stroke="#263238" stroke-miterlimit="10"/>
<path d="M82.4663 74.105C82.6589 75.3092 82.3699 76.6097 81.7198 77.6212" stroke="#263238" stroke-miterlimit="10"/>
<path d="M87.1614 77.8862C87.2095 78.8496 86.9447 79.8129 86.3909 80.5836" stroke="#263238" stroke-miterlimit="10"/>
<path d="M80.7326 54.5733C80.1547 54.2843 79.4083 54.4047 78.9509 54.8623C78.7342 54.5974 78.5415 54.3084 78.3248 54.0435" stroke="#263238" stroke-miterlimit="10"/>
<path d="M75.5319 58.282C74.6892 57.7522 73.4612 57.9689 72.8593 58.7396" stroke="#263238" stroke-miterlimit="10"/>
<path d="M85.4759 65.0495C84.9462 64.1344 83.8627 63.6045 82.8274 63.7249" stroke="#263238" stroke-miterlimit="10"/>
<path d="M88.8709 69.8902C88.8468 69.2399 88.3171 68.6378 87.667 68.5415" stroke="#263238" stroke-miterlimit="10"/>
<path d="M62.915 84.5815C62.5539 84.7501 62.1927 84.8946 61.8315 85.0632" stroke="#263238" stroke-miterlimit="10"/>
<path d="M63.1799 85.4482C63.0113 86.2912 63.0113 87.1582 63.1799 87.977" stroke="#263238" stroke-miterlimit="10"/>
<path d="M56.1011 77.0435C55.5232 77.501 55.0176 78.055 54.6323 78.7052" stroke="#263238" stroke-miterlimit="10"/>
<path d="M56.366 73.7439C57.1605 73.1658 58.4126 74.4423 59.159 73.792C59.4479 73.5271 59.472 73.0936 59.3998 72.7083C59.3275 72.3229 59.2071 71.9376 59.2553 71.5522" stroke="#263238" stroke-miterlimit="10"/>
<path d="M73.2205 85.6411C73.2445 86.0505 73.2445 86.46 73.2686 86.8453" stroke="#263238" stroke-miterlimit="10"/>
<path d="M72.0887 78.729C72.5944 80.463 72.8833 82.2452 73.1 84.0756" stroke="#263238" stroke-miterlimit="10"/>
<path d="M70.6923 75.2612C71.1016 76.1764 71.4627 77.0916 71.7758 78.0308" stroke="#263238" stroke-miterlimit="10"/>
</svg>
