<svg width="327" height="265" viewBox="0 0 327 265" fill="none" xmlns="http://www.w3.org/2000/svg">
<g clip-path="url(#clip0_627_2)">
<rect width="327" height="265" rx="15" fill="white"/>
<g clip-path="url(#clip1_627_2)">
<rect width="264.614" height="414.177" transform="translate(204.35 -152) rotate(52.0942)" fill="url(#paint0_linear_627_2)"/>
<path d="M212.165 88.0391H177.782V255.425H212.165V88.0391Z" fill="white"/>
<path d="M219.886 88.0391H185.503V255.425H219.886V88.0391Z" fill="#6A6A6A"/>
<path d="M185.51 97.6748H219.892V87.9998H185.51V97.6748Z" fill="white"/>
<path d="M185.51 118.651H219.892V108.976H185.51V118.651Z" fill="white"/>
<path d="M185.51 139.629H219.892V129.954H185.51V139.629Z" fill="white"/>
<path d="M185.51 160.604H219.892V150.929H185.51V160.604Z" fill="white"/>
<path d="M185.51 181.582H219.892V171.907H185.51V181.582Z" fill="white"/>
<path d="M185.51 202.576H219.892V192.901H185.51V202.576Z" fill="white"/>
<path d="M185.51 223.554H219.892V213.879H185.51V223.554Z" fill="white"/>
<path d="M185.51 244.53H219.892V234.855H185.51V244.53Z" fill="white"/>
<path d="M267.137 111.727H232.754V255.425H267.137V111.727Z" fill="white"/>
<path d="M274.857 111.727H240.475V255.425H274.857V111.727Z" fill="#6A6A6A"/>
<path d="M240.477 120.005H274.86V111.701H240.477V120.005Z" fill="white"/>
<path d="M240.477 138.01H274.86V129.706H240.477V138.01Z" fill="white"/>
<path d="M240.477 156.015H274.86V147.711H240.477V156.015Z" fill="white"/>
<path d="M240.477 174.038H274.86V165.735H240.477V174.038Z" fill="white"/>
<path d="M240.477 192.043H274.86V183.739H240.477V192.043Z" fill="white"/>
<path d="M240.477 210.048H274.86V201.744H240.477V210.048Z" fill="white"/>
<path d="M240.477 228.053H274.86V219.749H240.477V228.053Z" fill="white"/>
<path d="M240.477 246.077H274.86V237.774H240.477V246.077Z" fill="white"/>
<path d="M159.154 271.316H173.559V250.298H159.154V271.316Z" fill="#6A6A6A"/>
<path d="M163.562 221.637V280.002H11.0332L9.99632 279.984L-28.9228 279.613C-28.9598 279.557 -28.9969 279.483 -29.0339 279.409C-29.0895 279.298 -29.182 279.168 -29.2561 279.02C-29.2931 278.964 -29.3116 278.909 -29.3487 278.853C-29.4598 278.649 -29.5894 278.408 -29.7375 278.149C-29.9226 277.834 -30.1078 277.463 -30.33 277.037C-31.1446 275.498 -32.2371 273.367 -33.4591 270.716C-33.8664 269.845 -34.2922 268.918 -34.7181 267.936C-34.8847 267.547 -35.0699 267.158 -35.2365 266.75C-35.4032 266.361 -35.5698 265.953 -35.755 265.545C-35.755 265.527 -35.7735 265.527 -35.7735 265.508C-35.8846 265.23 -36.0142 264.952 -36.1253 264.655C-36.2549 264.359 -36.366 264.062 -36.4956 263.747C-37.1251 262.172 -37.7916 260.522 -38.4397 258.762C-38.4582 258.724 -38.4767 258.669 -38.4952 258.632C-38.9211 257.483 -39.3469 256.296 -39.7543 255.073C-39.9764 254.406 -40.2171 253.72 -40.4393 253.034C-40.4578 252.997 -40.4764 252.942 -40.4764 252.905C-40.5689 252.589 -40.68 252.293 -40.7726 251.978C-40.8652 251.718 -40.9392 251.459 -41.0133 251.199C-41.1799 250.662 -41.3466 250.106 -41.5317 249.55C-41.7539 248.845 -41.9576 248.123 -42.1798 247.381C-42.4575 246.38 -42.7352 245.38 -43.0129 244.36C-43.087 244.045 -43.1796 243.748 -43.2536 243.433C-43.4943 242.507 -43.735 241.561 -43.9572 240.616C-44.0313 240.32 -44.1053 240.005 -44.1794 239.689C-44.2164 239.504 -44.272 239.319 -44.309 239.115C-44.6608 237.614 -44.9756 236.075 -45.2903 234.518C-45.6236 232.795 -45.9384 231.052 -46.2161 229.273C-46.4753 227.623 -46.6975 225.955 -46.9012 224.269C-47.0863 222.675 -47.2529 221.044 -47.3826 219.413C-47.6973 215.576 -47.8269 211.647 -47.7714 207.643C-47.6603 200.674 -46.9382 193.483 -45.3644 186.18C-45.3088 185.921 -45.2533 185.643 -45.1978 185.383C-44.8089 183.641 -44.3831 181.917 -43.8832 180.175C-43.5129 178.84 -43.1055 177.524 -42.6797 176.19C-42.3649 175.226 -42.0316 174.262 -41.6984 173.299C-40.9207 171.112 -40.0505 168.943 -39.0877 166.756H-38.273V164.94C-33.0702 153.708 -25.4049 142.568 -14.4809 132.041C-14.2772 131.837 -14.0736 131.651 -13.8699 131.448H-13.2404V153.763H6.49692V117.398H28.2709V141.011H33.233V112.82H55.007V165.681H82.5392V196.504H92.8337V204.27H116.478V190.906H130.049V154.579H146.806V221.637H163.562Z" fill="#6A6A6A"/>
<path d="M33.2225 121.773H55.015V116.38H33.2225V121.773Z" fill="white"/>
<path d="M33.2225 131.887H55.015V126.493H33.2225V131.887Z" fill="white"/>
<path d="M33.2225 140.99H55.015V135.597H33.2225V140.99Z" fill="white"/>
<path d="M6.48608 140.99H28.2786V135.597H6.48608V140.99Z" fill="white"/>
<path d="M6.48608 131.887H28.2786V126.493H6.48608V131.887Z" fill="white"/>
<path d="M6.48608 122.812H28.2786V117.418H6.48608V122.812Z" fill="white"/>
<path d="M6.48017 149.817H55.0087V144.424H6.48017V149.817Z" fill="white"/>
<path d="M6.48017 158.646H55.0087V153.252H6.48017V158.646Z" fill="white"/>
<path d="M129.886 162.885H146.791V154.581H129.886V162.885Z" fill="white"/>
<path d="M129.886 175.246H146.791V166.943H129.886V175.246Z" fill="white"/>
<path d="M129.886 187.608H146.791V179.305H129.886V187.608Z" fill="white"/>
<path d="M129.886 200.569H146.791V192.247H129.886V200.569Z" fill="white"/>
<path d="M129.886 213.117H146.791V204.795H129.886V213.117Z" fill="white"/>
<path d="M129.886 225.684H146.791V217.38H129.886V225.684Z" fill="white"/>
<path d="M129.886 238.816H146.791V230.513H129.886V238.816Z" fill="white"/>
<path d="M6.48017 165.31H55.0087V161.899H6.48017V165.31Z" fill="white"/>
<path d="M130.123 154.56H123.884V190.887H130.123V154.56Z" fill="white"/>
<path d="M116.459 190.888H103.924V204.251H116.459V190.888Z" fill="white"/>
<path d="M6.47837 117.417V122.811V144.44V149.834V153.782H2.16431V117.843C2.36797 117.695 2.55313 117.565 2.73828 117.417H6.47837Z" fill="white"/>
<path d="M33.233 112.82H30.5668V140.993H33.233V112.82Z" fill="white"/>
<g opacity="0.8">
<path d="M74.3437 176.189H78.0283V170.981H74.3437V176.189Z" fill="white"/>
<path d="M67.4432 176.189H71.1277V170.981H67.4432V176.189Z" fill="white"/>
<path d="M60.7035 176.189H64.388V170.981H60.7035V176.189Z" fill="white"/>
<path d="M54.2934 176.189H57.9779V170.981H54.2934V176.189Z" fill="white"/>
<path d="M47.7856 176.189H51.4701V170.981H47.7856V176.189Z" fill="white"/>
<path d="M41.1841 176.189H44.8687V170.981H41.1841V176.189Z" fill="white"/>
<path d="M34.2835 176.189H37.968V170.981H34.2835V176.189Z" fill="white"/>
<path d="M27.5253 176.189H31.2098V170.981H27.5253V176.189Z" fill="white"/>
<path d="M21.1338 176.189H24.8183V170.981H21.1338V176.189Z" fill="white"/>
<path d="M14.6075 176.189H18.2921V170.981H14.6075V176.189Z" fill="white"/>
<path d="M7.81033 176.189H11.4949V170.981H7.81033V176.189Z" fill="white"/>
<path d="M0.909453 176.189H4.59399L4.59399 170.981H0.909453L0.909453 176.189Z" fill="white"/>
<path d="M74.3438 185.38H78.0283V180.172H74.3438V185.38Z" fill="white"/>
<path d="M67.4433 185.38H71.1278V180.172H67.4433V185.38Z" fill="white"/>
<path d="M60.7035 185.38H64.388V180.172H60.7035V185.38Z" fill="white"/>
<path d="M54.2934 185.38H57.978V180.172H54.2934V185.38Z" fill="white"/>
<path d="M47.7856 185.38H51.4702V180.172H47.7856V185.38Z" fill="white"/>
<path d="M41.1842 185.38H44.8688V180.172H41.1842V185.38Z" fill="white"/>
<path d="M34.2835 185.38H37.9681V180.172H34.2835V185.38Z" fill="white"/>
<path d="M27.5254 185.38H31.2099V180.172H27.5254V185.38Z" fill="white"/>
<path d="M21.1338 185.38H24.8184V180.172H21.1338V185.38Z" fill="white"/>
<path d="M14.6076 185.38H18.2921V180.172H14.6076V185.38Z" fill="white"/>
<path d="M7.81033 185.38H11.4949V180.172H7.81033V185.38Z" fill="white"/>
<path d="M0.909453 185.38H4.59399L4.59399 180.172H0.909453L0.909453 185.38Z" fill="white"/>
<path d="M74.3438 194.437H78.0283V189.228H74.3438V194.437Z" fill="white"/>
<path d="M67.4433 194.437H71.1278V189.228H67.4433V194.437Z" fill="white"/>
<path d="M60.7035 194.437H64.388V189.228H60.7035V194.437Z" fill="white"/>
<path d="M54.2934 194.437H57.978V189.228H54.2934V194.437Z" fill="white"/>
<path d="M47.7856 194.437H51.4702V189.228H47.7856V194.437Z" fill="white"/>
<path d="M41.1842 194.437H44.8688V189.228H41.1842V194.437Z" fill="white"/>
<path d="M34.2835 194.437H37.9681V189.228H34.2835V194.437Z" fill="white"/>
<path d="M27.5254 194.437H31.2099V189.228H27.5254V194.437Z" fill="white"/>
<path d="M21.1338 194.437H24.8184V189.228H21.1338V194.437Z" fill="white"/>
<path d="M14.6076 194.437H18.2921V189.228H14.6076V194.437Z" fill="white"/>
<path d="M7.81039 194.437H11.4949V189.228H7.81039V194.437Z" fill="white"/>
<path d="M0.909514 194.437H4.59406L4.59406 189.228H0.909514L0.909514 194.437Z" fill="white"/>
<path d="M74.3438 204.05H78.0283V198.842H74.3438V204.05Z" fill="white"/>
<path d="M67.4433 204.05H71.1278V198.842H67.4433V204.05Z" fill="white"/>
<path d="M60.7035 204.05H64.388V198.842H60.7035V204.05Z" fill="white"/>
<path d="M54.2934 204.05H57.978V198.842H54.2934V204.05Z" fill="white"/>
<path d="M47.7856 204.05H51.4702V198.842H47.7856V204.05Z" fill="white"/>
<path d="M41.1842 204.05H44.8688V198.842H41.1842V204.05Z" fill="white"/>
<path d="M34.2835 204.05H37.9681V198.842H34.2835V204.05Z" fill="white"/>
<path d="M27.5254 204.05H31.2099V198.842H27.5254V204.05Z" fill="white"/>
<path d="M21.1338 204.05H24.8184V198.842H21.1338V204.05Z" fill="white"/>
<path d="M14.6076 204.05H18.2921V198.842H14.6076V204.05Z" fill="white"/>
<path d="M7.81039 204.05H11.4949V198.842H7.81039V204.05Z" fill="white"/>
<path d="M0.909514 204.05H4.59406L4.59406 198.842H0.909514L0.909514 204.05Z" fill="white"/>
<path d="M74.3438 213.24H78.0283V208.032H74.3438V213.24Z" fill="white"/>
<path d="M67.4433 213.24H71.1278V208.032H67.4433V213.24Z" fill="white"/>
<path d="M60.7035 213.24H64.388V208.032H60.7035V213.24Z" fill="white"/>
<path d="M54.2934 213.24H57.978V208.032H54.2934V213.24Z" fill="white"/>
<path d="M47.7856 213.24H51.4702V208.032H47.7856V213.24Z" fill="white"/>
<path d="M41.1842 213.24H44.8688V208.032H41.1842V213.24Z" fill="white"/>
<path d="M34.2835 213.24H37.9681V208.032H34.2835V213.24Z" fill="white"/>
<path d="M27.5254 213.24H31.2099V208.032H27.5254V213.24Z" fill="white"/>
<path d="M21.1338 213.24H24.8184V208.032H21.1338V213.24Z" fill="white"/>
<path d="M14.6076 213.24H18.2921V208.032H14.6076V213.24Z" fill="white"/>
<path d="M7.81039 213.24H11.4949V208.032H7.81039V213.24Z" fill="white"/>
<path d="M0.909514 213.24H4.59406L4.59406 208.032H0.909514L0.909514 213.24Z" fill="white"/>
<path d="M74.3438 222.297H78.0283V217.089H74.3438V222.297Z" fill="white"/>
<path d="M67.4433 222.297H71.1278V217.089H67.4433V222.297Z" fill="white"/>
<path d="M60.7035 222.297H64.388V217.089H60.7035V222.297Z" fill="white"/>
<path d="M54.2934 222.297H57.978V217.089H54.2934V222.297Z" fill="white"/>
<path d="M47.7856 222.297H51.4702V217.089H47.7856V222.297Z" fill="white"/>
<path d="M41.1842 222.297H44.8688V217.089H41.1842V222.297Z" fill="white"/>
<path d="M34.2835 222.297H37.9681V217.089H34.2835V222.297Z" fill="white"/>
<path d="M27.5254 222.297H31.2099V217.089H27.5254V222.297Z" fill="white"/>
<path d="M21.1338 222.297H24.8184V217.089H21.1338V222.297Z" fill="white"/>
<path d="M14.6076 222.297H18.2921V217.089H14.6076V222.297Z" fill="white"/>
<path d="M7.81039 222.297H11.4949V217.089H7.81039V222.297Z" fill="white"/>
<path d="M0.909514 222.297H4.59406L4.59406 217.089H0.909514L0.909514 222.297Z" fill="white"/>
</g>
<path d="M83.241 279.615H168.8V256.503H83.241V279.615Z" fill="white"/>
<path d="M82.2677 247.365H98.2094V238.802H82.2677V247.365Z" fill="#6A6A6A"/>
<path d="M61.7996 247.365H77.7413V238.802H61.7996V247.365Z" fill="#6A6A6A"/>
<path d="M41.7223 247.365H57.664V238.802H41.7223V247.365Z" fill="#6A6A6A"/>
<path d="M22.0467 247.365H37.9884V238.802H22.0467V247.365Z" fill="#6A6A6A"/>
<path d="M142.991 154.568H143.435V150.954H142.991V154.568Z" fill="#6A6A6A"/>
<path d="M127.011 154.568H127.455V150.954H127.011V154.568Z" fill="#6A6A6A"/>
<path d="M152.612 279.229H211.361V239.676H152.612V279.229Z" fill="#6A6A6A"/>
<path d="M152.612 247.368H211.361V234.505H152.612V247.368Z" fill="white"/>
<path d="M204.343 255.438H207.361V251.175H204.343V255.438Z" fill="white"/>
<path d="M198.688 255.438H201.706V251.175H198.688V255.438Z" fill="white"/>
<path d="M193.173 255.438H196.191V251.175H193.173V255.438Z" fill="white"/>
<path d="M187.953 255.438H190.971V251.175H187.953V255.438Z" fill="white"/>
<path d="M182.625 255.438H185.643V251.175H182.625V255.438Z" fill="white"/>
<path d="M177.23 255.438H180.248V251.175H177.23V255.438Z" fill="white"/>
<path d="M171.592 255.438H174.61V251.175H171.592V255.438Z" fill="white"/>
<path d="M166.078 255.438H169.096V251.175H166.078V255.438Z" fill="white"/>
<path d="M160.839 255.438H163.857V251.175H160.839V255.438Z" fill="white"/>
<path d="M155.51 255.438H158.528V251.175H155.51V255.438Z" fill="white"/>
<path d="M204.343 262.957H207.361V258.694H204.343V262.957Z" fill="white"/>
<path d="M198.688 262.957H201.706V258.694H198.688V262.957Z" fill="white"/>
<path d="M193.173 262.957H196.191V258.694H193.173V262.957Z" fill="white"/>
<path d="M187.953 262.957H190.971V258.694H187.953V262.957Z" fill="white"/>
<path d="M182.625 262.957H185.643V258.694H182.625V262.957Z" fill="white"/>
<path d="M177.23 262.957H180.248V258.694H177.23V262.957Z" fill="white"/>
<path d="M171.592 262.957H174.61V258.694H171.592V262.957Z" fill="white"/>
<path d="M166.078 262.957H169.096V258.694H166.078V262.957Z" fill="white"/>
<path d="M160.839 262.957H163.857V258.694H160.839V262.957Z" fill="white"/>
<path d="M155.51 262.957H158.528V258.694H155.51V262.957Z" fill="white"/>
<path d="M204.343 242.513H206.879V238.12H204.343V242.513Z" fill="#6A6A6A"/>
<path d="M179.162 242.513H181.698V238.12H179.162V242.513Z" fill="#6A6A6A"/>
<path d="M159.147 242.513H161.684V238.12H159.147V242.513Z" fill="#6A6A6A"/>
<path d="M215.038 279.229H273.787V239.676H215.038V279.229Z" fill="#6A6A6A"/>
<path d="M215.038 247.368H273.787V234.505H215.038V247.368Z" fill="white"/>
<path d="M266.77 255.438H269.788V251.175H266.77V255.438Z" fill="white"/>
<path d="M261.133 255.438H264.151V251.175H261.133V255.438Z" fill="white"/>
<path d="M255.618 255.438H258.636V251.175H255.618V255.438Z" fill="white"/>
<path d="M250.398 255.438H253.416V251.175H250.398V255.438Z" fill="white"/>
<path d="M245.051 255.438H248.069V251.175H245.051V255.438Z" fill="white"/>
<path d="M239.675 255.438H242.693V251.175H239.675V255.438Z" fill="white"/>
<path d="M234.018 255.438H237.036V251.175H234.018V255.438Z" fill="white"/>
<path d="M228.504 255.438H231.522V251.175H228.504V255.438Z" fill="white"/>
<path d="M223.284 255.438H226.302V251.175H223.284V255.438Z" fill="white"/>
<path d="M217.955 255.438H220.973V251.175H217.955V255.438Z" fill="white"/>
<path d="M266.77 262.957H269.788V258.694H266.77V262.957Z" fill="white"/>
<path d="M261.133 262.957H264.151V258.694H261.133V262.957Z" fill="white"/>
<path d="M255.618 262.957H258.636V258.694H255.618V262.957Z" fill="white"/>
<path d="M250.398 262.957H253.416V258.694H250.398V262.957Z" fill="white"/>
<path d="M245.051 262.957H248.069V258.694H245.051V262.957Z" fill="white"/>
<path d="M239.675 262.957H242.693V258.694H239.675V262.957Z" fill="white"/>
<path d="M234.018 262.957H237.036V258.694H234.018V262.957Z" fill="white"/>
<path d="M228.504 262.957H231.522V258.694H228.504V262.957Z" fill="white"/>
<path d="M223.284 262.957H226.302V258.694H223.284V262.957Z" fill="white"/>
<path d="M217.955 262.957H220.973V258.694H217.955V262.957Z" fill="white"/>
<path d="M266.769 242.513H269.306V238.12H266.769V242.513Z" fill="#6A6A6A"/>
<path d="M241.607 242.513H244.143V238.12H241.607V242.513Z" fill="#6A6A6A"/>
<path d="M221.574 242.513H224.111V238.12H221.574V242.513Z" fill="#6A6A6A"/>
<path opacity="0.7" d="M304.088 45.9348C304.088 45.9348 303.792 42.141 297.822 42.0035C291.822 41.8661 293.448 45.7973 291.822 46.7595C290.226 47.7217 289.783 46.2097 288.157 47.1719C286.561 48.1341 287.271 50.0309 285.97 50.3059C284.67 50.5808 282.896 49.0962 281.3 50.0309C279.704 50.9656 279.704 51.7904 278.965 51.7904C278.227 51.7904 276.778 51.2406 275.892 51.7904C275.005 52.3402 274 53 274 53H310.945C310.945 53 311.388 51.7904 309.763 50.9657C308.167 50.1409 307.428 50.8282 306.837 50.1409C306.275 49.4536 308.462 47.6942 304.088 45.9348Z" fill="white"/>
<path opacity="0.7" d="M27.3297 82.5039C27.3297 82.5039 27.13 80.0897 23.096 80.0022C19.0421 79.9148 20.1404 82.4165 19.0421 83.0288C17.9637 83.6411 17.6641 82.6789 16.5658 83.2912C15.4874 83.9035 15.9667 85.1106 15.088 85.2855C14.2093 85.4605 13.0111 84.5158 11.9327 85.1106C10.8543 85.7054 10.8543 86.2302 10.355 86.2302C9.85579 86.2302 8.87726 85.8804 8.27815 86.2302C7.67905 86.5801 7.00006 87 7.00006 87H31.9627C31.9627 87 32.2623 86.2302 31.1639 85.7054C30.0856 85.1806 29.5863 85.6179 29.1869 85.1806C28.8075 84.7432 30.2853 83.6236 27.3297 82.5039Z" fill="white"/>
<path opacity="0.7" d="M248.385 84.4308C248.385 84.4308 248.273 83.0513 246.014 83.0013C243.744 82.9513 244.359 84.3808 243.744 84.7307C243.14 85.0806 242.972 84.5308 242.357 84.8807C241.753 85.2306 242.021 85.9203 241.529 86.0203C241.037 86.1203 240.366 85.5805 239.762 85.9203C239.158 86.2602 239.158 86.5601 238.879 86.5601C238.599 86.5601 238.051 86.3602 237.716 86.5601C237.38 86.7601 237 87 237 87H250.979C250.979 87 251.147 86.5601 250.532 86.2602C249.928 85.9603 249.648 86.2103 249.425 85.9603C249.212 85.7104 250.04 85.0706 248.385 84.4308Z" fill="white"/>
<path opacity="0.7" d="M13.6592 24.3656C13.6592 24.3656 13.2598 19.1922 5.19188 19.0048C-2.916 18.8174 -0.719283 24.1781 -2.916 25.4902C-5.07278 26.8023 -5.67188 24.7405 -7.8686 26.0525C-10.0254 27.3646 -9.06681 29.9513 -10.8242 30.3262C-12.5816 30.7011 -14.978 28.6767 -17.1347 29.9513C-19.2915 31.2259 -19.2915 32.3505 -20.29 32.3505C-21.2885 32.3505 -23.2456 31.6008 -24.4438 32.3505C-25.642 33.1003 -27 34 -27 34H22.9254C22.9254 34 23.5245 32.3505 21.3278 31.2259C19.171 30.1012 18.1725 31.0384 17.3737 30.1012C16.6148 29.164 19.5704 26.7648 13.6592 24.3656Z" fill="white"/>
</g>
<rect width="332" height="8" transform="translate(-2 257)" fill="url(#paint1_linear_627_2)"/>
</g>
<defs>
<linearGradient id="paint0_linear_627_2" x1="197.25" y1="9.54775" x2="187.321" y2="413.758" gradientUnits="userSpaceOnUse">
<stop stop-color="#3C3C3C"/>
<stop offset="1"/>
</linearGradient>
<linearGradient id="paint1_linear_627_2" x1="332" y1="8.00045" x2="0" y2="8.00045" gradientUnits="userSpaceOnUse">
<stop stop-color="white"/>
<stop offset="0.41" stop-color="white"/>
<stop offset="1"/>
</linearGradient>
<clipPath id="clip0_627_2">
<rect width="327" height="265" rx="15" fill="white"/>
</clipPath>
<clipPath id="clip1_627_2">
<rect width="264.614" height="414.177" fill="white" transform="translate(204.35 -152) rotate(52.0942)"/>
</clipPath>
</defs>
</svg>
