<svg width="86" height="28" viewBox="0 0 86 28" fill="none" xmlns="http://www.w3.org/2000/svg">
<path opacity="0.7" d="M69.6867 9.95992C69.6867 9.95992 69.0067 0.55981 55.2717 0.219226C41.4687 -0.121358 45.2085 9.61934 41.4687 12.0034C37.797 14.3875 36.7771 10.6411 33.0374 13.0252C29.3656 15.4093 30.9975 20.1093 28.0057 20.7905C25.0139 21.4717 20.9342 17.7934 17.2625 20.1093C13.5908 22.4253 13.5908 24.4688 11.8909 24.4688C10.191 24.4688 6.85928 23.1065 4.81942 24.4688C2.77957 25.8311 0.467743 27.4659 0.467743 27.4659H85.4615C85.4615 27.4659 86.4814 24.4688 82.7417 22.4253C79.07 20.3818 77.3701 22.0847 76.0102 20.3818C74.7183 18.6789 79.7499 14.3194 69.6867 9.95992Z" fill="white"/>
</svg>
