<svg width="273" height="238" viewBox="0 0 273 238" fill="none" xmlns="http://www.w3.org/2000/svg">
<g clip-path="url(#clip0_4_519)">
<path d="M211.533 142.5C211.533 142.432 211.533 142.432 211.533 142.5C205.957 140.593 197.458 141.206 196.234 142.023C194.874 142.841 193.786 144.135 192.834 145.429C190.114 149.04 187.87 154.08 186.51 159.529L126.131 165.115C123.887 160.279 120.555 155.987 117.223 153.399C116.203 152.65 115.184 151.9 113.96 151.628C113.688 151.56 113.144 151.56 112.396 151.696C110.22 145.361 107.092 139.231 103.216 138.822C95.057 138.005 80.8461 140.729 76.9024 148.699C73.0266 156.6 71.8027 176.422 71.8027 176.422L69.0829 179.147C66.9071 174.992 63.9153 171.382 60.9915 169.134C59.9716 168.385 58.9517 167.635 57.7278 167.363C57.0478 167.159 54.328 167.567 51.4722 168.521C51.3362 168.385 51.2682 168.317 51.1322 168.18C48.4124 165.864 42.8369 164.638 39.7091 170.496C36.5813 176.286 40.321 187.321 42.2249 189.841C43.7208 191.817 45.0807 192.77 45.5567 193.043C47.7325 198.492 51.6762 205.44 57.7278 205.781C61.8755 205.985 66.0232 204.418 68.879 201.353C72.8227 197.266 73.2306 191.544 71.7347 185.891L72.3467 184.937C72.3467 184.937 73.7746 186.912 79.1462 186.163C81.254 185.823 82.5459 185.141 83.4299 184.392C85.9457 190.863 90.0254 197.334 96.5529 198.288C102.197 199.173 107.976 197.539 112.26 193.792C113.552 192.702 114.64 191.408 115.524 190.114C119.127 189.91 122.595 188.343 125.111 185.686C127.491 183.166 128.579 180.101 128.715 176.763L136.738 175.809C136.738 175.809 143.945 179.351 152.785 178.807C161.624 178.262 166.928 172.676 166.928 172.676L185.218 171.109C185.558 178.193 188.074 184.733 194.058 188.343C198.681 191.136 204.325 191.681 209.425 189.978C217.856 187.117 219.896 174.583 220.372 166.954C221.256 154.625 217.38 144.271 211.533 142.5Z" fill="black"/>
<path d="M211.532 142.5C211.532 142.432 211.532 142.432 211.532 142.5ZM211.532 142.5C205.957 140.593 197.458 141.206 196.234 142.023C194.874 142.841 193.786 144.135 192.834 145.429C190.114 149.04 187.87 154.08 186.51 159.529L126.131 165.115C123.887 160.279 120.555 155.987 117.223 153.399C116.203 152.65 115.184 151.9 113.96 151.628C113.688 151.56 113.144 151.56 112.396 151.696C110.22 145.361 107.092 139.231 103.216 138.822C95.057 138.005 80.8461 140.729 76.9024 148.699C73.0266 156.6 71.8027 176.422 71.8027 176.422L69.0829 179.147C66.9071 174.992 63.9153 171.382 60.9915 169.134C59.9716 168.385 58.9517 167.635 57.7278 167.363C57.0478 167.159 54.328 167.567 51.4722 168.521C51.3362 168.385 51.2682 168.317 51.1322 168.18C48.4124 165.864 42.8369 164.638 39.7091 170.496C36.5813 176.286 40.321 187.321 42.2249 189.841C43.7208 191.817 45.0807 192.77 45.5567 193.043C47.7325 198.492 51.6762 205.44 57.7278 205.781C61.8755 205.985 66.0232 204.418 68.8789 201.353C72.8227 197.266 73.2306 191.544 71.7347 185.891L72.3467 184.937C72.3467 184.937 73.7746 186.912 79.1462 186.163C81.254 185.823 82.5459 185.141 83.4299 184.392C85.9457 190.863 90.0254 197.334 96.5529 198.288C102.197 199.173 107.976 197.539 112.26 193.792C113.552 192.702 114.64 191.408 115.524 190.114C119.127 189.91 122.595 188.343 125.111 185.686C127.491 183.166 128.579 180.101 128.715 176.763L136.738 175.809C136.738 175.809 143.945 179.351 152.785 178.807C161.624 178.262 166.928 172.676 166.928 172.676L185.218 171.109C185.558 178.193 188.074 184.733 194.058 188.343C198.681 191.136 204.325 191.681 209.425 189.978C217.856 187.117 219.896 174.583 220.372 166.954C221.256 154.625 217.38 144.271 211.532 142.5Z" stroke="black" stroke-width="0.75" stroke-miterlimit="10" stroke-linecap="round" stroke-linejoin="round"/>
<path d="M99.8167 194.269C99.0687 195.155 98.2528 195.904 97.2329 196.381" stroke="white" stroke-width="0.5" stroke-miterlimit="10" stroke-linecap="round" stroke-linejoin="round"/>
<path d="M103.08 178.125C103.08 178.125 103.896 186.981 100.905 192.566" stroke="white" stroke-width="0.5" stroke-miterlimit="10" stroke-linecap="round" stroke-linejoin="round"/>
<path d="M105.46 187.866C104.712 191.272 103.148 194.542 100.225 196.04" stroke="white" stroke-width="0.5" stroke-miterlimit="10" stroke-linecap="round" stroke-linejoin="round"/>
<path d="M109.2 177.444C109.2 177.444 110.56 192.157 103.284 195.7" stroke="white" stroke-width="0.5" stroke-miterlimit="10" stroke-linecap="round" stroke-linejoin="round"/>
<path d="M112.192 177.104C112.192 177.104 113.552 191.817 106.276 195.359" stroke="white" stroke-width="0.5" stroke-miterlimit="10" stroke-linecap="round" stroke-linejoin="round"/>
<path d="M203.985 187.389C203.169 188.411 202.217 189.228 201.129 189.841" stroke="white" stroke-width="0.5" stroke-miterlimit="10" stroke-linecap="round" stroke-linejoin="round"/>
<path d="M209.425 168.998C209.425 168.998 209.017 179.079 205.277 185.482" stroke="white" stroke-width="0.5" stroke-miterlimit="10" stroke-linecap="round" stroke-linejoin="round"/>
<path d="M210.377 180.169C209.153 184.052 207.181 187.798 204.121 189.433" stroke="white" stroke-width="0.5" stroke-miterlimit="10" stroke-linecap="round" stroke-linejoin="round"/>
<path d="M215.476 168.248C215.476 168.248 214.728 185.005 207.181 189.024" stroke="white" stroke-width="0.5" stroke-miterlimit="10" stroke-linecap="round" stroke-linejoin="round"/>
<path d="M218.468 167.908C218.468 167.908 217.72 184.665 210.173 188.683" stroke="white" stroke-width="0.5" stroke-miterlimit="10" stroke-linecap="round" stroke-linejoin="round"/>
<path d="M59.6316 203.329C59.0877 204.214 58.3397 204.963 57.3878 205.508" stroke="white" stroke-width="0.5" stroke-miterlimit="10" stroke-linecap="round" stroke-linejoin="round"/>
<path d="M60.7195 189.024C60.7195 189.024 62.6234 196.517 60.4476 201.762" stroke="white" stroke-width="0.5" stroke-miterlimit="10" stroke-linecap="round" stroke-linejoin="round"/>
<path d="M64.2553 197.062C63.9833 200.127 62.8954 203.124 60.2436 204.827" stroke="white" stroke-width="0.5" stroke-miterlimit="10" stroke-linecap="round" stroke-linejoin="round"/>
<path d="M66.4311 187.594C66.4311 187.594 69.6269 200.059 63.0994 204.146" stroke="white" stroke-width="0.5" stroke-miterlimit="10" stroke-linecap="round" stroke-linejoin="round"/>
<path d="M69.2869 186.844C69.2869 186.844 72.4827 199.242 65.9552 203.397" stroke="white" stroke-width="0.5" stroke-miterlimit="10" stroke-linecap="round" stroke-linejoin="round"/>
<path d="M92.7452 173.017C94.3771 182.281 93.3572 190.182 90.5014 190.727C87.6456 191.204 84.0418 184.12 82.41 174.856C80.7781 165.592 81.798 157.69 84.6538 157.145C87.5096 156.669 91.1133 163.753 92.7452 173.017Z" fill="#6ABD50" stroke="black" stroke-miterlimit="10" stroke-linecap="round" stroke-linejoin="round"/>
<path d="M91.3173 173.221C91.7933 176.763 91.3173 179.76 90.3654 179.896C89.4134 180.033 88.2575 177.24 87.7816 173.698C87.3056 170.156 87.7816 167.159 88.7335 167.022C89.6854 166.886 90.8413 169.679 91.3173 173.221Z" fill="#6ABD50" stroke="black" stroke-miterlimit="10" stroke-linecap="round" stroke-linejoin="round"/>
<path d="M84.5178 164.775C84.6538 163.344 84.8578 162.186 85.0618 161.232" stroke="black" stroke-width="0.75" stroke-miterlimit="10" stroke-linecap="round" stroke-linejoin="round"/>
<path d="M89.0055 187.389C87.6456 184.665 85.8777 180.373 84.9938 175.469C84.4498 172.199 84.2458 169.134 84.3818 166.546" stroke="black" stroke-width="0.75" stroke-miterlimit="10" stroke-linecap="round" stroke-linejoin="round"/>
<path d="M52.7035 200.634C54.7663 200.061 54.9429 194.189 53.0981 187.519C51.2532 180.848 48.0854 175.904 46.0226 176.477C43.9598 177.049 43.7831 182.921 45.628 189.592C47.4729 196.263 50.6407 201.206 52.7035 200.634Z" fill="#6ABD50" stroke="black" stroke-miterlimit="10" stroke-linecap="round" stroke-linejoin="round"/>
<path d="M52.4242 187.73C53.0361 190.25 53.0361 192.43 52.3562 192.634C51.6762 192.839 50.5883 190.931 49.9083 188.343C49.2964 185.823 49.2964 183.643 49.9763 183.439C50.7243 183.302 51.8122 185.21 52.4242 187.73Z" stroke="black" stroke-width="0.75" stroke-miterlimit="10" stroke-linecap="round" stroke-linejoin="round"/>
<path d="M46.7126 182.212C46.6446 181.191 46.7126 180.305 46.7806 179.624" stroke="black" stroke-width="0.75" stroke-miterlimit="10" stroke-linecap="round" stroke-linejoin="round"/>
<path d="M52.0162 198.22C50.7923 196.381 49.0924 193.452 48.0725 189.91C47.3925 187.594 46.9846 185.414 46.8486 183.507" stroke="black" stroke-width="0.75" stroke-miterlimit="10" stroke-linecap="round" stroke-linejoin="round"/>
<path d="M198.477 73.7024C191.338 58.921 188.21 57.6268 183.451 57.3543C178.691 57.15 167.404 55.7195 154.893 57.6949C154.893 57.6949 119.943 57.0819 92.8812 73.498C64.5953 90.6634 50.8603 105.717 48.9564 113.551C47.0526 121.384 40.457 141.683 37.3293 153.331C34.2015 164.979 32.0936 175.264 36.0374 184.733C38.4172 190.455 41.001 192.157 44.2648 192.157C43.7888 191.34 43.3808 190.455 42.9049 189.365C39.6411 181.259 40.0491 169.679 43.7888 168.93C47.5285 168.18 49.7724 175.946 52.0162 184.392C52.7641 187.185 53.3761 188.82 53.8521 189.841C59.4276 187.73 68.335 183.03 80.1661 178.125C79.4182 172.948 78.6702 164.911 80.0981 155.715C81.866 144.067 89.2775 141.547 92.4732 148.563C95.125 154.421 96.145 167.431 96.4169 171.859C101.177 170.224 105.188 169.134 107.636 168.998C107.636 168.998 148.229 159.802 178.147 159.053C208.065 158.303 223.024 157.622 223.024 157.622C223.024 157.622 205.617 88.4837 198.477 73.7024Z" fill="white"/>
<mask id="mask0_4_519" style="mask-type:luminance" maskUnits="userSpaceOnUse" x="33" y="56" width="191" height="137">
<path d="M198.477 73.7024C191.338 58.921 188.21 57.6268 183.451 57.3543C178.691 57.15 167.404 55.7195 154.893 57.6949C154.893 57.6949 119.943 57.0819 92.8812 73.498C64.5953 90.6634 50.8603 105.717 48.9564 113.551C47.0526 121.384 40.457 141.683 37.3293 153.331C34.2015 164.979 32.0936 175.264 36.0374 184.733C38.4172 190.455 41.001 192.157 44.2648 192.157C43.7888 191.34 43.3808 190.455 42.9049 189.365C39.6411 181.259 40.0491 169.679 43.7888 168.93C47.5285 168.18 49.7724 175.946 52.0162 184.392C52.7641 187.185 53.3761 188.82 53.8521 189.841C59.4276 187.73 68.335 183.03 80.1661 178.125C79.4182 172.948 78.6702 164.911 80.0981 155.715C81.866 144.067 89.2775 141.547 92.4732 148.563C95.125 154.421 96.145 167.431 96.4169 171.859C101.177 170.224 105.188 169.134 107.636 168.998C107.636 168.998 148.229 159.802 178.147 159.053C208.065 158.303 223.024 157.622 223.024 157.622C223.024 157.622 205.617 88.4837 198.477 73.7024Z" fill="white"/>
</mask>
<g mask="url(#mask0_4_519)">
<path d="M102.876 145.225C102.876 145.225 98.7968 150.879 93.7651 152.105C95.533 158.576 96.2809 168.248 96.4849 171.859C100.701 170.428 104.372 169.338 106.82 169.066C107.16 166.954 107.432 165.592 107.432 165.592L102.876 145.225Z" fill="#6ABD50"/>
</g>
<mask id="mask1_4_519" style="mask-type:luminance" maskUnits="userSpaceOnUse" x="33" y="56" width="191" height="137">
<path d="M198.477 73.7024C191.338 58.921 188.21 57.6268 183.451 57.3543C178.691 57.15 167.404 55.7195 154.893 57.6949C154.893 57.6949 119.943 57.0819 92.8812 73.498C64.5953 90.6634 50.8603 105.717 48.9564 113.551C47.0526 121.384 40.457 141.683 37.3293 153.331C34.2015 164.979 32.0936 175.264 36.0374 184.733C38.4172 190.455 41.001 192.157 44.2648 192.157C43.7888 191.34 43.3808 190.455 42.9049 189.365C39.6411 181.259 40.0491 169.679 43.7888 168.93C47.5285 168.18 49.7724 175.946 52.0162 184.392C52.7641 187.185 53.3761 188.82 53.8521 189.841C59.4276 187.73 68.335 183.03 80.1661 178.125C79.4182 172.948 78.6702 164.911 80.0981 155.715C81.866 144.067 89.2775 141.547 92.4732 148.563C95.125 154.421 96.145 167.431 96.4169 171.859C101.177 170.224 105.188 169.134 107.636 168.998C107.636 168.998 148.229 159.802 178.147 159.053C208.065 158.303 223.024 157.622 223.024 157.622C223.024 157.622 205.617 88.4837 198.477 73.7024Z" fill="white"/>
</mask>
<g mask="url(#mask1_4_519)">
<path opacity="0.2" d="M52.2202 185.005C54.124 185.21 55.3479 186.027 59.2237 185.073C66.0232 183.37 61.1275 170.224 72.4147 164.843C75.1345 163.548 77.4463 163.003 79.4182 162.867C79.5542 160.551 79.7582 158.167 80.0981 155.715C80.5061 152.99 81.2541 150.742 82.138 148.971C79.0782 148.018 78.5342 147.132 73.2306 149.653C61.9435 155.034 63.6433 168.861 56.8438 170.564C51.4722 171.927 51.1323 169.747 47.0526 170.769C48.9564 173.493 50.4523 178.807 51.9482 184.392C52.0842 184.528 52.1522 184.733 52.2202 185.005Z" fill="#6ABD50"/>
</g>
<mask id="mask2_4_519" style="mask-type:luminance" maskUnits="userSpaceOnUse" x="33" y="56" width="191" height="137">
<path d="M198.477 73.7024C191.338 58.921 188.21 57.6268 183.451 57.3543C178.691 57.15 167.404 55.7195 154.893 57.6949C154.893 57.6949 119.943 57.0819 92.8812 73.498C64.5953 90.6634 50.8603 105.717 48.9564 113.551C47.0526 121.384 40.457 141.683 37.3293 153.331C34.2015 164.979 32.0936 175.264 36.0374 184.733C38.4172 190.455 41.001 192.157 44.2648 192.157C43.7888 191.34 43.3808 190.455 42.9049 189.365C39.6411 181.259 40.0491 169.679 43.7888 168.93C47.5285 168.18 49.7724 175.946 52.0162 184.392C52.7641 187.185 53.3761 188.82 53.8521 189.841C59.4276 187.73 68.335 183.03 80.1661 178.125C79.4182 172.948 78.6702 164.911 80.0981 155.715C81.866 144.067 89.2775 141.547 92.4732 148.563C95.125 154.421 96.145 167.431 96.4169 171.859C101.177 170.224 105.188 169.134 107.636 168.998C107.636 168.998 148.229 159.802 178.147 159.053C208.065 158.303 223.024 157.622 223.024 157.622C223.024 157.622 205.617 88.4837 198.477 73.7024Z" fill="white"/>
</mask>
<g mask="url(#mask2_4_519)">
<path opacity="0.2" d="M41.137 173.357C37.9412 175.537 36.1054 178.807 35.0174 181.599C35.2894 182.689 35.6974 183.711 36.1054 184.801C38.4852 190.523 41.069 192.226 44.3327 192.226C43.8568 191.408 43.4488 190.523 42.9729 189.433C40.933 184.188 40.321 177.649 41.137 173.357Z" fill="#6ABD50"/>
</g>
<mask id="mask3_4_519" style="mask-type:luminance" maskUnits="userSpaceOnUse" x="33" y="56" width="191" height="137">
<path d="M198.477 73.7024C191.338 58.921 188.21 57.6268 183.451 57.3543C178.691 57.15 167.404 55.7195 154.893 57.6949C154.893 57.6949 119.943 57.0819 92.8812 73.498C64.5953 90.6634 50.8603 105.717 48.9564 113.551C47.0526 121.384 40.457 141.683 37.3293 153.331C34.2015 164.979 32.0936 175.264 36.0374 184.733C38.4172 190.455 41.001 192.157 44.2648 192.157C43.7888 191.34 43.3808 190.455 42.9049 189.365C39.6411 181.259 40.0491 169.679 43.7888 168.93C47.5285 168.18 49.7724 175.946 52.0162 184.392C52.7641 187.185 53.3761 188.82 53.8521 189.841C59.4276 187.73 68.335 183.03 80.1661 178.125C79.4182 172.949 78.6702 164.911 80.0981 155.715C81.866 144.067 89.2775 141.547 92.4732 148.563C95.125 154.421 96.145 167.431 96.4169 171.859C101.177 170.224 105.188 169.134 107.636 168.998C107.636 168.998 148.229 159.802 178.147 159.053C208.065 158.303 223.024 157.622 223.024 157.622C223.024 157.622 205.617 88.4837 198.477 73.7024Z" fill="white"/>
</mask>
<g mask="url(#mask3_4_519)">
<path opacity="0.2" d="M183.451 57.3543C183.111 57.3543 182.635 57.2862 182.227 57.2862C132.658 70.024 112.464 129.899 105.528 158.712C105.868 161.573 106.276 164.366 106.752 167.159C107.568 167.022 107.024 168.998 107.636 168.93C107.636 168.93 148.229 159.734 178.147 158.985C208.065 158.235 223.024 157.554 223.024 157.554C223.024 157.554 205.685 88.4837 198.545 73.7023C191.338 58.8529 188.21 57.5587 183.451 57.3543Z" fill="#6ABD50"/>
</g>
<path d="M198.477 73.7024C191.338 58.921 188.21 57.6268 183.451 57.3543C178.691 57.15 167.404 55.7195 154.893 57.6949C154.893 57.6949 119.943 57.0819 92.8812 73.498C64.5953 90.6634 50.8603 105.717 48.9564 113.551C47.0526 121.384 40.457 141.683 37.3293 153.331C34.2015 164.979 32.0936 175.264 36.0374 184.733C38.4172 190.455 41.001 192.157 44.2648 192.157C43.7888 191.34 43.3808 190.455 42.9049 189.365C39.6411 181.259 40.0491 169.679 43.7888 168.93C47.5285 168.18 49.7724 175.946 52.0162 184.392C52.7641 187.185 53.3761 188.82 53.8521 189.841C59.4276 187.73 68.335 183.03 80.1661 178.125C79.4182 172.948 78.6702 164.911 80.0981 155.715C81.866 144.067 89.2775 141.547 92.4732 148.563C95.125 154.421 96.145 167.431 96.4169 171.859C101.177 170.224 105.188 169.134 107.636 168.998C107.636 168.998 148.229 159.802 178.147 159.053C208.065 158.303 223.024 157.622 223.024 157.622C223.024 157.622 205.617 88.4837 198.477 73.7024Z" stroke="black" stroke-miterlimit="10" stroke-linecap="round" stroke-linejoin="round"/>
<path opacity="0.2" d="M50.0443 148.495C50.0443 148.495 51.3362 149.789 53.4441 148.903C55.5519 148.018 55.8239 144.816 55.8239 144.816L59.0197 144.612L59.6316 134.531L52.5602 137.323C52.6282 137.323 50.7243 147.2 50.0443 148.495Z" fill="#6ABD50"/>
<g clip-path="url(#clip1_4_519)">
<rect width="85.726" height="51.3325" rx="20" transform="matrix(0.995659 -0.093075 0.109992 0.993932 106 67.9789)" fill="#051A00"/>
<g clip-path="url(#clip2_4_519)">
<path d="M138.653 98.5381L117.068 100.408L119.097 120.188L140.682 118.318L138.653 98.5381Z" fill="#1C9102"/>
<path d="M136.352 101.085L119.846 102.515L121.398 117.641L137.903 116.211L136.352 101.085Z" fill="#156503"/>
<path d="M134.858 103.171L121.738 104.308L122.971 116.331L136.091 115.194L134.858 103.171Z" fill="#1C9102"/>
<path d="M161.93 96.5215L140.346 98.3914L142.374 118.172L163.959 116.302L161.93 96.5215Z" fill="#1C9102"/>
<path d="M159.63 99.0686L143.124 100.499L144.675 115.625L161.181 114.195L159.63 99.0686Z" fill="#156503"/>
<path d="M158.136 101.154L145.016 102.291L146.249 114.314L159.369 113.178L158.136 101.154Z" fill="#1C9102"/>
<path d="M148.012 77.3801L126.427 79.2501L128.456 99.0302L150.04 97.1603L148.012 77.3801Z" fill="#1C9102"/>
<path d="M145.711 79.9272L129.205 81.3572L130.756 96.4832L147.262 95.0532L145.711 79.9272Z" fill="#156503"/>
<path d="M144.6 81.5886L131.48 82.7252L132.713 94.7484L145.833 93.6118L144.6 81.5886Z" fill="#1C9102"/>
</g>
<g clip-path="url(#clip3_4_519)">
<path d="M162.564 92.3718L134.642 94.7908L137.234 120.058L165.155 117.64L162.564 92.3718Z" fill="#6ABD50"/>
<path d="M159.584 95.6291L138.232 97.4789L140.214 116.801L161.565 114.951L159.584 95.6291Z" fill="#1C9102"/>
<path d="M157.648 98.296L140.676 99.7664L142.251 115.125L159.223 113.655L157.648 98.296Z" fill="#6ABD50"/>
<path d="M192.675 89.7631L164.754 92.1821L167.345 117.45L195.266 115.031L192.675 89.7631Z" fill="#6ABD50"/>
<path d="M189.695 93.0204L168.343 94.8702L170.325 114.193L191.677 112.343L189.695 93.0204Z" fill="#1C9102"/>
<path d="M187.759 95.6873L170.787 97.1577L172.362 112.516L189.334 111.046L187.759 95.6873Z" fill="#6ABD50"/>
<path d="M174.703 65.328L146.782 67.7469L149.373 93.0147L177.295 90.5957L174.703 65.328Z" fill="#6ABD50"/>
<path d="M171.723 68.5853L150.372 70.4351L152.353 89.7574L173.705 87.9077L171.723 68.5853Z" fill="#1C9102"/>
<path d="M170.284 70.7093L153.312 72.1797L154.887 87.5385L171.859 86.0682L170.284 70.7093Z" fill="#6ABD50"/>
</g>
<rect x="104.152" y="50.9999" width="58.4439" height="71.6936" transform="rotate(12.2011 104.152 50.9999)" fill="white" fill-opacity="0.4"/>
</g>
<rect x="1.10565" y="0.900857" width="83.726" height="49.3325" rx="19" transform="matrix(0.995659 -0.093075 0.109992 0.993932 105.906 68.0873)" stroke="#051A00" stroke-width="2"/>
<path d="M40.797 177.989C39.5731 178.67 36.9893 180.169 35.0854 181.804C35.3574 182.757 35.6974 183.779 36.1054 184.733C38.4852 190.455 41.069 192.157 44.3327 192.157C43.8568 191.34 43.4488 190.455 42.9728 189.365C41.545 185.823 40.865 181.667 40.797 177.989Z" fill="black" stroke="black" stroke-width="0.75" stroke-miterlimit="10" stroke-linecap="round" stroke-linejoin="round"/>
<path d="M51.6082 172.335C51.2682 172.335 50.9283 172.131 50.7243 171.791C50.4523 171.314 50.6563 170.701 51.1323 170.428C51.2682 170.36 64.5273 162.118 75.4745 156.26C75.9504 155.987 76.5624 156.192 76.8344 156.669C77.1064 157.145 76.9024 157.758 76.4264 158.031C65.4792 163.889 52.2202 172.063 52.0842 172.131C51.9482 172.335 51.7442 172.335 51.6082 172.335Z" fill="black" stroke="black" stroke-miterlimit="10"/>
<path d="M145.033 136.847C145.033 136.847 168.152 132.419 183.995 132.691L184.946 136.506C184.946 136.506 151.697 138.073 145.373 141.274L145.033 136.847Z" fill="black" stroke="black" stroke-width="0.75" stroke-miterlimit="10" stroke-linecap="round" stroke-linejoin="round"/>
<path d="M145.305 141.274L145.985 145.089C146.121 145.974 146.937 146.587 147.821 146.451C153.601 145.634 173.999 142.841 184.538 143.045C185.626 143.045 186.51 142.023 186.17 140.934L184.878 136.506" stroke="black" stroke-miterlimit="10" stroke-linecap="round" stroke-linejoin="round"/>
<path d="M60.9915 134.531L60.8555 118.796L61.6035 102.584C61.6035 101.903 60.7875 101.494 60.3116 102.039C57.3878 105.036 52.3562 109.6 50.9283 113.278C49.0244 118.115 46.7126 141.819 46.7126 141.819L60.9915 134.531Z" fill="black" stroke="black" stroke-width="0.75" stroke-miterlimit="10" stroke-linecap="round" stroke-linejoin="round"/>
<path d="M42.8369 147.337H40.593C39.4371 147.337 38.4852 146.383 38.4852 145.225V133.509C38.4852 132.351 39.4371 131.397 40.593 131.397H42.8369C43.9928 131.397 44.9447 132.351 44.9447 133.509V145.293C44.9447 146.383 43.9928 147.337 42.8369 147.337Z" fill="black" stroke="black" stroke-width="0.75" stroke-miterlimit="10" stroke-linecap="round" stroke-linejoin="round"/>
<path d="M44.2648 120.362C44.2648 120.362 46.1006 120.703 47.3925 121.316C48.6844 121.929 49.6364 122.951 49.6364 122.951L53.0361 118.455C53.0361 118.455 48.0725 116.343 47.1205 115.117C46.1686 113.823 46.1686 113.823 46.1686 113.823L44.2648 120.362Z" fill="white"/>
<mask id="mask4_4_519" style="mask-type:luminance" maskUnits="userSpaceOnUse" x="44" y="113" width="10" height="10">
<path d="M44.2648 120.362C44.2648 120.362 46.1006 120.703 47.3925 121.316C48.6844 121.929 49.6364 122.951 49.6364 122.951L53.0361 118.455C53.0361 118.455 48.0725 116.343 47.1205 115.117C46.1686 113.823 46.1686 113.823 46.1686 113.823L44.2648 120.362Z" fill="white"/>
</mask>
<g mask="url(#mask4_4_519)">
<path opacity="0.5" d="M47.1205 115.117C46.5766 114.368 46.3046 114.027 46.2366 113.891L46.1006 113.959L44.1968 120.362C44.1968 120.362 44.5367 120.43 45.0807 120.567L49.9083 117.025C48.8204 116.412 47.5965 115.662 47.1205 115.117Z" fill="#6ABD50"/>
</g>
<path d="M44.2648 120.362C44.2648 120.362 46.1006 120.703 47.3925 121.316C48.6844 121.929 49.6364 122.951 49.6364 122.951L53.0361 118.455C53.0361 118.455 48.0725 116.343 47.1205 115.117C46.1686 113.823 46.1686 113.823 46.1686 113.823L44.2648 120.362Z" stroke="black" stroke-width="0.75" stroke-miterlimit="10" stroke-linecap="round" stroke-linejoin="round"/>
<path d="M51.4722 116.548L47.3245 121.861L47.8685 123.7L54.192 117.093L51.4722 116.548Z" fill="#6ABD50" stroke="black" stroke-miterlimit="10" stroke-linecap="round" stroke-linejoin="round"/>
<path d="M44.8087 101.562C42.0209 99.3824 34.6775 100.745 33.2496 105.922C32.3656 109.055 32.8416 113.891 32.8416 113.891L41.205 112.12C41.409 112.461 41.6129 112.733 41.8849 113.142C43.2448 115.185 46.1686 113.823 46.9166 113.142C47.3245 112.801 47.3245 111.712 47.1885 110.826L47.5285 110.758C47.5285 110.758 47.5965 103.742 44.8087 101.562Z" fill="black" stroke="black" stroke-width="0.75" stroke-miterlimit="10" stroke-linecap="round" stroke-linejoin="round"/>
<path d="M41.6809 111.507C41.6809 111.507 36.2413 110.758 30.8017 112.529C25.3621 114.368 24.5462 115.935 28.4219 115.867C32.2976 115.799 41.6809 111.507 41.6809 111.507Z" fill="black" stroke="black" stroke-width="0.75" stroke-miterlimit="10" stroke-linecap="round" stroke-linejoin="round"/>
<path d="M35.0174 109.532C35.6558 109.532 36.1734 108.83 36.1734 107.965C36.1734 107.1 35.6558 106.398 35.0174 106.398C34.379 106.398 33.8615 107.1 33.8615 107.965C33.8615 108.83 34.379 109.532 35.0174 109.532Z" fill="#6ABD50"/>
<path d="M60.8555 118.796C60.8555 118.796 53.3761 116.888 51.1323 118.659C48.8884 120.43 48.2765 123.291 49.0244 126.765C49.7724 130.239 51.5402 139.435 51.5402 139.435L61.0595 134.531L60.8555 118.796Z" fill="black" stroke="black" stroke-width="0.75" stroke-miterlimit="10" stroke-linecap="round" stroke-linejoin="round"/>
<path d="M49.0244 138.005C49.0244 138.005 48.6164 141.547 48.1405 142.023C47.6645 142.5 35.2894 132.078 34.5415 131.125C33.7935 130.171 34.3375 126.629 34.5415 125.539C34.7455 124.449 34.4055 123.836 33.1816 124.586C31.9577 125.335 32.2976 128.468 32.2976 128.468C32.2976 128.468 28.6259 127.583 27.946 127.515C27.198 127.378 26.5861 128.332 26.722 129.013C26.858 129.762 27.81 129.762 27.81 129.762C27.81 129.762 27.402 131.602 28.0139 132.896C28.6259 134.19 29.3738 135.076 30.7337 135.348C32.0936 135.689 34.9494 135.621 34.9494 135.621C34.9494 135.621 41.273 141.683 43.1768 143.931C45.0807 146.179 48.8884 149.244 50.7923 148.699C52.6961 148.154 54.532 138.55 54.532 138.55L49.0244 138.005Z" fill="white"/>
<mask id="mask5_4_519" style="mask-type:luminance" maskUnits="userSpaceOnUse" x="26" y="124" width="29" height="25">
<path d="M49.0244 138.005C49.0244 138.005 48.6164 141.547 48.1405 142.023C47.6645 142.5 35.2894 132.078 34.5415 131.125C33.7935 130.171 34.3375 126.629 34.5415 125.539C34.7455 124.449 34.4055 123.836 33.1816 124.586C31.9577 125.335 32.2976 128.468 32.2976 128.468C32.2976 128.468 28.6259 127.583 27.946 127.515C27.198 127.378 26.5861 128.332 26.722 129.013C26.858 129.762 27.81 129.762 27.81 129.762C27.81 129.762 27.402 131.602 28.0139 132.896C28.6259 134.19 29.3738 135.076 30.7337 135.348C32.0936 135.689 34.9494 135.621 34.9494 135.621C34.9494 135.621 41.273 141.683 43.1768 143.931C45.0807 146.179 48.8884 149.244 50.7923 148.699C52.6961 148.154 54.532 138.55 54.532 138.55L49.0244 138.005Z" fill="white"/>
</mask>
<g mask="url(#mask5_4_519)">
<path opacity="0.5" d="M48.1405 142.023L51.7442 143.25C51.7442 143.25 52.2202 145.906 49.5004 146.792C47.9365 147.337 45.0127 145.497 42.9729 143.999L43.0408 144.067C44.9447 146.315 48.7524 149.38 50.6563 148.835C52.5602 148.29 54.396 138.686 54.396 138.686L48.8884 138.005C49.0244 138.005 48.6164 141.547 48.1405 142.023Z" fill="#6ABD50"/>
</g>
<path d="M49.0244 138.005C49.0244 138.005 48.6164 141.547 48.1405 142.023C47.6645 142.5 35.2894 132.078 34.5415 131.125C33.7935 130.171 34.3375 126.629 34.5415 125.539C34.7455 124.449 34.4055 123.836 33.1816 124.586C31.9577 125.335 32.2976 128.468 32.2976 128.468C32.2976 128.468 28.6259 127.583 27.946 127.515C27.198 127.378 26.5861 128.332 26.722 129.013C26.858 129.762 27.81 129.762 27.81 129.762C27.81 129.762 27.402 131.602 28.0139 132.896C28.6259 134.19 29.3738 135.076 30.7337 135.348C32.0936 135.689 34.9494 135.621 34.9494 135.621C34.9494 135.621 41.273 141.683 43.1768 143.931C45.0807 146.179 48.8884 149.244 50.7923 148.699C52.6961 148.154 54.532 138.55 54.532 138.55L49.0244 138.005Z" stroke="black" stroke-width="0.75" stroke-miterlimit="10" stroke-linecap="round" stroke-linejoin="round"/>
<path d="M36.6493 133.032L34.8814 135.757L35.7654 136.37L37.6012 133.781L36.6493 133.032Z" fill="black" stroke="black" stroke-miterlimit="10"/>
<path d="M36.0374 135.552C36.4129 135.552 36.7173 135.247 36.7173 134.871C36.7173 134.495 36.4129 134.19 36.0374 134.19C35.6618 134.19 35.3574 134.495 35.3574 134.871C35.3574 135.247 35.6618 135.552 36.0374 135.552Z" fill="white" stroke="black" stroke-width="0.75" stroke-miterlimit="10" stroke-linecap="round" stroke-linejoin="round"/>
<path d="M34.4055 114.777C34.4055 114.777 34.8135 115.799 35.4934 117.638C36.1734 119.409 39.9131 123.223 41.7489 123.496C43.5848 123.7 45.7607 117.093 46.1006 115.73C46.2366 115.254 46.3046 114.572 46.3046 114.572C46.3046 114.572 48.6164 113.483 48.0725 112.188C47.5285 110.894 46.4406 110.281 45.9646 110.69C45.4887 111.098 45.3527 112.801 44.6047 112.801C43.8568 112.801 43.4488 112.597 42.7689 111.643C42.0889 110.69 35.0854 112.529 34.4055 114.777Z" fill="white"/>
<mask id="mask6_4_519" style="mask-type:luminance" maskUnits="userSpaceOnUse" x="34" y="110" width="15" height="14">
<path d="M34.4055 114.777C34.4055 114.777 34.8135 115.799 35.4934 117.638C36.1734 119.409 39.9131 123.223 41.7489 123.496C43.5848 123.7 45.7607 117.093 46.1006 115.73C46.2366 115.254 46.3046 114.572 46.3046 114.572C46.3046 114.572 48.6164 113.483 48.0725 112.188C47.5285 110.894 46.4406 110.281 45.9646 110.69C45.4887 111.098 45.3527 112.801 44.6047 112.801C43.8568 112.801 43.4488 112.597 42.7689 111.643C42.0889 110.69 35.0854 112.529 34.4055 114.777Z" fill="white"/>
</mask>
<g mask="url(#mask6_4_519)">
<path opacity="0.5" d="M42.7689 111.575C42.0889 110.69 35.1534 112.529 34.4055 114.777C34.4055 114.777 34.5415 115.117 34.8135 115.799C36.1054 114.981 39.5731 113.142 43.3808 112.256C43.1768 112.12 42.9729 111.848 42.7689 111.575Z" fill="#6ABD50"/>
</g>
<mask id="mask7_4_519" style="mask-type:luminance" maskUnits="userSpaceOnUse" x="34" y="110" width="15" height="14">
<path d="M34.4055 114.777C34.4055 114.777 34.8135 115.799 35.4934 117.638C36.1734 119.409 39.9131 123.223 41.7489 123.496C43.5848 123.7 45.7607 117.093 46.1006 115.73C46.2366 115.254 46.3046 114.572 46.3046 114.572C46.3046 114.572 48.6164 113.483 48.0725 112.188C47.5285 110.894 46.4406 110.281 45.9646 110.69C45.4887 111.098 45.3527 112.801 44.6047 112.801C43.8568 112.801 43.4488 112.597 42.7689 111.643C42.0889 110.69 35.0854 112.529 34.4055 114.777Z" fill="white"/>
</mask>
<g mask="url(#mask7_4_519)">
<path opacity="0.5" d="M48.0045 111.916C47.4605 110.758 46.4406 110.213 45.9646 110.622C45.6927 110.826 45.5567 111.439 45.2847 111.984C46.2366 111.848 47.1205 111.848 48.0045 111.916Z" fill="#6ABD50"/>
</g>
<path d="M34.4055 114.777C34.4055 114.777 34.8135 115.799 35.4934 117.638C36.1734 119.409 39.9131 123.223 41.7489 123.496C43.5848 123.7 45.7607 117.093 46.1006 115.73C46.2366 115.254 46.3046 114.572 46.3046 114.572C46.3046 114.572 48.6164 113.483 48.0725 112.188C47.5285 110.894 46.4406 110.281 45.9646 110.69C45.4887 111.098 45.3527 112.801 44.6047 112.801C43.8568 112.801 43.4488 112.597 42.7689 111.643C42.0889 110.69 35.0854 112.529 34.4055 114.777Z" stroke="black" stroke-width="0.75" stroke-miterlimit="10" stroke-linecap="round" stroke-linejoin="round"/>
<path d="M36.8533 115.254C36.9893 115.662 36.9213 116.071 36.7853 116.071C36.6493 116.139 36.3773 115.799 36.2413 115.39C36.1054 114.981 36.1734 114.572 36.3093 114.572C36.5133 114.572 36.7173 114.845 36.8533 115.254Z" fill="black" stroke="black" stroke-miterlimit="10"/>
<path d="M35.6294 114.096C36.5813 113.823 36.9893 114.572 37.1253 115.186L37.3293 116.003L37.9412 119L38.8252 118.591" stroke="black" stroke-width="0.5" stroke-miterlimit="10" stroke-linecap="round" stroke-linejoin="round"/>
<path d="M39.4371 114.368C39.4371 114.368 39.9811 113.687 41.069 113.755" stroke="black" stroke-width="0.5" stroke-miterlimit="10" stroke-linecap="round" stroke-linejoin="round"/>
<path d="M40.2531 112.461C40.2531 112.461 38.8932 112.665 38.6892 114.027" stroke="black" stroke-width="0.5" stroke-miterlimit="10" stroke-linecap="round" stroke-linejoin="round"/>
<path d="M39.5731 119.613C39.5731 119.613 41.545 119.204 41.6809 117.774" stroke="black" stroke-width="0.5" stroke-miterlimit="10" stroke-linecap="round" stroke-linejoin="round"/>
<path d="M56.2999 143.113L46.3046 140.321C46.3046 140.321 47.1885 123.291 48.7524 120.43C51.1323 115.935 56.6399 117.978 57.6598 123.564C58.6117 128.877 56.2999 143.113 56.2999 143.113Z" fill="#6ABD50" stroke="black" stroke-miterlimit="10" stroke-linecap="round" stroke-linejoin="round"/>
<path d="M46.5766 138.413C46.5766 138.413 52.0162 139.639 55.3479 140.729" stroke="black" stroke-width="0.5" stroke-miterlimit="10" stroke-linecap="round" stroke-linejoin="round"/>
<path d="M55.144 117.433C55.144 117.433 58.4077 117.706 60.5156 119.409" stroke="#6ABD50" stroke-width="0.5" stroke-miterlimit="10" stroke-linecap="round" stroke-linejoin="round"/>
<path d="M112.192 160.96C112.192 160.96 97.7088 166.069 96.3489 167.499C94.989 168.861 95.125 174.311 98.2528 176.967C101.381 179.624 123.683 173.63 139.594 171.859C155.505 170.088 190.522 167.567 204.733 166.818C219.012 166.137 225.539 167.976 226.763 163.548C227.987 159.121 227.919 154.353 225.132 153.399C222.548 152.445 173.047 144.476 112.192 160.96Z" fill="black" stroke="black" stroke-width="0.75" stroke-miterlimit="10" stroke-linecap="round" stroke-linejoin="round"/>
<path d="M95.329 170.496C95.329 170.496 96.009 176.422 99.6127 177.308C103.216 178.193 146.325 170.019 171.687 169.134C197.05 168.248 219.284 167.567 219.284 167.567" stroke="white" stroke-width="0.5" stroke-miterlimit="10" stroke-linecap="round" stroke-linejoin="round"/>
<path d="M116.407 173.493C133.27 169.406 167.88 163.617 226.151 165.251" stroke="white" stroke-width="0.5" stroke-miterlimit="10" stroke-linecap="round" stroke-linejoin="round"/>
<path d="M102.604 177.104C102.604 177.104 106.48 176.15 112.328 174.583" stroke="white" stroke-width="0.5" stroke-miterlimit="10" stroke-linecap="round" stroke-linejoin="round"/>
<path d="M106.14 177.785C106.14 177.785 106.48 181.327 105.936 185.346" stroke="white" stroke-width="0.5" stroke-miterlimit="10" stroke-linecap="round" stroke-linejoin="round"/>
<path d="M105.528 68.798C105.528 68.798 102.265 72.6125 102.061 76.0184" stroke="black" stroke-width="0.75" stroke-miterlimit="10" stroke-linecap="round" stroke-linejoin="round"/>
<path d="M101.721 78.8111C101.721 78.8111 99.2727 117.706 105.732 159.121" stroke="black" stroke-width="0.75" stroke-miterlimit="10" stroke-linecap="round" stroke-linejoin="round"/>
<path d="M102.468 123.768C102.468 123.768 97.1649 125.607 97.1649 127.991C96.9609 134.394 97.6408 148.086 99.0687 149.38C100.429 150.742 104.78 147.2 104.78 147.2C104.78 147.2 110.9 147.745 111.58 146.383C112.26 145.021 109.676 125.675 109.336 123.973C108.86 122.202 102.468 123.768 102.468 123.768Z" fill="#6ABD50" stroke="black" stroke-miterlimit="10" stroke-linecap="round" stroke-linejoin="round"/>
<path d="M212.552 132.964C213.776 133.645 215.544 133.986 216.972 134.122C215.272 127.787 213.368 120.703 211.397 113.619C209.629 113.483 207.317 113.483 207.385 114.3C207.317 115.73 210.785 132.01 212.552 132.964Z" fill="#6ABD50" stroke="black" stroke-miterlimit="10" stroke-linecap="round" stroke-linejoin="round"/>
<path d="M101.721 125.744C101.721 125.744 101.925 138.005 102.876 142.773" stroke="black" stroke-width="0.75" stroke-miterlimit="10" stroke-linecap="round" stroke-linejoin="round"/>
<path d="M165.228 128.604C165.228 128.604 195.554 123.7 230.911 129.967" stroke="black" stroke-miterlimit="10" stroke-linecap="round" stroke-linejoin="round"/>
<path d="M257.633 147.813C259.741 148.426 261.781 149.108 263.753 149.789" stroke="black" stroke-miterlimit="10" stroke-linecap="round" stroke-linejoin="round"/>
<path d="M203.169 138.549C203.169 138.549 227.239 139.98 250.29 145.77" stroke="black" stroke-miterlimit="10" stroke-linecap="round" stroke-linejoin="round"/>
<path d="M129.938 194.678C129.938 194.678 157.68 189.705 189.774 193.588" stroke="black" stroke-miterlimit="10" stroke-linecap="round" stroke-linejoin="round"/>
<path d="M127.423 191.476C127.423 191.476 141.634 189.705 146.325 189.365" stroke="black" stroke-miterlimit="10" stroke-linecap="round" stroke-linejoin="round"/>
<path d="M222.82 59.1254C224.86 59.3978 226.899 59.8065 228.735 60.2833" stroke="black" stroke-miterlimit="10" stroke-linecap="round" stroke-linejoin="round"/>
<path d="M193.514 58.5123C193.514 58.5123 206.297 57.4905 218.672 58.6485" stroke="black" stroke-miterlimit="10" stroke-linecap="round" stroke-linejoin="round"/>
<path d="M95 141C95 141 110.543 131.586 133 129" stroke="black" stroke-miterlimit="10" stroke-linecap="round" stroke-linejoin="round"/>
<path d="M117.971 123.291C117.971 123.291 130.278 120.09 148.977 119" stroke="black" stroke-miterlimit="10" stroke-linecap="round" stroke-linejoin="round"/>
<path d="M83.4299 191.408C83.4299 191.408 86.4897 197.879 94.6491 200.944" stroke="black" stroke-miterlimit="10" stroke-linecap="round" stroke-linejoin="round"/>
<path d="M82.7499 194.473C82.7499 194.473 85.8097 199.242 89.8894 201.285" stroke="black" stroke-miterlimit="10" stroke-linecap="round" stroke-linejoin="round"/>
<path d="M183.043 177.444C183.043 177.444 185.082 186.981 193.242 191.068" stroke="black" stroke-miterlimit="10" stroke-linecap="round" stroke-linejoin="round"/>
<path d="M184.063 185.959C184.063 185.959 186.442 189.705 190.522 191.408" stroke="black" stroke-miterlimit="10" stroke-linecap="round" stroke-linejoin="round"/>
<path d="M49.5684 204.282C49.5684 204.282 51.6082 207.688 58.7477 207.688" stroke="black" stroke-miterlimit="10" stroke-linecap="round" stroke-linejoin="round"/>
<path d="M48.2085 206.326C48.2085 206.326 51.9482 209.732 57.3878 210.072" stroke="black" stroke-miterlimit="10" stroke-linecap="round" stroke-linejoin="round"/>
<path d="M140.138 197.947C121.099 199.037 103.012 201.83 86.5577 205.985L86.9656 206.598C86.9656 206.598 101.925 203.397 129.599 210.208C157.272 217.02 159.04 222.469 189.434 222.469C219.828 222.469 249.27 215.181 249.27 215.181C249.27 215.181 247.91 214.432 245.598 213.137C218.332 201.626 180.935 195.631 140.138 197.947Z" fill="#6ABD50"/>
<path opacity="0.5" d="M140.138 197.947C121.099 199.037 103.012 201.83 86.5577 205.985L86.9656 206.598C86.9656 206.598 101.925 203.397 129.599 210.208C157.272 217.02 159.04 222.469 189.434 222.469C219.828 222.469 249.27 215.181 249.27 215.181C249.27 215.181 247.91 214.432 245.598 213.137C218.332 201.626 180.935 195.631 140.138 197.947Z" fill="white"/>
<path d="M73.5706 213.546C73.5706 213.546 109.268 208.097 140.206 228.872" stroke="black" stroke-miterlimit="10" stroke-linecap="round" stroke-linejoin="round"/>
<path d="M110.968 221.38C110.968 221.38 125.587 225.807 134.426 235.343" stroke="black" stroke-miterlimit="10" stroke-linecap="round" stroke-linejoin="round"/>
<path d="M197.322 204.01C197.322 204.01 218.06 206.053 236.759 217.293" stroke="black" stroke-miterlimit="10" stroke-linecap="round" stroke-linejoin="round"/>
<path d="M262.053 221.584C265.997 223.968 269.532 226.556 272.66 229.281" stroke="black" stroke-miterlimit="10" stroke-linecap="round" stroke-linejoin="round"/>
<path d="M18.7666 237.659C43.5168 216.543 88.3255 200.876 140.138 197.947C187.462 195.291 230.095 203.737 257.769 219.064" stroke="black" stroke-miterlimit="10" stroke-linecap="round" stroke-linejoin="round"/>
<path d="M169.784 203.669C169.784 203.669 191.202 204.691 205.481 209.459" stroke="black" stroke-miterlimit="10" stroke-linecap="round" stroke-linejoin="round"/>
<path d="M72.6867 41.9599C72.6867 41.9599 72.0067 32.5598 58.2717 32.2192C44.4687 31.8786 48.2085 41.6193 44.4687 44.0034C40.797 46.3875 39.7771 42.6411 36.0374 45.0252C32.3656 47.4093 33.9975 52.1093 31.0057 52.7905C28.0139 53.4717 23.9342 49.7934 20.2625 52.1093C16.5908 54.4253 16.5908 56.4688 14.8909 56.4688C13.191 56.4688 9.85928 55.1065 7.81942 56.4688C5.77957 57.8311 3.46774 59.4659 3.46774 59.4659H88.4615C88.4615 59.4659 89.4814 56.4688 85.7417 54.4253C82.07 52.3818 80.3701 54.0847 79.0102 52.3818C77.7183 50.6789 82.7499 46.3194 72.6867 41.9599Z" fill="#6ABD50"/>
<path d="M123.207 5.85807C123.207 5.85807 122.799 0.20438 114.504 2.95239e-05C106.208 -0.204321 108.452 5.65372 106.208 7.08417C103.964 8.51463 103.352 6.26677 101.177 7.69723C98.9328 9.12768 99.9527 11.9205 98.1168 12.3292C96.281 12.7379 93.9011 10.49 91.6573 11.9205C89.4135 13.3509 89.4135 14.577 88.3935 14.577C87.3736 14.577 85.3338 13.7596 84.1778 14.577C82.9539 15.3944 81.526 16.4162 81.526 16.4162H132.658C132.658 16.4162 133.27 14.577 131.026 13.3509C128.783 12.1248 127.763 13.1466 127.015 12.1248C126.199 11.1712 129.259 8.51463 123.207 5.85807Z" fill="#6ABD50"/>
<path opacity="0.7" d="M72.6867 41.9599C72.6867 41.9599 72.0067 32.5598 58.2717 32.2192C44.4687 31.8786 48.2085 41.6193 44.4687 44.0034C40.797 46.3875 39.7771 42.6411 36.0374 45.0252C32.3656 47.4093 33.9975 52.1093 31.0057 52.7905C28.0139 53.4717 23.9342 49.7934 20.2625 52.1093C16.5908 54.4253 16.5908 56.4688 14.8909 56.4688C13.191 56.4688 9.85928 55.1065 7.81942 56.4688C5.77957 57.8311 3.46774 59.4659 3.46774 59.4659H88.4615C88.4615 59.4659 89.4814 56.4688 85.7417 54.4253C82.07 52.3818 80.3701 54.0847 79.0102 52.3818C77.7183 50.6789 82.7499 46.3194 72.6867 41.9599Z" fill="white"/>
<path opacity="0.8" d="M123.207 5.85807C123.207 5.85807 122.799 0.20438 114.504 2.95239e-05C106.208 -0.204321 108.452 5.65372 106.208 7.08417C103.964 8.51463 103.352 6.26677 101.177 7.69723C98.9328 9.12768 99.9527 11.9205 98.1168 12.3292C96.281 12.7379 93.9011 10.49 91.6573 11.9205C89.4135 13.3509 89.4135 14.577 88.3935 14.577C87.3736 14.577 85.3338 13.7596 84.1778 14.577C82.9539 15.3944 81.526 16.4162 81.526 16.4162H132.658C132.658 16.4162 133.27 14.577 131.026 13.3509C128.783 12.1248 127.763 13.1466 127.015 12.1248C126.199 11.1712 129.259 8.51463 123.207 5.85807Z" fill="white"/>
<g opacity="0.88">
<path fill-rule="evenodd" clip-rule="evenodd" d="M81.981 136.198L69.5938 117.684C69.0134 116.817 68.8147 115.297 69.1503 114.292L76.9888 91.4365L90.4415 111.527C91.0218 112.394 91.2205 113.914 90.8849 114.919L83.6617 135.978C83.3237 136.965 82.5706 137.063 81.981 136.198Z" fill="url(#paint0_radial_4_519)"/>
<path fill-rule="evenodd" clip-rule="evenodd" d="M84.8823 121.02C82.8067 121.291 80.6825 118.119 80.1349 113.93L77.7555 95.7288L80.9126 100.444L82.633 113.604C82.8147 114.994 83.5228 116.051 84.2116 115.961C84.9004 115.871 85.3128 114.667 85.1311 113.277L84.4744 108.254L87.6316 112.969C88.1884 117.157 86.9487 120.75 84.8823 121.02ZM76.9564 122.056C79.032 121.785 80.2693 118.173 79.7216 113.984L77.3422 95.7828L75.5032 101.151L77.2236 114.311C77.4053 115.701 76.9929 116.905 76.3041 116.995C75.6153 117.085 74.9072 116.028 74.7255 114.637L74.0688 109.614L72.2207 114.984C72.7683 119.173 74.89 122.326 76.9564 122.056Z" fill="white"/>
</g>
<path fill-rule="evenodd" clip-rule="evenodd" d="M54.5227 162.065C54.7104 162.396 55.1275 162.509 55.461 162.319C55.7946 162.13 55.9113 161.714 55.7236 161.383L54.0294 158.399C53.8417 158.069 53.4247 157.956 53.0911 158.145C52.7576 158.335 52.6409 158.751 52.8286 159.081L54.5227 162.065ZM58.5339 159.788C58.7216 160.118 59.1386 160.231 59.4722 160.042C59.8058 159.853 59.9224 159.437 59.7347 159.106L58.0406 156.122C57.8529 155.791 57.4358 155.679 57.1023 155.868C56.7687 156.057 56.652 156.473 56.8397 156.804L58.5339 159.788ZM56.4265 154.678C57.4272 154.109 58.683 154.457 59.2414 155.44L60.9356 158.424C61.4987 159.416 61.1403 160.669 60.148 161.232C59.1473 161.8 57.8915 161.453 57.333 160.47L55.6389 157.486C55.0804 156.502 55.4341 155.241 56.4265 154.678ZM52.4153 156.955C53.416 156.387 54.6718 156.734 55.2303 157.718L56.9244 160.702C57.4876 161.693 57.1292 162.946 56.1368 163.51C55.1361 164.078 53.8804 163.731 53.3219 162.747L51.6278 159.763C51.0693 158.779 51.423 157.518 52.4153 156.955Z" fill="url(#paint1_radial_4_519)"/>
<path opacity="0.88" fill-rule="evenodd" clip-rule="evenodd" d="M52.1302 165.795C51.1295 166.363 49.8737 166.016 49.3152 165.033L46.6027 160.255L48.4793 160.764L50.5114 164.343C50.6991 164.673 51.1161 164.786 51.4497 164.597C51.7833 164.407 51.8999 163.991 51.7122 163.661L51.0364 162.471L52.9131 162.979C53.4845 163.966 53.1309 165.227 52.1302 165.795ZM75.9969 152.245L72.8949 146.781L74.6025 146.992L77.1977 151.563L75.9969 152.245ZM68.94 149.158L68.2596 147.959L70.6696 146.591L71.8704 145.909L72.5462 147.099L71.3454 147.781L74.3911 153.146L73.1902 153.827L70.1445 148.463L68.9353 149.149L68.94 149.158ZM70.5671 152.956C71.1302 153.948 70.7719 155.2 69.7795 155.764C68.7788 156.332 67.523 155.985 66.9646 155.001L66.7393 154.604L67.9401 153.923L68.1654 154.319C68.3531 154.65 68.7701 154.763 69.1037 154.574C69.4373 154.384 69.554 153.968 69.3662 153.638L68.9486 152.902C68.8688 152.761 68.6863 152.712 68.5446 152.792L67.6023 153.327C66.9435 153.701 66.0964 153.472 65.7256 152.819C65.5004 152.422 65.5004 152.422 65.2751 152.025C64.712 151.034 65.0703 149.781 66.0627 149.217C67.0634 148.649 68.3192 148.996 68.8776 149.98L69.1029 150.377L67.9021 151.059L67.6768 150.662C67.4891 150.331 67.072 150.218 66.7385 150.408C66.4049 150.597 66.2882 151.013 66.476 151.344L66.7341 151.798C66.842 151.988 67.0766 152.052 67.2684 151.943L68.094 151.474C68.7778 151.086 69.6509 151.323 70.0357 152C70.2433 152.385 70.3512 152.575 70.5671 152.956ZM67.5743 157.027L64.4723 151.563L63.7783 153.138L66.3735 157.709L67.5743 157.027ZM60.4374 152.4C61.4381 151.832 62.6939 152.179 63.2523 153.163L63.7029 153.956L62.502 154.638L62.0515 153.845C61.8638 153.514 61.4468 153.401 61.1132 153.591C60.7796 153.78 60.6629 154.196 60.8507 154.527L62.5448 157.51C62.7325 157.841 63.1495 157.954 63.4831 157.765C63.8167 157.575 63.9334 157.159 63.7456 156.829L63.312 157.075L62.6362 155.885L63.0699 155.638L64.1957 154.999L64.279 154.952L64.5043 155.349L64.9548 156.142L65.9685 157.928L65.4434 159.8L64.7066 158.502C64.5524 158.677 64.371 158.824 64.1625 158.942C63.1618 159.51 61.9061 159.163 61.3476 158.179L59.6535 155.195C59.0914 154.225 59.4451 152.964 60.4374 152.4Z" fill="black"/>
<path fill-rule="evenodd" clip-rule="evenodd" d="M62.9896 151.749C62.8019 151.418 62.9186 151.002 63.2522 150.813C63.5857 150.623 64.0027 150.736 64.1905 151.067C64.3782 151.398 64.2615 151.814 63.9279 152.003C63.5944 152.192 63.1727 152.071 62.9896 151.749Z" fill="#6ABD50"/>
<path fill-rule="evenodd" clip-rule="evenodd" d="M72.6131 146.285C72.4254 145.954 72.5421 145.538 72.8757 145.349C73.2092 145.159 73.6263 145.272 73.814 145.603C74.0017 145.934 73.885 146.35 73.5514 146.539C73.2262 146.724 72.7962 146.607 72.6131 146.285Z" fill="#6ABD50"/>
</g>
<defs>
<radialGradient id="paint0_radial_4_519" cx="0" cy="0" r="1" gradientUnits="userSpaceOnUse" gradientTransform="translate(84.5625 101.553) rotate(59.6266) scale(12.5863 9.11495)">
<stop stop-color="#1C9102"/>
<stop offset="1" stop-color="#6ABD50"/>
</radialGradient>
<radialGradient id="paint1_radial_4_519" cx="0" cy="0" r="1" gradientUnits="userSpaceOnUse" gradientTransform="translate(57.4629 156.191) rotate(-74.1865) scale(5.41099 5.46058)">
<stop stop-color="#1C9102"/>
<stop offset="1" stop-color="#6ABD50"/>
</radialGradient>
<clipPath id="clip0_4_519">
<rect width="273" height="238" fill="white"/>
</clipPath>
<clipPath id="clip1_4_519">
<rect width="85.726" height="51.3325" rx="20" transform="matrix(0.995659 -0.093075 0.109992 0.993932 106 67.9789)" fill="white"/>
</clipPath>
<clipPath id="clip2_4_519">
<rect width="45.03" height="40.5476" fill="white" transform="matrix(0.996268 -0.0863108 0.102023 0.994782 115 80.2401)"/>
</clipPath>
<clipPath id="clip3_4_519">
<rect width="58.2502" height="51.7966" fill="white" transform="matrix(0.996268 -0.0863108 0.102023 0.994782 132 69.0276)"/>
</clipPath>
</defs>
</svg>
