<svg width="240" height="155" viewBox="0 0 240 155" fill="none" xmlns="http://www.w3.org/2000/svg">
<path d="M186.532 86.5004C186.532 86.4323 186.532 86.4323 186.532 86.5004C180.957 84.5931 172.457 85.2062 171.233 86.0236C169.873 86.841 168.785 88.1352 167.834 89.4294C165.114 93.0396 162.87 98.0802 161.51 103.53L101.13 109.115C98.8866 104.279 95.5548 99.9875 92.2231 97.3991C91.2031 96.6498 90.1832 95.9005 88.9593 95.628C88.6873 95.5599 88.1434 95.5599 87.3954 95.6961C85.2196 89.3613 82.0918 83.2308 78.2161 82.8221C70.0567 82.0047 55.8457 84.7293 51.902 92.699C48.0263 100.601 46.8024 120.423 46.8024 120.423L44.0826 123.147C41.9067 118.992 38.915 115.382 35.9912 113.134C34.9712 112.385 33.9513 111.635 32.7274 111.363C32.0475 111.159 29.3277 111.567 26.4719 112.521C26.3359 112.385 26.2679 112.317 26.1319 112.18C23.4121 109.864 17.8365 108.638 14.7087 114.496C11.581 120.286 15.3207 131.321 17.2245 133.842C18.7204 135.817 20.0803 136.771 20.5563 137.043C22.7321 142.492 26.6759 149.44 32.7274 149.781C36.8751 149.985 41.0228 148.419 43.8786 145.353C47.8223 141.266 48.2303 135.544 46.7344 129.891L47.3463 128.937C47.3463 128.937 48.7742 130.912 54.1458 130.163C56.2537 129.823 57.5456 129.141 58.4295 128.392C60.9453 134.863 65.025 141.334 71.5526 142.288C77.1962 143.174 82.9757 141.539 87.2594 137.792C88.5513 136.702 89.6392 135.408 90.5232 134.114C94.1269 133.91 97.5947 132.343 100.11 129.686C102.49 127.166 103.578 124.101 103.714 120.763L111.738 119.809C111.738 119.809 118.945 123.352 127.784 122.807C136.624 122.262 141.927 116.676 141.927 116.676L160.218 115.109C160.558 122.194 163.074 128.733 169.057 132.343C173.681 135.136 179.325 135.681 184.424 133.978C192.856 131.117 194.896 118.583 195.372 110.954C196.255 98.6252 192.38 88.2714 186.532 86.5004Z" fill="black"/>
<path d="M186.532 86.5004C186.532 86.4323 186.532 86.4323 186.532 86.5004ZM186.532 86.5004C180.957 84.5931 172.457 85.2062 171.233 86.0236C169.873 86.841 168.785 88.1352 167.834 89.4294C165.114 93.0396 162.87 98.0802 161.51 103.53L101.13 109.115C98.8866 104.279 95.5548 99.9875 92.2231 97.3991C91.2031 96.6498 90.1832 95.9005 88.9593 95.628C88.6873 95.5599 88.1434 95.5599 87.3954 95.6961C85.2196 89.3613 82.0918 83.2308 78.2161 82.8221C70.0567 82.0047 55.8457 84.7293 51.902 92.699C48.0263 100.601 46.8024 120.423 46.8024 120.423L44.0826 123.147C41.9067 118.992 38.915 115.382 35.9912 113.134C34.9712 112.385 33.9513 111.635 32.7274 111.363C32.0475 111.159 29.3277 111.567 26.4719 112.521C26.3359 112.385 26.2679 112.317 26.1319 112.18C23.4121 109.864 17.8365 108.638 14.7087 114.496C11.581 120.286 15.3207 131.321 17.2245 133.842C18.7204 135.817 20.0803 136.771 20.5563 137.043C22.7321 142.492 26.6759 149.44 32.7274 149.781C36.8751 149.985 41.0228 148.419 43.8786 145.353C47.8223 141.266 48.2303 135.544 46.7344 129.891L47.3463 128.937C47.3463 128.937 48.7742 130.912 54.1458 130.163C56.2537 129.823 57.5456 129.141 58.4295 128.392C60.9453 134.863 65.025 141.334 71.5526 142.288C77.1962 143.174 82.9757 141.539 87.2594 137.792C88.5513 136.702 89.6392 135.408 90.5232 134.114C94.1269 133.91 97.5947 132.343 100.11 129.686C102.49 127.166 103.578 124.101 103.714 120.763L111.738 119.809C111.738 119.809 118.945 123.352 127.784 122.807C136.624 122.262 141.927 116.676 141.927 116.676L160.218 115.109C160.558 122.194 163.074 128.733 169.057 132.343C173.681 135.136 179.325 135.681 184.424 133.978C192.856 131.117 194.896 118.583 195.372 110.954C196.255 98.6252 192.38 88.2714 186.532 86.5004Z" stroke="black" stroke-width="0.75" stroke-miterlimit="10" stroke-linecap="round" stroke-linejoin="round"/>
<path d="M74.8162 138.269C74.0683 139.155 73.2523 139.904 72.2324 140.381" stroke="white" stroke-width="0.5" stroke-miterlimit="10" stroke-linecap="round" stroke-linejoin="round"/>
<path d="M78.0801 122.125C78.0801 122.125 78.8961 130.981 75.9043 136.566" stroke="white" stroke-width="0.5" stroke-miterlimit="10" stroke-linecap="round" stroke-linejoin="round"/>
<path d="M80.4597 131.866C79.7118 135.272 78.1479 138.542 75.2241 140.04" stroke="white" stroke-width="0.5" stroke-miterlimit="10" stroke-linecap="round" stroke-linejoin="round"/>
<path d="M84.1998 121.444C84.1998 121.444 85.5596 136.158 78.2842 139.7" stroke="white" stroke-width="0.5" stroke-miterlimit="10" stroke-linecap="round" stroke-linejoin="round"/>
<path d="M87.1914 121.104C87.1914 121.104 88.5513 135.817 81.2759 139.359" stroke="white" stroke-width="0.5" stroke-miterlimit="10" stroke-linecap="round" stroke-linejoin="round"/>
<path d="M178.985 131.389C178.169 132.411 177.217 133.229 176.129 133.842" stroke="white" stroke-width="0.5" stroke-miterlimit="10" stroke-linecap="round" stroke-linejoin="round"/>
<path d="M184.424 112.998C184.424 112.998 184.016 123.079 180.276 129.482" stroke="white" stroke-width="0.5" stroke-miterlimit="10" stroke-linecap="round" stroke-linejoin="round"/>
<path d="M185.376 124.169C184.152 128.052 182.18 131.798 179.121 133.433" stroke="white" stroke-width="0.5" stroke-miterlimit="10" stroke-linecap="round" stroke-linejoin="round"/>
<path d="M190.476 112.249C190.476 112.249 189.728 129.005 182.181 133.024" stroke="white" stroke-width="0.5" stroke-miterlimit="10" stroke-linecap="round" stroke-linejoin="round"/>
<path d="M193.468 111.908C193.468 111.908 192.72 128.665 185.172 132.684" stroke="white" stroke-width="0.5" stroke-miterlimit="10" stroke-linecap="round" stroke-linejoin="round"/>
<path d="M34.631 147.329C34.0871 148.214 33.3391 148.964 32.3872 149.509" stroke="white" stroke-width="0.5" stroke-miterlimit="10" stroke-linecap="round" stroke-linejoin="round"/>
<path d="M35.7188 133.024C35.7188 133.024 37.6226 140.517 35.4468 145.762" stroke="white" stroke-width="0.5" stroke-miterlimit="10" stroke-linecap="round" stroke-linejoin="round"/>
<path d="M39.2549 141.062C38.9829 144.127 37.895 147.124 35.2432 148.827" stroke="white" stroke-width="0.5" stroke-miterlimit="10" stroke-linecap="round" stroke-linejoin="round"/>
<path d="M41.4304 131.594C41.4304 131.594 44.6262 144.059 38.0986 148.146" stroke="white" stroke-width="0.5" stroke-miterlimit="10" stroke-linecap="round" stroke-linejoin="round"/>
<path d="M44.2863 130.844C44.2863 130.844 47.4821 143.242 40.9546 147.397" stroke="white" stroke-width="0.5" stroke-miterlimit="10" stroke-linecap="round" stroke-linejoin="round"/>
<path d="M67.7449 117.017C69.3768 126.281 68.3569 134.182 65.5011 134.727C62.6453 135.204 59.0416 128.12 57.4097 118.856C55.7778 109.592 56.7977 101.69 59.6535 101.146C62.5093 100.669 66.113 107.753 67.7449 117.017Z" fill="#6ABD50" stroke="black" stroke-miterlimit="10" stroke-linecap="round" stroke-linejoin="round"/>
<path d="M66.3172 117.221C66.7932 120.763 66.3172 123.76 65.3653 123.896C64.4133 124.033 63.2574 121.24 62.7815 117.698C62.3055 114.156 62.7814 111.159 63.7334 111.022C64.6853 110.886 65.8412 113.679 66.3172 117.221Z" fill="#6ABD50" stroke="black" stroke-miterlimit="10" stroke-linecap="round" stroke-linejoin="round"/>
<path d="M59.5176 108.774C59.6536 107.344 59.8576 106.186 60.0615 105.232" stroke="black" stroke-width="0.75" stroke-miterlimit="10" stroke-linecap="round" stroke-linejoin="round"/>
<path d="M64.0053 131.389C62.6454 128.664 60.8775 124.373 59.9936 119.469C59.4496 116.199 59.2456 113.134 59.3816 110.545" stroke="black" stroke-width="0.75" stroke-miterlimit="10" stroke-linecap="round" stroke-linejoin="round"/>
<path d="M27.7031 144.634C29.7659 144.061 29.9425 138.189 28.0976 131.519C26.2527 124.848 23.0849 119.904 21.0221 120.477C18.9593 121.049 18.7827 126.921 20.6276 133.592C22.4725 140.263 25.6403 145.206 27.7031 144.634Z" fill="#6ABD50" stroke="black" stroke-miterlimit="10" stroke-linecap="round" stroke-linejoin="round"/>
<path d="M27.4236 131.73C28.0356 134.25 28.0356 136.43 27.3557 136.634C26.6757 136.839 25.5878 134.931 24.9078 132.343C24.2959 129.823 24.2959 127.643 24.9758 127.439C25.7238 127.302 26.8117 129.21 27.4236 131.73Z" stroke="black" stroke-width="0.75" stroke-miterlimit="10" stroke-linecap="round" stroke-linejoin="round"/>
<path d="M21.7122 126.212C21.6443 125.191 21.7122 124.305 21.7802 123.624" stroke="black" stroke-width="0.75" stroke-miterlimit="10" stroke-linecap="round" stroke-linejoin="round"/>
<path d="M27.0158 142.22C25.7919 140.381 24.092 137.452 23.0721 133.91C22.3921 131.594 21.9841 129.414 21.8481 127.507" stroke="black" stroke-width="0.75" stroke-miterlimit="10" stroke-linecap="round" stroke-linejoin="round"/>
<path d="M173.477 17.7024C166.338 2.92108 163.21 1.62686 158.45 1.3544C153.691 1.15005 142.403 -0.280407 129.892 1.69498C129.892 1.69498 94.9429 1.08193 67.8809 17.4981C39.595 34.6635 25.86 49.7173 23.9561 57.5507C22.0522 65.3842 15.4567 85.683 12.329 97.3309C9.20119 108.979 7.09334 119.265 11.0371 128.733C13.4169 134.455 16.0007 136.157 19.2644 136.157C18.7885 135.34 18.3805 134.455 17.9045 133.365C14.6408 125.259 15.0488 113.679 18.7885 112.93C22.5282 112.18 24.772 119.946 27.0159 128.392C27.7638 131.185 28.3758 132.82 28.8517 133.842C34.4273 131.73 43.3347 127.03 55.1658 122.125C54.4179 116.949 53.6699 108.911 55.0978 99.715C56.8657 88.067 64.2772 85.5467 67.4729 92.5628C70.1247 98.4208 71.1447 111.431 71.4166 115.859C76.1763 114.224 80.188 113.134 82.6358 112.998C82.6358 112.998 123.229 103.802 153.147 103.053C183.064 102.303 198.023 101.622 198.023 101.622C198.023 101.622 180.617 32.4838 173.477 17.7024Z" fill="white"/>
<mask id="mask0_536_674" style="mask-type:luminance" maskUnits="userSpaceOnUse" x="8" y="0" width="191" height="137">
<path d="M173.477 17.7024C166.338 2.92108 163.21 1.62686 158.45 1.3544C153.691 1.15005 142.403 -0.280407 129.892 1.69498C129.892 1.69498 94.9429 1.08193 67.8809 17.4981C39.595 34.6635 25.86 49.7173 23.9561 57.5507C22.0522 65.3842 15.4567 85.683 12.329 97.3309C9.20119 108.979 7.09334 119.265 11.0371 128.733C13.4169 134.455 16.0007 136.157 19.2644 136.157C18.7885 135.34 18.3805 134.455 17.9045 133.365C14.6408 125.259 15.0488 113.679 18.7885 112.93C22.5282 112.18 24.772 119.946 27.0159 128.392C27.7638 131.185 28.3758 132.82 28.8517 133.842C34.4273 131.73 43.3347 127.03 55.1658 122.125C54.4179 116.949 53.6699 108.911 55.0978 99.715C56.8657 88.067 64.2772 85.5467 67.4729 92.5628C70.1247 98.4208 71.1447 111.431 71.4166 115.859C76.1763 114.224 80.188 113.134 82.6358 112.998C82.6358 112.998 123.229 103.802 153.147 103.053C183.064 102.303 198.023 101.622 198.023 101.622C198.023 101.622 180.617 32.4838 173.477 17.7024Z" fill="white"/>
</mask>
<g mask="url(#mask0_536_674)">
<path d="M77.876 89.2251C77.876 89.2251 73.7963 94.8788 68.7646 96.1049C70.5325 102.576 71.2805 112.249 71.4844 115.859C75.7001 114.428 79.3719 113.338 81.8197 113.066C82.1597 110.954 82.4317 109.592 82.4317 109.592L77.876 89.2251Z" fill="#6ABD50"/>
</g>
<mask id="mask1_536_674" style="mask-type:luminance" maskUnits="userSpaceOnUse" x="8" y="0" width="191" height="137">
<path d="M173.477 17.7024C166.338 2.92108 163.21 1.62686 158.45 1.3544C153.691 1.15005 142.403 -0.280407 129.892 1.69498C129.892 1.69498 94.9429 1.08193 67.8809 17.4981C39.595 34.6635 25.86 49.7173 23.9561 57.5507C22.0522 65.3842 15.4567 85.683 12.329 97.3309C9.20119 108.979 7.09334 119.265 11.0371 128.733C13.4169 134.455 16.0007 136.157 19.2644 136.157C18.7885 135.34 18.3805 134.455 17.9045 133.365C14.6408 125.259 15.0488 113.679 18.7885 112.93C22.5282 112.18 24.772 119.946 27.0159 128.392C27.7638 131.185 28.3758 132.82 28.8517 133.842C34.4273 131.73 43.3347 127.03 55.1658 122.125C54.4179 116.949 53.6699 108.911 55.0978 99.715C56.8657 88.067 64.2772 85.5467 67.4729 92.5628C70.1247 98.4208 71.1447 111.431 71.4166 115.859C76.1763 114.224 80.188 113.134 82.6358 112.998C82.6358 112.998 123.229 103.802 153.147 103.053C183.064 102.303 198.023 101.622 198.023 101.622C198.023 101.622 180.617 32.4838 173.477 17.7024Z" fill="white"/>
</mask>
<g mask="url(#mask1_536_674)">
<path opacity="0.2" d="M27.2199 129.005C29.1237 129.21 30.3476 130.027 34.2234 129.073C41.0229 127.371 36.1272 114.224 47.4144 108.843C50.1342 107.549 52.446 107.004 54.4179 106.867C54.5539 104.551 54.7579 102.167 55.0978 99.7151C55.5058 96.9905 56.2537 94.7426 57.1377 92.9716C54.0779 92.0179 53.5339 91.1324 48.2303 93.6527C36.9432 99.034 38.643 112.862 31.8435 114.565C26.4719 115.927 26.1319 113.747 22.0522 114.769C23.9561 117.494 25.452 122.807 26.9479 128.392C27.0839 128.529 27.1519 128.733 27.2199 129.005Z" fill="#6ABD50"/>
</g>
<mask id="mask2_536_674" style="mask-type:luminance" maskUnits="userSpaceOnUse" x="8" y="0" width="191" height="137">
<path d="M173.477 17.7024C166.338 2.92108 163.21 1.62686 158.45 1.3544C153.691 1.15005 142.403 -0.280407 129.892 1.69498C129.892 1.69498 94.9429 1.08193 67.8809 17.4981C39.595 34.6635 25.86 49.7173 23.9561 57.5507C22.0522 65.3842 15.4567 85.683 12.329 97.3309C9.20119 108.979 7.09334 119.265 11.0371 128.733C13.4169 134.455 16.0007 136.157 19.2644 136.157C18.7885 135.34 18.3805 134.455 17.9045 133.365C14.6408 125.259 15.0488 113.679 18.7885 112.93C22.5282 112.18 24.772 119.946 27.0159 128.392C27.7638 131.185 28.3758 132.82 28.8517 133.842C34.4273 131.73 43.3347 127.03 55.1658 122.125C54.4179 116.949 53.6699 108.911 55.0978 99.715C56.8657 88.067 64.2772 85.5467 67.4729 92.5628C70.1247 98.4208 71.1447 111.431 71.4166 115.859C76.1763 114.224 80.188 113.134 82.6358 112.998C82.6358 112.998 123.229 103.802 153.147 103.053C183.064 102.303 198.023 101.622 198.023 101.622C198.023 101.622 180.617 32.4838 173.477 17.7024Z" fill="white"/>
</mask>
<g mask="url(#mask2_536_674)">
<path opacity="0.2" d="M16.1366 117.357C12.9409 119.537 11.105 122.807 10.0171 125.599C10.2891 126.689 10.697 127.711 11.105 128.801C13.4848 134.523 16.0686 136.226 19.3324 136.226C18.8564 135.408 18.4485 134.523 17.9725 133.433C15.9327 128.188 15.3207 121.649 16.1366 117.357Z" fill="#6ABD50"/>
</g>
<mask id="mask3_536_674" style="mask-type:luminance" maskUnits="userSpaceOnUse" x="8" y="0" width="191" height="137">
<path d="M173.477 17.7024C166.338 2.92108 163.21 1.62686 158.45 1.3544C153.691 1.15005 142.403 -0.280407 129.892 1.69498C129.892 1.69498 94.9429 1.08193 67.8809 17.4981C39.595 34.6635 25.86 49.7173 23.9561 57.5507C22.0522 65.3842 15.4567 85.683 12.329 97.3309C9.20119 108.979 7.09334 119.265 11.0371 128.733C13.4169 134.455 16.0007 136.157 19.2644 136.157C18.7885 135.34 18.3805 134.455 17.9045 133.365C14.6408 125.259 15.0488 113.679 18.7885 112.93C22.5282 112.18 24.772 119.946 27.0159 128.392C27.7638 131.185 28.3758 132.82 28.8517 133.842C34.4273 131.73 43.3347 127.03 55.1658 122.125C54.4179 116.949 53.6699 108.911 55.0978 99.715C56.8657 88.0671 64.2772 85.5467 67.4729 92.5628C70.1247 98.4208 71.1446 111.431 71.4166 115.859C76.1763 114.224 80.188 113.134 82.6358 112.998C82.6358 112.998 123.229 103.802 153.147 103.053C183.064 102.303 198.023 101.622 198.023 101.622C198.023 101.622 180.617 32.4838 173.477 17.7024Z" fill="white"/>
</mask>
<g mask="url(#mask3_536_674)">
<path opacity="0.2" d="M158.45 1.35449C158.11 1.35449 157.634 1.28638 157.226 1.28638C107.658 14.0242 87.4633 73.8989 80.5278 102.712C80.8678 105.573 81.2758 108.366 81.7517 111.159C82.5677 111.022 82.0237 112.998 82.6357 112.93C82.6357 112.93 123.229 103.734 153.147 102.985C183.064 102.235 198.023 101.554 198.023 101.554C198.023 101.554 180.684 32.4839 173.545 17.7025C166.338 2.85306 163.21 1.55884 158.45 1.35449Z" fill="#6ABD50"/>
</g>
<path d="M173.477 17.7024C166.338 2.92108 163.21 1.62686 158.45 1.3544C153.691 1.15005 142.403 -0.280407 129.892 1.69498C129.892 1.69498 94.9429 1.08193 67.8809 17.4981C39.595 34.6635 25.86 49.7173 23.9561 57.5507C22.0522 65.3842 15.4567 85.683 12.329 97.3309C9.20119 108.979 7.09334 119.265 11.0371 128.733C13.4169 134.455 16.0007 136.157 19.2644 136.157C18.7885 135.34 18.3805 134.455 17.9045 133.365C14.6408 125.259 15.0488 113.679 18.7885 112.93C22.5282 112.18 24.772 119.946 27.0159 128.392C27.7638 131.185 28.3758 132.82 28.8517 133.842C34.4273 131.73 43.3347 127.03 55.1658 122.125C54.4179 116.949 53.6699 108.911 55.0978 99.715C56.8657 88.067 64.2772 85.5467 67.4729 92.5628C70.1247 98.4208 71.1447 111.431 71.4166 115.859C76.1763 114.224 80.188 113.134 82.6358 112.998C82.6358 112.998 123.229 103.802 153.147 103.053C183.064 102.303 198.023 101.622 198.023 101.622C198.023 101.622 180.617 32.4838 173.477 17.7024Z" stroke="black" stroke-miterlimit="10" stroke-linecap="round" stroke-linejoin="round"/>
<path opacity="0.2" d="M25.0439 92.4947C25.0439 92.4947 26.3359 93.7889 28.4437 92.9034C30.5515 92.0179 30.8235 88.8164 30.8235 88.8164L34.0193 88.612L34.6312 78.5308L27.5598 81.3236C27.6278 81.3236 25.7239 91.2005 25.0439 92.4947Z" fill="#6ABD50"/>
<g clip-path="url(#clip0_536_674)">
<rect width="85.726" height="51.3325" rx="20" transform="matrix(0.995659 -0.093075 0.109992 0.993932 81 11.979)" fill="#051A00"/>
<g clip-path="url(#clip1_536_674)">
<path d="M113.653 42.5382L92.0684 44.4082L94.097 64.1884L115.682 62.3184L113.653 42.5382Z" fill="#1C9102"/>
<path d="M111.352 45.0854L94.8462 46.5154L96.3975 61.6414L112.903 60.2114L111.352 45.0854Z" fill="#156503"/>
<path d="M109.858 47.1712L96.7383 48.3079L97.9714 60.3311L111.091 59.1944L109.858 47.1712Z" fill="#1C9102"/>
<path d="M136.93 40.5216L115.346 42.3916L117.374 62.1718L138.959 60.3018L136.93 40.5216Z" fill="#1C9102"/>
<path d="M134.629 43.0688L118.124 44.4988L119.675 59.6248L136.181 58.1948L134.629 43.0688Z" fill="#156503"/>
<path d="M133.136 45.1546L120.016 46.2913L121.249 58.3145L134.369 57.1778L133.136 45.1546Z" fill="#1C9102"/>
<path d="M123.012 21.3803L101.427 23.2502L103.456 43.0304L125.04 41.1604L123.012 21.3803Z" fill="#1C9102"/>
<path d="M120.711 23.9275L104.205 25.3574L105.756 40.4834L122.262 39.0535L120.711 23.9275Z" fill="#156503"/>
<path d="M119.6 25.5887L106.48 26.7253L107.714 38.7486L120.834 37.6119L119.6 25.5887Z" fill="#1C9102"/>
</g>
<g clip-path="url(#clip2_536_674)">
<path d="M137.564 36.3718L109.642 38.7908L112.233 64.0585L140.155 61.6395L137.564 36.3718Z" fill="#6ABD50"/>
<path d="M134.584 39.629L113.232 41.4788L115.214 60.8011L136.565 58.9513L134.584 39.629Z" fill="#1C9102"/>
<path d="M132.648 42.296L115.676 43.7664L117.251 59.1252L134.223 57.6548L132.648 42.296Z" fill="#6ABD50"/>
<path d="M167.675 33.7632L139.753 36.1821L142.345 61.4499L170.266 59.0309L167.675 33.7632Z" fill="#6ABD50"/>
<path d="M164.695 37.0203L143.343 38.8701L145.325 58.1925L166.677 56.3427L164.695 37.0203Z" fill="#1C9102"/>
<path d="M162.759 39.6874L145.787 41.1577L147.362 56.5165L164.334 55.0462L162.759 39.6874Z" fill="#6ABD50"/>
<path d="M149.703 9.32812L121.782 11.7471L124.373 37.0148L152.295 34.5958L149.703 9.32812Z" fill="#6ABD50"/>
<path d="M146.723 12.5853L125.372 14.4351L127.353 33.7574L148.705 31.9077L146.723 12.5853Z" fill="#1C9102"/>
<path d="M145.284 14.7093L128.312 16.1797L129.887 31.5385L146.859 30.0682L145.284 14.7093Z" fill="#6ABD50"/>
</g>
<rect x="79.1519" y="-5" width="58.4439" height="71.6936" transform="rotate(12.2011 79.1519 -5)" fill="white" fill-opacity="0.4"/>
</g>
<rect x="1.10565" y="0.900857" width="83.726" height="49.3325" rx="19" transform="matrix(0.995659 -0.093075 0.109992 0.993932 80.9057 12.0874)" stroke="#051A00" stroke-width="2"/>
<path d="M15.7965 121.989C14.5726 122.67 11.9888 124.169 10.085 125.804C10.3569 126.757 10.6969 127.779 11.1049 128.733C13.4847 134.455 16.0685 136.158 19.3323 136.158C18.8563 135.34 18.4483 134.455 17.9724 133.365C16.5445 129.823 15.8645 125.668 15.7965 121.989Z" fill="black" stroke="black" stroke-width="0.75" stroke-miterlimit="10" stroke-linecap="round" stroke-linejoin="round"/>
<path d="M26.6078 116.336C26.2678 116.336 25.9279 116.131 25.7239 115.791C25.4519 115.314 25.6559 114.701 26.1318 114.428C26.2678 114.36 39.5269 106.118 50.4741 100.26C50.95 99.9875 51.562 100.192 51.834 100.669C52.1059 101.145 51.902 101.759 51.426 102.031C40.4788 107.889 27.2198 116.063 27.0838 116.131C26.9478 116.336 26.7438 116.336 26.6078 116.336Z" fill="black" stroke="black" stroke-miterlimit="10"/>
<path d="M120.033 80.8466C120.033 80.8466 143.152 76.4191 158.994 76.6915L159.946 80.5061C159.946 80.5061 126.697 82.0727 120.373 85.2742L120.033 80.8466Z" fill="black" stroke="black" stroke-width="0.75" stroke-miterlimit="10" stroke-linecap="round" stroke-linejoin="round"/>
<path d="M120.305 85.2743L120.985 89.0888C121.121 89.9743 121.937 90.5874 122.821 90.4512C128.601 89.6338 148.999 86.841 159.538 87.0453C160.626 87.0453 161.51 86.0236 161.17 84.9337L159.878 80.5061" stroke="black" stroke-miterlimit="10" stroke-linecap="round" stroke-linejoin="round"/>
<path d="M35.9914 78.5306L35.8554 62.7956L36.6033 46.5838C36.6033 45.9027 35.7874 45.494 35.3114 46.0389C32.3876 49.036 27.356 53.5999 25.9281 57.2782C24.0242 62.1145 21.7124 85.8191 21.7124 85.8191L35.9914 78.5306Z" fill="black" stroke="black" stroke-width="0.75" stroke-miterlimit="10" stroke-linecap="round" stroke-linejoin="round"/>
<path d="M17.8365 91.3365H15.5927C14.4368 91.3365 13.4849 90.3829 13.4849 89.2249V77.5088C13.4849 76.3509 14.4368 75.3972 15.5927 75.3972H17.8365C18.9925 75.3972 19.9444 76.3509 19.9444 77.5088V89.293C19.9444 90.3829 18.9925 91.3365 17.8365 91.3365Z" fill="black" stroke="black" stroke-width="0.75" stroke-miterlimit="10" stroke-linecap="round" stroke-linejoin="round"/>
<path d="M19.2646 64.3624C19.2646 64.3624 21.1005 64.703 22.3924 65.3161C23.6843 65.9291 24.6363 66.9509 24.6363 66.9509L28.036 62.4552C28.036 62.4552 23.0724 60.3436 22.1204 59.1175C21.1685 57.8232 21.1685 57.8232 21.1685 57.8232L19.2646 64.3624Z" fill="white"/>
<mask id="mask4_536_674" style="mask-type:luminance" maskUnits="userSpaceOnUse" x="19" y="57" width="10" height="10">
<path d="M19.2646 64.3624C19.2646 64.3624 21.1005 64.703 22.3924 65.3161C23.6843 65.9291 24.6363 66.9509 24.6363 66.9509L28.036 62.4552C28.036 62.4552 23.0724 60.3436 22.1204 59.1175C21.1685 57.8232 21.1685 57.8232 21.1685 57.8232L19.2646 64.3624Z" fill="white"/>
</mask>
<g mask="url(#mask4_536_674)">
<path opacity="0.5" d="M22.1206 59.1175C21.5766 58.3682 21.3046 58.0276 21.2366 57.8914L21.1006 57.9595L19.1968 64.3625C19.1968 64.3625 19.5368 64.4306 20.0807 64.5668L24.9084 61.0247C23.8204 60.4117 22.5965 59.6624 22.1206 59.1175Z" fill="#6ABD50"/>
</g>
<path d="M19.2646 64.3624C19.2646 64.3624 21.1005 64.703 22.3924 65.3161C23.6843 65.9291 24.6363 66.9509 24.6363 66.9509L28.036 62.4552C28.036 62.4552 23.0724 60.3436 22.1204 59.1175C21.1685 57.8232 21.1685 57.8232 21.1685 57.8232L19.2646 64.3624Z" stroke="black" stroke-width="0.75" stroke-miterlimit="10" stroke-linecap="round" stroke-linejoin="round"/>
<path d="M26.4719 60.5479L22.3242 65.861L22.8682 67.7001L29.1917 61.0928L26.4719 60.5479Z" fill="#6ABD50" stroke="black" stroke-miterlimit="10" stroke-linecap="round" stroke-linejoin="round"/>
<path d="M19.8085 45.5622C17.0207 43.3825 9.67721 44.7448 8.24932 49.9217C7.36538 53.055 7.84135 57.8913 7.84135 57.8913L16.2047 56.1203C16.4087 56.4609 16.6127 56.7333 16.8847 57.1421C18.2446 59.1856 21.1684 57.8232 21.9163 57.1421C22.3243 56.8015 22.3243 55.7116 22.1883 54.8261L22.5283 54.758C22.5283 54.758 22.5963 47.7419 19.8085 45.5622Z" fill="black" stroke="black" stroke-width="0.75" stroke-miterlimit="10" stroke-linecap="round" stroke-linejoin="round"/>
<path d="M16.6807 55.5073C16.6807 55.5073 11.2411 54.758 5.80152 56.529C0.361921 58.3682 -0.454019 59.9349 3.4217 59.8667C7.29741 59.7986 16.6807 55.5073 16.6807 55.5073Z" fill="black" stroke="black" stroke-width="0.75" stroke-miterlimit="10" stroke-linecap="round" stroke-linejoin="round"/>
<path d="M10.0172 53.5318C10.6556 53.5318 11.1732 52.8304 11.1732 51.9651C11.1732 51.0999 10.6556 50.3984 10.0172 50.3984C9.37885 50.3984 8.86133 51.0999 8.86133 51.9651C8.86133 52.8304 9.37885 53.5318 10.0172 53.5318Z" fill="#6ABD50"/>
<path d="M35.8554 62.7958C35.8554 62.7958 28.376 60.8885 26.1321 62.6595C23.8883 64.4306 23.2763 67.2915 24.0243 70.7654C24.7722 74.2394 26.5401 83.4352 26.5401 83.4352L36.0594 78.5308L35.8554 62.7958Z" fill="black" stroke="black" stroke-width="0.75" stroke-miterlimit="10" stroke-linecap="round" stroke-linejoin="round"/>
<path d="M24.024 82.0047C24.024 82.0047 23.6161 85.5467 23.1401 86.0236C22.6641 86.5004 10.289 76.0785 9.5411 75.1249C8.79315 74.1712 9.33711 70.6292 9.5411 69.5393C9.74508 68.4494 9.40511 67.8364 8.18119 68.5857C6.95728 69.3349 7.29726 72.4683 7.29726 72.4683C7.29726 72.4683 3.62553 71.5828 2.94558 71.5147C2.19763 71.3784 1.58568 72.3321 1.72167 73.0132C1.85766 73.7625 2.80959 73.7625 2.80959 73.7625C2.80959 73.7625 2.40162 75.6017 3.01357 76.8959C3.62553 78.1901 4.37348 79.0756 5.73338 79.3481C7.09328 79.6887 9.94907 79.6206 9.94907 79.6206C9.94907 79.6206 16.2726 85.683 18.1765 87.9308C20.0803 90.1787 23.888 93.2439 25.7919 92.699C27.6958 92.1541 29.5316 82.5496 29.5316 82.5496L24.024 82.0047Z" fill="white"/>
<mask id="mask5_536_674" style="mask-type:luminance" maskUnits="userSpaceOnUse" x="1" y="68" width="29" height="25">
<path d="M24.024 82.0047C24.024 82.0047 23.6161 85.5467 23.1401 86.0236C22.6641 86.5004 10.289 76.0785 9.5411 75.1249C8.79315 74.1712 9.33711 70.6292 9.5411 69.5393C9.74508 68.4494 9.40511 67.8364 8.18119 68.5857C6.95728 69.3349 7.29726 72.4683 7.29726 72.4683C7.29726 72.4683 3.62553 71.5828 2.94558 71.5147C2.19763 71.3784 1.58568 72.3321 1.72167 73.0132C1.85766 73.7625 2.80959 73.7625 2.80959 73.7625C2.80959 73.7625 2.40162 75.6017 3.01357 76.8959C3.62553 78.1901 4.37348 79.0756 5.73338 79.3481C7.09328 79.6887 9.94907 79.6206 9.94907 79.6206C9.94907 79.6206 16.2726 85.683 18.1765 87.9308C20.0803 90.1787 23.888 93.2439 25.7919 92.699C27.6958 92.1541 29.5316 82.5496 29.5316 82.5496L24.024 82.0047Z" fill="white"/>
</mask>
<g mask="url(#mask5_536_674)">
<path opacity="0.5" d="M23.1403 86.0235L26.744 87.2496C26.744 87.2496 27.22 89.9062 24.5002 90.7917C22.9363 91.3366 20.0125 89.4975 17.9727 87.9989L18.0407 88.067C19.9445 90.3149 23.7522 93.3801 25.6561 92.8352C27.56 92.2903 29.3958 82.6858 29.3958 82.6858L23.8882 82.0046C24.0242 82.0046 23.6162 85.5467 23.1403 86.0235Z" fill="#6ABD50"/>
</g>
<path d="M24.024 82.0047C24.024 82.0047 23.6161 85.5467 23.1401 86.0236C22.6641 86.5004 10.289 76.0785 9.5411 75.1249C8.79315 74.1712 9.33711 70.6292 9.5411 69.5393C9.74508 68.4494 9.40511 67.8364 8.18119 68.5857C6.95728 69.3349 7.29726 72.4683 7.29726 72.4683C7.29726 72.4683 3.62553 71.5828 2.94558 71.5147C2.19763 71.3784 1.58568 72.3321 1.72167 73.0132C1.85766 73.7625 2.80959 73.7625 2.80959 73.7625C2.80959 73.7625 2.40162 75.6017 3.01357 76.8959C3.62553 78.1901 4.37348 79.0756 5.73338 79.3481C7.09328 79.6887 9.94907 79.6206 9.94907 79.6206C9.94907 79.6206 16.2726 85.683 18.1765 87.9308C20.0803 90.1787 23.888 93.2439 25.7919 92.699C27.6958 92.1541 29.5316 82.5496 29.5316 82.5496L24.024 82.0047Z" stroke="black" stroke-width="0.75" stroke-miterlimit="10" stroke-linecap="round" stroke-linejoin="round"/>
<path d="M11.6487 77.0322L9.88086 79.7569L10.7648 80.3699L12.6007 77.7815L11.6487 77.0322Z" fill="black" stroke="black" stroke-miterlimit="10"/>
<path d="M11.0369 79.5525C11.4124 79.5525 11.7168 79.2476 11.7168 78.8714C11.7168 78.4952 11.4124 78.1902 11.0369 78.1902C10.6614 78.1902 10.3569 78.4952 10.3569 78.8714C10.3569 79.2476 10.6614 79.5525 11.0369 79.5525Z" fill="white" stroke="black" stroke-width="0.75" stroke-miterlimit="10" stroke-linecap="round" stroke-linejoin="round"/>
<path d="M9.40527 58.7769C9.40527 58.7769 9.81325 59.7987 10.4932 61.6378C11.1731 63.4089 14.9129 67.2234 16.7487 67.4959C18.5846 67.7002 20.7604 61.0929 21.1004 59.7306C21.2364 59.2538 21.3044 58.5726 21.3044 58.5726C21.3044 58.5726 23.6162 57.4827 23.0723 56.1885C22.5283 54.8943 21.4404 54.2812 20.9644 54.6899C20.4885 55.0986 20.3525 56.8016 19.6045 56.8016C18.8566 56.8016 18.4486 56.5972 17.7687 55.6436C17.0887 54.6899 10.0852 56.5291 9.40527 58.7769Z" fill="white"/>
<mask id="mask6_536_674" style="mask-type:luminance" maskUnits="userSpaceOnUse" x="9" y="54" width="15" height="14">
<path d="M9.40527 58.7769C9.40527 58.7769 9.81325 59.7987 10.4932 61.6378C11.1731 63.4089 14.9129 67.2234 16.7487 67.4959C18.5846 67.7002 20.7604 61.0929 21.1004 59.7306C21.2364 59.2538 21.3044 58.5726 21.3044 58.5726C21.3044 58.5726 23.6162 57.4827 23.0723 56.1885C22.5283 54.8943 21.4404 54.2812 20.9644 54.6899C20.4885 55.0986 20.3525 56.8016 19.6045 56.8016C18.8566 56.8016 18.4486 56.5972 17.7687 55.6436C17.0887 54.6899 10.0852 56.5291 9.40527 58.7769Z" fill="white"/>
</mask>
<g mask="url(#mask6_536_674)">
<path opacity="0.5" d="M17.7687 55.5754C17.0887 54.6899 10.1532 56.529 9.40527 58.7769C9.40527 58.7769 9.54127 59.1174 9.81325 59.7986C11.1052 58.9812 14.5729 57.1421 18.3806 56.2565C18.1766 56.1203 17.9726 55.8478 17.7687 55.5754Z" fill="#6ABD50"/>
</g>
<mask id="mask7_536_674" style="mask-type:luminance" maskUnits="userSpaceOnUse" x="9" y="54" width="15" height="14">
<path d="M9.40527 58.7769C9.40527 58.7769 9.81325 59.7987 10.4932 61.6378C11.1731 63.4089 14.9129 67.2234 16.7487 67.4959C18.5846 67.7002 20.7604 61.0929 21.1004 59.7306C21.2364 59.2538 21.3044 58.5726 21.3044 58.5726C21.3044 58.5726 23.6162 57.4827 23.0723 56.1885C22.5283 54.8943 21.4404 54.2812 20.9644 54.6899C20.4885 55.0986 20.3525 56.8016 19.6045 56.8016C18.8566 56.8016 18.4486 56.5972 17.7687 55.6436C17.0887 54.6899 10.0852 56.5291 9.40527 58.7769Z" fill="white"/>
</mask>
<g mask="url(#mask7_536_674)">
<path opacity="0.5" d="M23.0045 55.916C22.4605 54.758 21.4406 54.213 20.9646 54.6217C20.6926 54.8261 20.5566 55.4391 20.2847 55.9841C21.2366 55.8478 22.1205 55.8479 23.0045 55.916Z" fill="#6ABD50"/>
</g>
<path d="M9.40527 58.7769C9.40527 58.7769 9.81325 59.7987 10.4932 61.6378C11.1731 63.4089 14.9129 67.2234 16.7487 67.4959C18.5846 67.7002 20.7604 61.0929 21.1004 59.7306C21.2364 59.2538 21.3044 58.5726 21.3044 58.5726C21.3044 58.5726 23.6162 57.4827 23.0723 56.1885C22.5283 54.8943 21.4404 54.2812 20.9644 54.6899C20.4885 55.0986 20.3525 56.8016 19.6045 56.8016C18.8566 56.8016 18.4486 56.5972 17.7687 55.6436C17.0887 54.6899 10.0852 56.5291 9.40527 58.7769Z" stroke="black" stroke-width="0.75" stroke-miterlimit="10" stroke-linecap="round" stroke-linejoin="round"/>
<path d="M11.8531 59.2537C11.9891 59.6624 11.9211 60.0711 11.7851 60.0711C11.6491 60.1392 11.3771 59.7986 11.2411 59.3899C11.1051 58.9812 11.1731 58.5725 11.3091 58.5725C11.5131 58.5725 11.7171 58.845 11.8531 59.2537Z" fill="black" stroke="black" stroke-miterlimit="10"/>
<path d="M10.6294 58.0957C11.5813 57.8232 11.9893 58.5725 12.1253 59.1856L12.3293 60.003L12.9412 63.0001L13.8252 62.5914" stroke="black" stroke-width="0.5" stroke-miterlimit="10" stroke-linecap="round" stroke-linejoin="round"/>
<path d="M14.437 58.3683C14.437 58.3683 14.981 57.6872 16.0689 57.7553" stroke="black" stroke-width="0.5" stroke-miterlimit="10" stroke-linecap="round" stroke-linejoin="round"/>
<path d="M15.2528 56.4609C15.2528 56.4609 13.8929 56.6653 13.689 58.0276" stroke="black" stroke-width="0.5" stroke-miterlimit="10" stroke-linecap="round" stroke-linejoin="round"/>
<path d="M14.5728 63.6133C14.5728 63.6133 16.5446 63.2046 16.6806 61.7742" stroke="black" stroke-width="0.5" stroke-miterlimit="10" stroke-linecap="round" stroke-linejoin="round"/>
<path d="M31.2995 87.1135L21.3042 84.3207C21.3042 84.3207 22.1881 67.2916 23.752 64.4307C26.1318 59.9349 31.6394 61.9784 32.6594 67.564C33.6113 72.8771 31.2995 87.1135 31.2995 87.1135Z" fill="#6ABD50" stroke="black" stroke-miterlimit="10" stroke-linecap="round" stroke-linejoin="round"/>
<path d="M21.5762 82.4136C21.5762 82.4136 27.0158 83.6397 30.3475 84.7296" stroke="black" stroke-width="0.5" stroke-miterlimit="10" stroke-linecap="round" stroke-linejoin="round"/>
<path d="M30.1436 61.4333C30.1436 61.4333 33.4073 61.7058 35.5152 63.4087" stroke="#6ABD50" stroke-width="0.5" stroke-miterlimit="10" stroke-linecap="round" stroke-linejoin="round"/>
<path d="M87.1914 104.96C87.1914 104.96 72.7084 110.069 71.3485 111.499C69.9886 112.862 70.1246 118.311 73.2524 120.967C76.3802 123.624 98.6825 117.63 114.593 115.859C130.504 114.088 165.522 111.567 179.733 110.818C194.012 110.137 200.539 111.976 201.763 107.548C202.987 103.121 202.919 98.3527 200.131 97.399C197.547 96.4454 148.047 88.4757 87.1914 104.96Z" fill="black" stroke="black" stroke-width="0.75" stroke-miterlimit="10" stroke-linecap="round" stroke-linejoin="round"/>
<path d="M70.3286 114.496C70.3286 114.496 71.0086 120.423 74.6123 121.308C78.216 122.194 121.325 114.02 146.687 113.134C172.049 112.249 194.284 111.567 194.284 111.567" stroke="white" stroke-width="0.5" stroke-miterlimit="10" stroke-linecap="round" stroke-linejoin="round"/>
<path d="M91.4072 117.493C108.27 113.406 142.879 107.617 201.151 109.251" stroke="white" stroke-width="0.5" stroke-miterlimit="10" stroke-linecap="round" stroke-linejoin="round"/>
<path d="M77.604 121.104C77.604 121.104 81.4797 120.15 87.3273 118.583" stroke="white" stroke-width="0.5" stroke-miterlimit="10" stroke-linecap="round" stroke-linejoin="round"/>
<path d="M81.14 121.785C81.14 121.785 81.48 125.327 80.936 129.346" stroke="white" stroke-width="0.5" stroke-miterlimit="10" stroke-linecap="round" stroke-linejoin="round"/>
<path d="M80.5278 12.7981C80.5278 12.7981 77.264 16.6126 77.0601 20.0185" stroke="black" stroke-width="0.75" stroke-miterlimit="10" stroke-linecap="round" stroke-linejoin="round"/>
<path d="M76.7201 22.8113C76.7201 22.8113 74.2723 61.706 80.7318 103.121" stroke="black" stroke-width="0.75" stroke-miterlimit="10" stroke-linecap="round" stroke-linejoin="round"/>
<path d="M77.468 67.7684C77.468 67.7684 72.1644 69.6075 72.1644 71.9916C71.9604 78.3946 72.6404 92.0861 74.0683 93.3803C75.4282 94.7426 79.7799 91.2006 79.7799 91.2006C79.7799 91.2006 85.8994 91.7455 86.5794 90.3832C87.2593 89.0208 84.6755 69.6757 84.3355 67.9727C83.8596 66.2017 77.468 67.7684 77.468 67.7684Z" fill="#6ABD50" stroke="black" stroke-miterlimit="10" stroke-linecap="round" stroke-linejoin="round"/>
<path d="M187.552 76.9642C188.776 77.6454 190.544 77.986 191.972 78.1222C190.272 71.7873 188.368 64.7032 186.396 57.6191C184.628 57.4828 182.316 57.4828 182.384 58.3002C182.316 59.7307 185.784 76.0106 187.552 76.9642Z" fill="#6ABD50" stroke="black" stroke-miterlimit="10" stroke-linecap="round" stroke-linejoin="round"/>
<path d="M76.7202 69.7437C76.7202 69.7437 76.9242 82.0047 77.8761 86.7728" stroke="black" stroke-width="0.75" stroke-miterlimit="10" stroke-linecap="round" stroke-linejoin="round"/>
<path d="M140.228 72.6045C140.228 72.6045 170.554 67.7001 205.911 73.9668" stroke="black" stroke-miterlimit="10" stroke-linecap="round" stroke-linejoin="round"/>
<path d="M232.633 91.8132C234.741 92.4263 236.781 93.1074 238.753 93.7886" stroke="black" stroke-miterlimit="10" stroke-linecap="round" stroke-linejoin="round"/>
<path d="M178.169 82.5493C178.169 82.5493 202.239 83.9798 225.29 89.7697" stroke="black" stroke-miterlimit="10" stroke-linecap="round" stroke-linejoin="round"/>
<path d="M104.938 138.678C104.938 138.678 132.68 133.705 164.774 137.588" stroke="black" stroke-miterlimit="10" stroke-linecap="round" stroke-linejoin="round"/>
<path d="M102.423 135.476C102.423 135.476 116.634 133.705 121.325 133.365" stroke="black" stroke-miterlimit="10" stroke-linecap="round" stroke-linejoin="round"/>
<path d="M197.82 3.12524C199.86 3.39771 201.9 3.80641 203.735 4.28323" stroke="black" stroke-miterlimit="10" stroke-linecap="round" stroke-linejoin="round"/>
<path d="M168.514 2.51224C168.514 2.51224 181.297 1.49048 193.672 2.64847" stroke="black" stroke-miterlimit="10" stroke-linecap="round" stroke-linejoin="round"/>
<path d="M70 85C70 85 85.5431 75.5856 108 73" stroke="black" stroke-miterlimit="10" stroke-linecap="round" stroke-linejoin="round"/>
<path d="M92.9712 67.2914C92.9712 67.2914 105.278 64.0899 123.977 63" stroke="black" stroke-miterlimit="10" stroke-linecap="round" stroke-linejoin="round"/>
<path d="M58.4297 135.408C58.4297 135.408 61.4895 141.879 69.6489 144.944" stroke="black" stroke-miterlimit="10" stroke-linecap="round" stroke-linejoin="round"/>
<path d="M57.75 138.473C57.75 138.473 60.8098 143.242 64.8895 145.285" stroke="black" stroke-miterlimit="10" stroke-linecap="round" stroke-linejoin="round"/>
<path d="M158.042 121.444C158.042 121.444 160.082 130.98 168.242 135.067" stroke="black" stroke-miterlimit="10" stroke-linecap="round" stroke-linejoin="round"/>
<path d="M159.062 129.959C159.062 129.959 161.442 133.705 165.522 135.408" stroke="black" stroke-miterlimit="10" stroke-linecap="round" stroke-linejoin="round"/>
<path d="M24.5684 148.282C24.5684 148.282 26.6082 151.688 33.7477 151.688" stroke="black" stroke-miterlimit="10" stroke-linecap="round" stroke-linejoin="round"/>
<path d="M23.2085 150.326C23.2085 150.326 26.9482 153.732 32.3878 154.072" stroke="black" stroke-miterlimit="10" stroke-linecap="round" stroke-linejoin="round"/>
<g opacity="0.88">
<path fill-rule="evenodd" clip-rule="evenodd" d="M56.981 80.1979L44.5938 61.6835C44.0134 60.8168 43.8147 59.297 44.1503 58.2916L51.9888 35.4365L65.4415 55.5271C66.0218 56.3938 66.2205 57.9137 65.8849 58.919L58.6617 79.9782C58.3237 80.965 57.5706 81.0634 56.981 80.1979Z" fill="url(#paint0_radial_536_674)"/>
<path fill-rule="evenodd" clip-rule="evenodd" d="M59.8823 65.0199C57.8067 65.2913 55.6825 62.1191 55.1349 57.9302L52.7555 39.7287L55.9126 44.4437L57.633 57.6036C57.8147 58.9937 58.5228 60.0511 59.2116 59.9611C59.9004 59.871 60.3128 58.6672 60.1311 57.277L59.4744 52.254L62.6316 56.969C63.1884 61.1567 61.9487 64.7498 59.8823 65.0199ZM51.9564 66.0561C54.032 65.7848 55.2693 62.1731 54.7216 57.9842L52.3422 39.7828L50.5032 45.1509L52.2236 58.3108C52.4053 59.7009 51.9929 60.9048 51.3041 60.9948C50.6153 61.0849 49.9072 60.0275 49.7255 58.6373L49.0688 53.6143L47.2207 58.9837C47.7683 63.1726 49.89 66.3262 51.9564 66.0561Z" fill="white"/>
</g>
<path fill-rule="evenodd" clip-rule="evenodd" d="M29.5224 106.065C29.7101 106.396 30.1272 106.509 30.4607 106.32C30.7943 106.13 30.911 105.714 30.7233 105.383L29.0291 102.4C28.8414 102.069 28.4244 101.956 28.0908 102.145C27.7572 102.335 27.6406 102.751 27.8283 103.081L29.5224 106.065ZM33.5336 103.788C33.7213 104.119 34.1383 104.232 34.4719 104.042C34.8054 103.853 34.9221 103.437 34.7344 103.106L33.0403 100.122C32.8525 99.7916 32.4355 99.6786 32.1019 99.868C31.7684 100.057 31.6517 100.473 31.8394 100.804L33.5336 103.788ZM31.4262 98.6777C32.4269 98.1096 33.6826 98.4568 34.2411 99.4404L35.9352 102.424C36.4984 103.416 36.14 104.669 35.1477 105.232C34.147 105.801 32.8912 105.453 32.3327 104.47L30.6386 101.486C30.0801 100.502 30.4338 99.2412 31.4262 98.6777ZM27.415 100.955C28.4157 100.387 29.6715 100.734 30.23 101.718L31.9241 104.702C32.4873 105.694 32.1289 106.946 31.1365 107.51C30.1358 108.078 28.88 107.731 28.3216 106.747L26.6274 103.763C26.069 102.78 26.4227 101.519 27.415 100.955Z" fill="url(#paint1_radial_536_674)"/>
<path opacity="0.88" fill-rule="evenodd" clip-rule="evenodd" d="M27.13 109.795C26.1293 110.364 24.8735 110.016 24.315 109.033L21.6025 104.255L23.4792 104.764L25.5112 108.343C25.6989 108.673 26.1159 108.786 26.4495 108.597C26.7831 108.407 26.8997 107.991 26.712 107.661L26.0363 106.471L27.9129 106.979C28.4844 107.966 28.1307 109.227 27.13 109.795ZM50.9967 96.2448L47.8947 90.7812L49.6023 90.9921L52.1975 95.563L50.9967 96.2448ZM43.9398 93.1577L43.2594 91.9592L45.6694 90.5909L46.8702 89.9091L47.546 91.0994L46.3452 91.7811L49.3909 97.1455L48.19 97.8273L45.1443 92.4629L43.9352 93.1495L43.9398 93.1577ZM45.5669 96.9557C46.1301 97.9476 45.7717 99.2004 44.7793 99.7638C43.7786 100.332 42.5228 99.9847 41.9644 99.0011L41.7391 98.6044L42.94 97.9226L43.1652 98.3193C43.3529 98.65 43.77 98.763 44.1035 98.5736C44.4371 98.3842 44.5538 97.9682 44.3661 97.6375L43.9484 96.9019C43.8686 96.7614 43.6862 96.7119 43.5444 96.7924L42.6021 97.3275C41.9433 97.7015 41.0962 97.472 40.7255 96.819C40.5002 96.4222 40.5002 96.4222 40.2749 96.0255C39.7118 95.0336 40.0702 93.7809 41.0625 93.2174C42.0632 92.6493 43.319 92.9965 43.8775 93.9801L44.1027 94.3769L42.9019 95.0587L42.6766 94.6619C42.4889 94.3313 42.0719 94.2183 41.7383 94.4077C41.4047 94.5971 41.2881 95.0131 41.4758 95.3437L41.7339 95.7983C41.8418 95.9884 42.0764 96.052 42.2682 95.9431L43.0938 95.4743C43.7776 95.0861 44.6507 95.3227 45.0356 96.0005C45.2431 96.3854 45.351 96.5755 45.5669 96.9557ZM42.5741 101.027L39.4721 95.5632L38.7781 97.1377L41.3733 101.709L42.5741 101.027ZM35.4372 96.4003C36.4379 95.8322 37.6937 96.1794 38.2522 97.163L38.7027 97.9565L37.5018 98.6383L37.0513 97.8448C36.8636 97.5142 36.4466 97.4012 36.113 97.5906C35.7794 97.78 35.6628 98.196 35.8505 98.5266L37.5446 101.51C37.7323 101.841 38.1494 101.954 38.4829 101.765C38.8165 101.575 38.9332 101.159 38.7455 100.829L38.3118 101.075L37.636 99.8847L38.0697 99.6384L39.1955 98.9993L39.2789 98.9519L39.5041 99.3487L39.9546 100.142L40.9683 101.928L40.4433 103.8L39.7065 102.502C39.5522 102.677 39.3708 102.824 39.1624 102.942C38.1617 103.51 36.9059 103.163 36.3474 102.179L34.6533 99.1954C34.0912 98.2248 34.4449 96.9637 35.4372 96.4003Z" fill="black"/>
<path fill-rule="evenodd" clip-rule="evenodd" d="M37.9893 95.7487C37.8015 95.4181 37.9182 95.0021 38.2518 94.8127C38.5854 94.6233 39.0024 94.7363 39.1901 95.0669C39.3778 95.3975 39.2611 95.8135 38.9276 96.0029C38.594 96.1923 38.1723 96.0711 37.9893 95.7487Z" fill="#6ABD50"/>
<path fill-rule="evenodd" clip-rule="evenodd" d="M47.6128 90.2848C47.4251 89.9542 47.5418 89.5382 47.8753 89.3488C48.2089 89.1594 48.6259 89.2724 48.8136 89.603C49.0014 89.9337 48.8847 90.3497 48.5511 90.5391C48.2259 90.7237 47.7958 90.6072 47.6128 90.2848Z" fill="#6ABD50"/>
<defs>
<radialGradient id="paint0_radial_536_674" cx="0" cy="0" r="1" gradientUnits="userSpaceOnUse" gradientTransform="translate(59.5625 45.5528) rotate(59.6266) scale(12.5863 9.11495)">
<stop stop-color="#1C9102"/>
<stop offset="1" stop-color="#6ABD50"/>
</radialGradient>
<radialGradient id="paint1_radial_536_674" cx="0" cy="0" r="1" gradientUnits="userSpaceOnUse" gradientTransform="translate(32.4626 100.191) rotate(-74.1865) scale(5.41099 5.46058)">
<stop stop-color="#1C9102"/>
<stop offset="1" stop-color="#6ABD50"/>
</radialGradient>
<clipPath id="clip0_536_674">
<rect width="85.726" height="51.3325" rx="20" transform="matrix(0.995659 -0.093075 0.109992 0.993932 81 11.979)" fill="white"/>
</clipPath>
<clipPath id="clip1_536_674">
<rect width="45.03" height="40.5476" fill="white" transform="matrix(0.996268 -0.0863108 0.102023 0.994782 90 24.2402)"/>
</clipPath>
<clipPath id="clip2_536_674">
<rect width="58.2502" height="51.7966" fill="white" transform="matrix(0.996268 -0.0863108 0.102023 0.994782 107 13.0276)"/>
</clipPath>
</defs>
</svg>
