<svg width="229" height="96" viewBox="0 0 229 96" fill="none" xmlns="http://www.w3.org/2000/svg">
<path fill-rule="evenodd" clip-rule="evenodd" d="M90.6438 60.649C92.3183 60.649 93.6423 62.0224 93.6423 63.6704C93.6423 65.3577 92.2793 66.6919 90.6438 66.6919C88.9694 66.6919 87.6454 65.3185 87.6454 63.6704C87.6065 62.0224 88.9694 60.649 90.6438 60.649ZM20.2002 63.7097C20.2002 62.0224 21.5631 60.6882 23.1986 60.6882C24.8341 60.6882 26.197 62.0616 26.197 63.7097C26.197 65.397 24.8341 66.7311 23.1986 66.7311C21.5631 66.7311 20.2002 65.397 20.2002 63.7097ZM26.5864 63.7097C26.5864 62.0224 27.9494 60.6882 29.5849 60.6882C31.2204 60.6882 32.5833 62.0616 32.5833 63.7097C32.5833 65.397 31.2204 66.7311 29.5849 66.7311C27.9494 66.7311 26.5864 65.397 26.5864 63.7097ZM52.443 28.7471C54.1175 28.7471 55.4415 30.1205 55.4415 31.7685C55.4415 33.4166 54.0785 34.79 52.443 34.79C50.7686 34.79 49.4446 33.4166 49.4446 31.7685C49.4446 30.1205 50.7686 28.7471 52.443 28.7471ZM52.443 35.1824C54.1175 35.1824 55.4415 36.5558 55.4415 38.2038C55.4415 39.8519 54.0785 41.2253 52.443 41.2253C50.7686 41.2253 49.4446 39.8519 49.4446 38.2038C49.4446 36.5558 50.7686 35.1824 52.443 35.1824Z" fill="#6ABD50"/>
<path fill-rule="evenodd" clip-rule="evenodd" d="M102.754 50.6429C102.754 55.6656 98.7046 59.7465 93.7202 59.7465H93.4086H72.3417H69.6548H64.281H61.2826H56.7655H56.2592H46.2125H45.2001H41.1892H39.1643V47.6214C37.4898 47.6214 36.1659 48.9948 36.1659 50.6429V53.6643V55.7048V59.7465H21.0179C16.0335 59.7465 11.9837 55.6656 11.9837 50.6429C11.9837 45.6202 16.0335 41.5393 21.0179 41.5393H30.4805L26.4696 47.6214H21.0179C19.3435 47.6214 18.0195 48.9948 18.0195 50.6429C18.0195 52.3302 19.3824 53.6643 21.0179 53.6643H30.169V50.6429C30.169 45.6202 34.2188 41.5393 39.2032 41.5393H45.2001V53.6643H46.2515C47.9259 53.6643 49.2499 52.2909 49.2499 50.6429V41.5393L55.2857 45.581V50.6429C55.2857 51.7024 55.091 52.7226 54.7795 53.6643H56.2982C57.9726 53.6643 59.2966 52.2909 59.2966 50.6429V45.581L65.3324 41.5393V50.6429C65.3324 51.7024 65.1377 52.6833 64.8262 53.6251C66.267 53.3897 67.3184 52.134 67.3184 50.6429V45.581L73.3542 41.5393V50.6429C73.3542 51.7024 73.1595 52.6833 72.848 53.6251C74.2888 53.3897 75.3402 52.134 75.3402 50.6429V45.581L81.376 41.5393V50.6429C81.376 51.7024 81.1813 52.7226 80.8697 53.6643H93.4476H93.7591C95.4335 53.6643 96.7575 52.2909 96.7575 50.6429C96.7575 48.9556 95.3946 47.6214 93.7591 47.6214H87.7233H85.6984L82.7 41.5393H93.7202C98.8603 41.5 102.754 45.6987 102.754 50.6429ZM122.575 58.687C127.17 58.2554 130.753 54.3707 130.753 49.6226V25.3333L124.717 31.4154V49.6226C124.717 50.996 123.821 52.134 122.575 52.5264V50.6429C122.575 45.6202 118.525 41.5393 113.541 41.5393C108.557 41.5393 104.507 45.6202 104.507 50.6429C104.507 53.3504 104.507 56.0187 104.507 58.7263H106.648H116.578V62.768C116.578 64.4553 115.215 65.7894 113.58 65.7894C111.905 65.7894 110.581 64.416 110.581 62.768V60.1781L104.546 63.1996V62.768C104.546 67.7906 108.595 71.8716 113.58 71.8716C118.564 71.8716 122.614 67.7906 122.614 62.768L122.575 58.687ZM110.504 52.6441H116.539V50.6429C116.539 48.9556 115.176 47.6214 113.541 47.6214C111.905 47.6214 110.543 48.9948 110.543 50.6429V52.6441H110.504Z" fill="black"/>
<path fill-rule="evenodd" clip-rule="evenodd" d="M179.745 82.5827L148.863 51.4342C147.416 49.976 147.416 47.5844 148.863 46.097L182.407 12.3237L215.952 46.1262C217.399 47.5844 217.399 49.976 215.952 51.4634L185.041 82.5827C183.594 84.0409 181.221 84.0409 179.745 82.5827Z" fill="url(#paint0_radial_4_518)"/>
<path fill-rule="evenodd" clip-rule="evenodd" d="M194.882 59.6879C188.341 59.6879 183.044 54.3507 183.044 47.7594V19.1191L190.917 27.0521V47.7594C190.917 49.9467 192.682 51.7258 194.853 51.7258C197.024 51.7258 198.789 49.9467 198.789 47.7594V39.8556L206.662 47.7885C206.691 54.3799 201.394 59.6879 194.882 59.6879ZM169.904 59.6879C176.445 59.6879 181.742 54.3507 181.742 47.7594V19.1191L173.869 27.0521V47.7594C173.869 49.9467 172.104 51.7258 169.933 51.7258C167.762 51.7258 165.997 49.9467 165.997 47.7594V39.8556L158.095 47.7885C158.095 54.3799 163.392 59.6879 169.904 59.6879Z" fill="white"/>
<defs>
<radialGradient id="paint0_radial_4_518" cx="0" cy="0" r="1" gradientUnits="userSpaceOnUse" gradientTransform="translate(201.777 29.5062) rotate(49.7335) scale(23.703 23.5975)">
<stop stop-color="#1C9102"/>
<stop offset="1" stop-color="#6ABD50"/>
</radialGradient>
</defs>
</svg>
