<svg width="158" height="225" viewBox="0 0 158 225" fill="none" xmlns="http://www.w3.org/2000/svg">
<path fill-rule="evenodd" clip-rule="evenodd" d="M100.537 212.258C102.387 212.258 103.885 213.758 103.885 215.609C103.885 217.459 102.387 218.959 100.537 218.959C98.6877 218.959 97.1887 217.459 97.1887 215.609C97.1887 213.758 98.6877 212.258 100.537 212.258ZM22.2114 215.623C22.2114 213.772 23.7103 212.272 25.5598 212.272C27.4092 212.272 28.9081 213.772 28.9081 215.623C28.9081 217.474 27.4092 218.974 25.5598 218.974C23.7103 218.974 22.2114 217.474 22.2114 215.623ZM29.3128 215.623C29.3128 213.772 30.8117 212.272 32.6611 212.272C34.5105 212.272 36.0095 213.772 36.0095 215.623C36.0095 217.474 34.5105 218.974 32.6611 218.974C30.8117 218.974 29.3128 217.474 29.3128 215.623ZM58.0687 177.017C59.9181 177.017 61.417 178.517 61.417 180.367C61.417 182.218 59.9181 183.718 58.0687 183.718C56.2192 183.718 54.7203 182.218 54.7203 180.367C54.7203 178.517 56.2192 177.017 58.0687 177.017ZM58.0687 184.123C59.9181 184.123 61.417 185.623 61.417 187.474C61.417 189.325 59.9181 190.825 58.0687 190.825C56.2192 190.825 54.7203 189.325 54.7203 187.474C54.7203 185.623 56.2192 184.123 58.0687 184.123Z" fill="#6ABD50"/>
<path fill-rule="evenodd" clip-rule="evenodd" d="M114.039 201.173C114.039 206.726 109.542 211.228 103.991 211.228H103.637H80.1818H77.2096H71.2538H67.9054H62.8672H62.323H51.1609H50.0181H45.567H43.3357V197.831C41.4863 197.831 39.9874 199.331 39.9874 201.182V204.527V206.76V211.228H23.1231C17.5748 211.228 13.0752 206.728 13.0752 201.173C13.0752 195.621 17.572 191.118 23.1231 191.118H33.6383L29.1729 197.82H23.1231C21.2737 197.82 19.7747 199.32 19.7747 201.17C19.7747 203.021 21.2737 204.521 23.1231 204.521H33.2878V201.176C33.2878 195.624 37.7846 191.121 43.3357 191.121H50.021V204.518H51.1637C53.0131 204.518 54.5121 203.018 54.5121 201.168V191.121L61.2087 195.59V201.168C61.2087 202.343 61.0064 203.472 60.636 204.518H62.3258C64.1752 204.518 65.6742 203.018 65.6742 201.168V195.59L72.3709 191.121V201.168C72.3709 202.325 72.1742 203.438 71.8152 204.473C73.3967 204.205 74.605 202.827 74.605 201.168V195.59L81.3017 191.121V201.168C81.3017 202.325 81.1051 203.438 80.746 204.473C82.3276 204.205 83.5358 202.827 83.5358 201.168V195.59L90.2325 191.121V201.168C90.2325 202.343 90.0302 203.472 89.6597 204.518H103.643H103.996C105.846 204.518 107.345 203.018 107.345 201.168C107.345 199.317 105.846 197.817 103.996 197.817H97.3054H95.0712L91.7229 191.115H103.996C109.687 191.115 114.044 195.747 114.044 201.17L114.039 201.173ZM136.058 210.059C141.15 209.572 145.134 205.277 145.134 200.053V173.25L138.437 179.951V200.053C138.437 201.567 137.434 202.844 136.058 203.261V201.173C136.058 195.621 131.561 191.118 126.01 191.118C120.462 191.118 115.962 195.618 115.962 201.173C115.962 204.15 115.962 207.128 115.962 210.105H118.327H129.358V214.571C129.358 216.421 127.859 217.921 126.01 217.921C124.161 217.921 122.662 216.421 122.662 214.571V211.693L115.965 215.044V214.571C115.965 220.123 120.462 224.626 126.013 224.626C131.561 224.626 136.061 220.126 136.061 214.571V210.056L136.058 210.059ZM122.662 203.403H129.358V201.173C129.358 199.323 127.859 197.823 126.01 197.823C124.161 197.823 122.662 199.323 122.662 201.173V203.403Z" fill="white"/>
<path fill-rule="evenodd" clip-rule="evenodd" d="M72.9256 160.06L2.47597 89.0994C-0.825324 85.7773 -0.825324 80.329 2.47597 76.9404L79 0L155.524 77.0068C158.825 80.329 158.825 85.7772 155.524 89.1658L85.0084 160.06C81.7071 163.382 76.2929 163.382 72.9256 160.06Z" fill="url(#paint0_radial_534_281)"/>
<path fill-rule="evenodd" clip-rule="evenodd" d="M107.457 107.902C92.5351 107.902 80.4524 95.7435 80.4524 80.7275V15.481L98.4115 33.5533V80.7275C98.4115 85.7107 102.439 89.7637 107.391 89.7637C112.343 89.7637 116.37 85.7107 116.37 80.7275V62.7216L134.33 80.7939C134.396 95.8099 122.313 107.902 107.457 107.902ZM50.4766 107.902C65.3985 107.902 77.4813 95.7435 77.4813 80.7275V15.481L59.5222 33.5533V80.7275C59.5222 85.7107 55.4946 89.7637 50.5427 89.7637C45.5907 89.7637 41.5631 85.7107 41.5631 80.7275V62.7216L23.5381 80.7939C23.5381 95.8099 35.6208 107.902 50.4766 107.902Z" fill="white"/>
<defs>
<radialGradient id="paint0_radial_534_281" cx="0" cy="0" r="1" gradientUnits="userSpaceOnUse" gradientTransform="translate(123.186 39.1442) rotate(49.695) scale(54.0295 53.801)">
<stop stop-color="#1C9102"/>
<stop offset="1" stop-color="#6ABD50"/>
</radialGradient>
</defs>
</svg>
