<svg width="158" height="225" viewBox="0 0 158 225" fill="none" xmlns="http://www.w3.org/2000/svg">
<path fill-rule="evenodd" clip-rule="evenodd" d="M36.5915 209.632C36.5915 211.339 37.953 212.705 39.6548 212.705C41.3567 212.705 42.7182 211.339 42.7182 209.632V194.221C42.7182 192.513 41.3567 191.147 39.6548 191.147C37.953 191.147 36.5915 192.513 36.5915 194.221V209.632ZM57.0563 209.632C57.0563 211.339 58.4177 212.705 60.1196 212.705C61.8214 212.705 63.1829 211.339 63.1829 209.632V194.221C63.1829 192.513 61.8214 191.147 60.1196 191.147C58.4177 191.147 57.0563 192.513 57.0563 194.221V209.632ZM60.1196 185C65.2251 185 69.3096 189.141 69.3096 194.221V209.632C69.3096 214.755 65.1826 218.853 60.1196 218.853C55.014 218.853 50.9296 214.712 50.9296 209.632V194.221C50.9296 189.141 55.0566 185 60.1196 185ZM39.6548 185C44.7604 185 48.8448 189.141 48.8448 194.221V209.632C48.8448 214.755 44.7178 218.853 39.6548 218.853C34.5493 218.853 30.4648 214.712 30.4648 209.632V194.221C30.4648 189.141 34.5918 185 39.6548 185Z" fill="#1D9E00"/>
<path fill-rule="evenodd" clip-rule="evenodd" d="M19.19 218.895C14.0845 218.895 10 214.755 10 209.674V185L16.1267 191.147V209.632C16.1267 211.339 17.4882 212.705 19.19 212.705C20.8919 212.705 22.2533 211.339 22.2533 209.632V203.485L28.38 209.632C28.4225 214.755 24.2956 218.895 19.19 218.895ZM140.957 218.895V190.678L147.084 195.288V218.895H140.957ZM120.493 191.19V185H132.789H138.915V191.147H132.789V218.853H126.662V191.147H120.493V191.19ZM118.45 209.632C118.45 214.755 114.323 218.853 109.26 218.853C104.155 218.853 100.07 214.712 100.07 209.632V207.583H106.197V209.632C106.197 211.339 107.559 212.705 109.26 212.705C110.962 212.705 112.324 211.339 112.324 209.632V205.832C112.324 205.107 111.728 204.509 111.005 204.509H106.197C102.836 204.509 100.07 201.734 100.07 198.362C100.07 196.313 100.07 196.313 100.07 194.264C100.07 189.141 104.197 185.043 109.26 185.043C114.366 185.043 118.45 189.184 118.45 194.264V196.313H112.324V194.264C112.324 192.556 110.962 191.19 109.26 191.19C107.559 191.19 106.197 192.556 106.197 194.264V196.612C106.197 197.593 106.963 198.362 107.942 198.362H112.154C115.642 198.362 118.493 201.222 118.493 204.723C118.45 206.686 118.45 207.668 118.45 209.632ZM97.9857 218.895V190.678L91.8591 195.288V218.895H97.9857ZM80.5843 185C85.6898 185 89.7743 189.141 89.7743 194.221V198.319H83.6476V194.221C83.6476 192.513 82.2861 191.147 80.5843 191.147C78.8824 191.147 77.521 192.513 77.521 194.221V209.632C77.521 211.339 78.8824 212.705 80.5843 212.705C82.2861 212.705 83.6476 211.339 83.6476 209.632H81.4352V203.485H83.6476H89.3914H89.8168V205.534V209.632V218.853L83.6902 225V218.298C82.7116 218.639 81.6905 218.81 80.6268 218.81C75.5213 218.81 71.4368 214.669 71.4368 209.589V194.178C71.3943 189.141 75.5213 185 80.5843 185Z" fill="#1D9E00"/>
<path fill-rule="evenodd" clip-rule="evenodd" d="M91.8591 188.116C91.8591 186.409 93.2206 185.042 94.9225 185.042C96.6243 185.042 97.9858 186.409 97.9858 188.116C97.9858 189.824 96.6243 191.19 94.9225 191.19C93.2206 191.19 91.8591 189.781 91.8591 188.116Z" fill="black"/>
<path fill-rule="evenodd" clip-rule="evenodd" d="M140.957 188.116C140.957 186.409 142.319 185.042 144.021 185.042C145.723 185.042 147.084 186.409 147.084 188.116C147.084 189.824 145.723 191.19 144.021 191.19C142.361 191.19 140.957 189.781 140.957 188.116Z" fill="black"/>
<path fill-rule="evenodd" clip-rule="evenodd" d="M72.9256 160.06L2.47597 89.0994C-0.825324 85.7773 -0.825324 80.329 2.47597 76.9404L79 0L155.524 77.0068C158.825 80.329 158.825 85.7772 155.524 89.1658L85.0084 160.06C81.7071 163.382 76.2929 163.382 72.9256 160.06Z" fill="black"/>
<path fill-rule="evenodd" clip-rule="evenodd" d="M107.457 107.902C92.5354 107.902 80.4527 95.7435 80.4527 80.7275V15.481L98.4117 33.5533V80.7275C98.4117 85.7107 102.439 89.7637 107.391 89.7637C112.343 89.7637 116.371 85.7107 116.371 80.7275V62.7216L134.33 80.7939C134.396 95.8099 122.313 107.902 107.457 107.902ZM50.4769 107.902C65.3987 107.902 77.4815 95.7435 77.4815 80.7275V15.481L59.5224 33.5533V80.7275C59.5224 85.7107 55.4949 89.7637 50.5429 89.7637C45.591 89.7637 41.5634 85.7107 41.5634 80.7275V62.7216L23.5383 80.7939C23.5383 95.8099 35.6211 107.902 50.4769 107.902Z" fill="white"/>
</svg>
