<svg width="229" height="96" viewBox="0 0 229 96" fill="none" xmlns="http://www.w3.org/2000/svg">
<path fill-rule="evenodd" clip-rule="evenodd" d="M90.6439 60.649C92.3183 60.649 93.6423 62.0224 93.6423 63.6704C93.6423 65.3577 92.2794 66.6919 90.6439 66.6919C88.9694 66.6919 87.6454 65.3185 87.6454 63.6704C87.6065 62.0224 88.9694 60.649 90.6439 60.649ZM20.2002 63.7097C20.2002 62.0224 21.5631 60.6882 23.1986 60.6882C24.8341 60.6882 26.1971 62.0616 26.1971 63.7097C26.1971 65.397 24.8341 66.7311 23.1986 66.7311C21.5631 66.7311 20.2002 65.397 20.2002 63.7097ZM26.5865 63.7097C26.5865 62.0224 27.9494 60.6882 29.5849 60.6882C31.2204 60.6882 32.5833 62.0616 32.5833 63.7097C32.5833 65.397 31.2204 66.7311 29.5849 66.7311C27.9494 66.7311 26.5865 65.397 26.5865 63.7097ZM52.4431 28.7471C54.1175 28.7471 55.4415 30.1205 55.4415 31.7685C55.4415 33.4166 54.0786 34.79 52.4431 34.79C50.7686 34.79 49.4446 33.4166 49.4446 31.7685C49.4446 30.1205 50.7686 28.7471 52.4431 28.7471ZM52.4431 35.1824C54.1175 35.1824 55.4415 36.5558 55.4415 38.2038C55.4415 39.8519 54.0786 41.2253 52.4431 41.2253C50.7686 41.2253 49.4446 39.8519 49.4446 38.2038C49.4446 36.5558 50.7686 35.1824 52.4431 35.1824Z" fill="#6ABD50"/>
<path fill-rule="evenodd" clip-rule="evenodd" d="M102.755 50.6429C102.755 55.6656 98.7047 59.7465 93.7203 59.7465H93.4088H72.3419H69.655H64.2812H61.2828H56.7657H56.2594H46.2127H45.2003H41.1894H39.1645V47.6214C37.49 47.6214 36.166 48.9948 36.166 50.6429V53.6643V55.7048V59.7465H21.0181C16.0337 59.7465 11.9839 55.6656 11.9839 50.6429C11.9839 45.6202 16.0337 41.5393 21.0181 41.5393H30.4807L26.4698 47.6214H21.0181C19.3437 47.6214 18.0197 48.9948 18.0197 50.6429C18.0197 52.3302 19.3826 53.6643 21.0181 53.6643H30.1692V50.6429C30.1692 45.6202 34.219 41.5393 39.2034 41.5393H45.2003V53.6643H46.2517C47.9261 53.6643 49.2501 52.2909 49.2501 50.6429V41.5393L55.2859 45.581V50.6429C55.2859 51.7024 55.0912 52.7226 54.7797 53.6643H56.2984C57.9728 53.6643 59.2968 52.2909 59.2968 50.6429V45.581L65.3326 41.5393V50.6429C65.3326 51.7024 65.1379 52.6833 64.8264 53.6251C66.2672 53.3897 67.3186 52.134 67.3186 50.6429V45.581L73.3544 41.5393V50.6429C73.3544 51.7024 73.1597 52.6833 72.8481 53.6251C74.289 53.3897 75.3403 52.134 75.3403 50.6429V45.581L81.3762 41.5393V50.6429C81.3762 51.7024 81.1814 52.7226 80.8699 53.6643H93.4478H93.7593C95.4337 53.6643 96.7577 52.2909 96.7577 50.6429C96.7577 48.9556 95.3948 47.6214 93.7593 47.6214H87.7235H85.6986L82.7001 41.5393H93.7203C98.8605 41.5 102.755 45.6987 102.755 50.6429ZM122.575 58.687C127.17 58.2554 130.753 54.3707 130.753 49.6226V25.3333L124.717 31.4154V49.6226C124.717 50.996 123.821 52.134 122.575 52.5264V50.6429C122.575 45.6202 118.526 41.5393 113.541 41.5393C108.557 41.5393 104.507 45.6202 104.507 50.6429C104.507 53.3504 104.507 56.0187 104.507 58.7263H106.649H116.579V62.768C116.579 64.4553 115.216 65.7894 113.58 65.7894C111.906 65.7894 110.582 64.416 110.582 62.768V60.1781L104.546 63.1996V62.768C104.546 67.7906 108.596 71.8716 113.58 71.8716C118.564 71.8716 122.614 67.7906 122.614 62.768L122.575 58.687ZM110.504 52.6441H116.54V50.6429C116.54 48.9556 115.177 47.6214 113.541 47.6214C111.906 47.6214 110.543 48.9948 110.543 50.6429V52.6441H110.504Z" fill="white"/>
<path fill-rule="evenodd" clip-rule="evenodd" d="M179.745 82.5827L148.863 51.4342C147.416 49.976 147.416 47.5844 148.863 46.097L182.408 12.3237L215.952 46.1262C217.399 47.5844 217.399 49.976 215.952 51.4634L185.041 82.5827C183.594 84.0409 181.221 84.0409 179.745 82.5827Z" fill="url(#paint0_radial_535_289)"/>
<path fill-rule="evenodd" clip-rule="evenodd" d="M194.882 59.6879C188.341 59.6879 183.044 54.3507 183.044 47.7594V19.1191L190.917 27.0521V47.7594C190.917 49.9467 192.682 51.7258 194.853 51.7258C197.024 51.7258 198.789 49.9467 198.789 47.7594V39.8556L206.662 47.7885C206.691 54.3799 201.394 59.6879 194.882 59.6879ZM169.904 59.6879C176.445 59.6879 181.742 54.3507 181.742 47.7594V19.1191L173.87 27.0521V47.7594C173.87 49.9467 172.104 51.7258 169.933 51.7258C167.763 51.7258 165.997 49.9467 165.997 47.7594V39.8556L158.096 47.7885C158.096 54.3799 163.392 59.6879 169.904 59.6879Z" fill="white"/>
<defs>
<radialGradient id="paint0_radial_535_289" cx="0" cy="0" r="1" gradientUnits="userSpaceOnUse" gradientTransform="translate(201.777 29.5062) rotate(49.7335) scale(23.703 23.5975)">
<stop stop-color="#1C9102"/>
<stop offset="1" stop-color="#6ABD50"/>
</radialGradient>
</defs>
</svg>
