<svg width="229" height="96" viewBox="0 0 229 96" fill="none" xmlns="http://www.w3.org/2000/svg">
<path fill-rule="evenodd" clip-rule="evenodd" d="M90.6439 60.6495C92.3183 60.6495 93.6423 62.0229 93.6423 63.6709C93.6423 65.3582 92.2794 66.6924 90.6439 66.6924C88.9694 66.6924 87.6454 65.319 87.6454 63.6709C87.6065 62.0229 88.9694 60.6495 90.6439 60.6495ZM20.2002 63.7102C20.2002 62.0229 21.5631 60.6887 23.1986 60.6887C24.8341 60.6887 26.1971 62.0621 26.1971 63.7102C26.1971 65.3975 24.8341 66.7316 23.1986 66.7316C21.5631 66.7316 20.2002 65.3975 20.2002 63.7102ZM26.5865 63.7102C26.5865 62.0229 27.9494 60.6887 29.5849 60.6887C31.2204 60.6887 32.5833 62.0621 32.5833 63.7102C32.5833 65.3975 31.2204 66.7316 29.5849 66.7316C27.9494 66.7316 26.5865 65.3975 26.5865 63.7102ZM52.4431 28.7476C54.1175 28.7476 55.4415 30.121 55.4415 31.769C55.4415 33.4171 54.0786 34.7905 52.4431 34.7905C50.7686 34.7905 49.4446 33.4171 49.4446 31.769C49.4446 30.121 50.7686 28.7476 52.4431 28.7476ZM52.4431 35.1829C54.1175 35.1829 55.4415 36.5563 55.4415 38.2043C55.4415 39.8524 54.0786 41.2258 52.4431 41.2258C50.7686 41.2258 49.4446 39.8524 49.4446 38.2043C49.4446 36.5563 50.7686 35.1829 52.4431 35.1829Z" fill="black"/>
<path fill-rule="evenodd" clip-rule="evenodd" d="M102.754 50.6431C102.754 55.6658 98.7046 59.7467 93.7202 59.7467H93.4086H72.3417H69.6548H64.281H61.2826H56.7655H56.2592H46.2125H45.2001H41.1892H39.1643V47.6217C37.4898 47.6217 36.1659 48.9951 36.1659 50.6431V53.6646V55.705V59.7467H21.0179C16.0335 59.7467 11.9837 55.6658 11.9837 50.6431C11.9837 45.6204 16.0335 41.5395 21.0179 41.5395H30.4805L26.4696 47.6217H21.0179C19.3435 47.6217 18.0195 48.9951 18.0195 50.6431C18.0195 52.3304 19.3824 53.6646 21.0179 53.6646H30.169V50.6431C30.169 45.6204 34.2188 41.5395 39.2032 41.5395H45.2001V53.6646H46.2515C47.9259 53.6646 49.2499 52.2912 49.2499 50.6431V41.5395L55.2857 45.5812V50.6431C55.2857 51.7026 55.091 52.7228 54.7795 53.6646H56.2982C57.9726 53.6646 59.2966 52.2912 59.2966 50.6431V45.5812L65.3324 41.5395V50.6431C65.3324 51.7026 65.1377 52.6836 64.8262 53.6253C66.267 53.3899 67.3184 52.1342 67.3184 50.6431V45.5812L73.3542 41.5395V50.6431C73.3542 51.7026 73.1595 52.6836 72.848 53.6253C74.2888 53.3899 75.3402 52.1342 75.3402 50.6431V45.5812L81.376 41.5395V50.6431C81.376 51.7026 81.1813 52.7228 80.8697 53.6646H93.4476H93.7591C95.4335 53.6646 96.7575 52.2912 96.7575 50.6431C96.7575 48.9558 95.3946 47.6217 93.7591 47.6217H87.7233H85.6984L82.7 41.5395H93.7202C98.8603 41.5003 102.754 45.6989 102.754 50.6431ZM122.575 58.6873C127.17 58.2556 130.753 54.3709 130.753 49.6229V25.3335L124.717 31.4157V49.6229C124.717 50.9963 123.821 52.1342 122.575 52.5266V50.6431C122.575 45.6204 118.525 41.5395 113.541 41.5395C108.557 41.5395 104.507 45.6204 104.507 50.6431C104.507 53.3507 104.507 56.019 104.507 58.7265H106.648H116.578V62.7682C116.578 64.4555 115.215 65.7897 113.58 65.7897C111.905 65.7897 110.581 64.4163 110.581 62.7682V60.1784L104.546 63.1998V62.7682C104.546 67.7909 108.595 71.8718 113.58 71.8718C118.564 71.8718 122.614 67.7909 122.614 62.7682L122.575 58.6873ZM110.504 52.6444H116.539V50.6431C116.539 48.9558 115.176 47.6217 113.541 47.6217C111.905 47.6217 110.543 48.9951 110.543 50.6431V52.6444H110.504Z" fill="#1D9E00"/>
<path fill-rule="evenodd" clip-rule="evenodd" d="M179.745 82.5827L148.863 51.4342C147.416 49.976 147.416 47.5844 148.863 46.097L182.408 12.3237L215.952 46.1262C217.399 47.5844 217.399 49.976 215.952 51.4634L185.041 82.5827C183.594 84.0409 181.221 84.0409 179.745 82.5827Z" fill="#121212"/>
<path fill-rule="evenodd" clip-rule="evenodd" d="M194.882 59.6879C188.341 59.6879 183.044 54.3507 183.044 47.7594V19.1191L190.917 27.0521V47.7594C190.917 49.9467 192.682 51.7258 194.853 51.7258C197.024 51.7258 198.789 49.9467 198.789 47.7594V39.8556L206.662 47.7885C206.691 54.3799 201.394 59.6879 194.882 59.6879ZM169.904 59.6879C176.445 59.6879 181.742 54.3507 181.742 47.7594V19.1191L173.869 27.0521V47.7594C173.869 49.9467 172.104 51.7258 169.933 51.7258C167.762 51.7258 165.997 49.9467 165.997 47.7594V39.8556L158.096 47.7885C158.096 54.3799 163.392 59.6879 169.904 59.6879Z" fill="white"/>
</svg>
