<svg width="120" height="47" viewBox="0 0 120 47" fill="none" xmlns="http://www.w3.org/2000/svg">
<path fill-rule="evenodd" clip-rule="evenodd" d="M79.2722 35.3557C80.9485 35.3557 82.307 36.7152 82.307 38.3927C82.307 40.0701 80.9485 41.4296 79.2722 41.4296C77.596 41.4296 76.2374 40.0701 76.2374 38.3927C76.2374 36.7152 77.596 35.3557 79.2722 35.3557ZM8.28076 38.4056C8.28076 36.7281 9.63933 35.3686 11.3156 35.3686C12.9918 35.3686 14.3504 36.7281 14.3504 38.4056C14.3504 40.083 12.9918 41.4426 11.3156 41.4426C9.63933 41.4426 8.28076 40.083 8.28076 38.4056ZM14.7172 38.4056C14.7172 36.7281 16.0757 35.3686 17.752 35.3686C19.4282 35.3686 20.7868 36.7281 20.7868 38.4056C20.7868 40.083 19.4282 41.4426 17.752 41.4426C16.0757 41.4426 14.7172 40.083 14.7172 38.4056ZM40.7804 3.41431C42.4567 3.41431 43.8152 4.77384 43.8152 6.45129C43.8152 8.12875 42.4567 9.48828 40.7804 9.48828C39.1042 9.48828 37.7456 8.12875 37.7456 6.45129C37.7456 4.77384 39.1042 3.41431 40.7804 3.41431ZM40.7804 9.85531C42.4567 9.85531 43.8152 11.2148 43.8152 12.8923C43.8152 14.5697 42.4567 15.9293 40.7804 15.9293C39.1042 15.9293 37.7456 14.5697 37.7456 12.8923C37.7456 11.2148 39.1042 9.85531 40.7804 9.85531Z" fill="black"/>
<path fill-rule="evenodd" clip-rule="evenodd" d="M91.5094 25.3091C91.5094 30.3414 87.4337 34.4226 82.4024 34.4226H82.0821H60.8229H58.129H52.7309H49.6961H45.1297H44.6363H34.5194H33.4837H29.4493H27.427V22.2799C25.7507 22.2799 24.3922 23.6394 24.3922 25.3168V28.3487V30.3725V34.4226H9.10703C4.07828 34.4226 0 30.344 0 25.3091C0 20.2767 4.07569 16.1955 9.10703 16.1955H18.6376L14.5904 22.2695H9.10703C7.43078 22.2695 6.07221 23.6291 6.07221 25.3065C6.07221 26.984 7.43078 28.3435 9.10703 28.3435H18.32V25.3117C18.32 20.2793 22.3957 16.1981 27.427 16.1981H33.4863V28.3409H34.522C36.1983 28.3409 37.5568 26.9814 37.5568 25.3039V16.1981L43.6265 20.2483V25.3039C43.6265 26.3688 43.4431 27.3923 43.1073 28.3409H44.6389C46.3152 28.3409 47.6737 26.9814 47.6737 25.3039V20.2483L53.7434 16.1981V25.3039C53.7434 26.3533 53.5652 27.3613 53.2397 28.2996C54.6732 28.0566 55.7683 26.8082 55.7683 25.3039V20.2483L61.8379 16.1981V25.3039C61.8379 26.3533 61.6597 27.3613 61.3343 28.2996C62.7677 28.0566 63.8629 26.8082 63.8629 25.3039V20.2483L69.9325 16.1981V25.3039C69.9325 26.3688 69.7491 27.3923 69.4134 28.3409H82.0873H82.4075C84.0838 28.3409 85.4423 26.9814 85.4423 25.3039C85.4423 23.6265 84.0838 22.2669 82.4075 22.2669H76.3431H74.3181L71.2833 16.193H82.4075C87.5654 16.193 91.5146 20.3905 91.5146 25.3065L91.5094 25.3091ZM111.467 33.3629C116.082 32.9209 119.693 29.0284 119.693 24.2933V0L113.624 6.07398V24.2933C113.624 25.6658 112.714 26.8237 111.467 27.2011V25.3091C111.467 20.2767 107.391 16.1955 102.36 16.1955C97.3311 16.1955 93.2528 20.2742 93.2528 25.3091C93.2528 28.0075 93.2528 30.7059 93.2528 33.4043H95.3965H105.395V37.4519C105.395 39.1293 104.036 40.4889 102.36 40.4889C100.684 40.4889 99.325 39.1293 99.325 37.4519V34.8439L93.2554 37.8809V37.4519C93.2554 42.4842 97.3311 46.5654 102.362 46.5654C107.391 46.5654 111.469 42.4868 111.469 37.4519V33.3603L111.467 33.3629ZM99.325 27.3303H105.395V25.3091C105.395 23.6316 104.036 22.2721 102.36 22.2721C100.684 22.2721 99.325 23.6316 99.325 25.3091V27.3303Z" fill="white"/>
</svg>
