<svg width="135" height="53" viewBox="0 0 135 53" fill="none" xmlns="http://www.w3.org/2000/svg">
<path fill-rule="evenodd" clip-rule="evenodd" d="M89.2064 39.8681C91.0927 39.8681 92.6215 41.398 92.6215 43.2857C92.6215 45.1733 91.0927 46.7033 89.2064 46.7033C87.3201 46.7033 85.7912 45.1733 85.7912 43.2857C85.7912 41.398 87.3201 39.8681 89.2064 39.8681ZM9.31824 43.3002C9.31824 41.4126 10.8471 39.8826 12.7334 39.8826C14.6197 39.8826 16.1485 41.4126 16.1485 43.3002C16.1485 45.1879 14.6197 46.7178 12.7334 46.7178C10.8471 46.7178 9.31824 45.1879 9.31824 43.3002ZM16.5612 43.3002C16.5612 41.4126 18.0901 39.8826 19.9764 39.8826C21.8627 39.8826 23.3915 41.4126 23.3915 43.3002C23.3915 45.1879 21.8627 46.7178 19.9764 46.7178C18.0901 46.7178 16.5612 45.1879 16.5612 43.3002ZM45.8908 3.92383C47.7771 3.92383 49.3059 5.45374 49.3059 7.34141C49.3059 9.22908 47.7771 10.759 45.8908 10.759C44.0044 10.759 42.4756 9.22908 42.4756 7.34141C42.4756 5.45374 44.0044 3.92383 45.8908 3.92383ZM45.8908 11.172C47.7771 11.172 49.3059 12.7019 49.3059 14.5896C49.3059 16.4773 47.7771 18.0072 45.8908 18.0072C44.0044 18.0072 42.4756 16.4773 42.4756 14.5896C42.4756 12.7019 44.0044 11.172 45.8908 11.172Z" fill="#1D9E00"/>
<path fill-rule="evenodd" clip-rule="evenodd" d="M102.977 28.5629C102.977 34.2259 98.3909 38.8185 92.7291 38.8185H92.3687H68.4452H65.4138H59.3392H55.924H50.7853H50.2302H38.8454H37.6799H33.1399H30.8642V25.154C28.9778 25.154 27.449 26.6839 27.449 28.5716V31.9834V34.2608V38.8185H10.2483C4.58937 38.8185 0 34.2288 0 28.5629C0 22.8999 4.58646 18.3072 10.2483 18.3072H20.9733L16.4188 25.1424H10.2483C8.36201 25.1424 6.83319 26.6723 6.83319 28.56C6.83319 30.4476 8.36201 31.9776 10.2483 31.9776H20.6158V28.5658C20.6158 22.9028 25.2023 18.3101 30.8642 18.3101H37.6828V31.9746H38.8483C40.7346 31.9746 42.2635 30.4447 42.2635 28.5571V18.3101L49.0937 22.8679V28.5571C49.0937 29.7554 48.8874 30.9072 48.5095 31.9746H50.2331C52.1194 31.9746 53.6482 30.4447 53.6482 28.5571V22.8679L60.4785 18.3101V28.5571C60.4785 29.7379 60.278 30.8723 59.9117 31.9281C61.5248 31.6547 62.7572 30.2499 62.7572 28.5571V22.8679L69.5875 18.3101V28.5571C69.5875 29.7379 69.3869 30.8723 69.0207 31.9281C70.6338 31.6547 71.8662 30.2499 71.8662 28.5571V22.8679L78.6965 18.3101V28.5571C78.6965 29.7554 78.4901 30.9072 78.1123 31.9746H92.3745H92.7349C94.6212 31.9746 96.15 30.4447 96.15 28.5571C96.15 26.6694 94.6212 25.1395 92.7349 25.1395H85.9104H83.6317L80.2166 18.3043H92.7349C98.5392 18.3043 102.983 23.0278 102.983 28.56L102.977 28.5629ZM125.436 37.626C130.63 37.1287 134.693 32.7483 134.693 27.4198V0.0820312L127.863 6.9172V27.4198C127.863 28.9643 126.84 30.2673 125.436 30.692V28.5629C125.436 22.8999 120.849 18.3072 115.188 18.3072C109.529 18.3072 104.939 22.897 104.939 28.5629C104.939 31.5994 104.939 34.636 104.939 37.6726H107.352H118.603V42.2274C118.603 44.1151 117.074 45.645 115.188 45.645C113.301 45.645 111.772 44.1151 111.772 42.2274V39.2926L104.942 42.7102V42.2274C104.942 47.8904 109.529 52.4831 115.191 52.4831C120.849 52.4831 125.439 47.8933 125.439 42.2274V37.6231L125.436 37.626ZM111.772 30.8374H118.603V28.5629C118.603 26.6752 117.074 25.1453 115.188 25.1453C113.301 25.1453 111.772 26.6752 111.772 28.5629V30.8374Z" fill="white"/>
</svg>
