<svg width="166" height="169" viewBox="0 0 166 169" fill="none" xmlns="http://www.w3.org/2000/svg">
<path fill-rule="evenodd" clip-rule="evenodd" d="M76.376 166.444L2.90161 92.6529C-0.541423 89.1983 -0.541423 83.5327 2.90161 80.009L82.7112 0L162.521 80.0781C165.964 83.5327 165.964 89.1983 162.521 92.722L88.9775 166.444C85.5345 169.898 79.8879 169.898 76.376 166.444Z" fill="url(#paint0_radial_2_108)"/>
<path fill-rule="evenodd" clip-rule="evenodd" d="M112.39 112.206C96.8276 112.206 84.2261 99.5621 84.2261 83.9472V16.0985L102.956 34.8916V83.9472C102.956 89.1292 107.157 93.3438 112.321 93.3438C117.486 93.3438 121.686 89.1292 121.686 83.9472V65.2232L140.416 84.0163C140.485 99.6312 127.884 112.206 112.39 112.206ZM52.9633 112.206C68.5258 112.206 81.1274 99.5621 81.1274 83.9472V16.0985L62.3973 34.8916V83.9472C62.3973 89.1292 58.1967 93.3438 53.0322 93.3438C47.8676 93.3438 43.6671 89.1292 43.6671 83.9472V65.2232L24.8682 84.0163C24.8682 99.6312 37.4697 112.206 52.9633 112.206Z" fill="white"/>
<defs>
<radialGradient id="paint0_radial_2_108" cx="0" cy="0" r="1" gradientUnits="userSpaceOnUse" gradientTransform="translate(128.794 40.7054) rotate(49.6121) scale(56.2534 56.0421)">
<stop stop-color="#1C9102"/>
<stop offset="1" stop-color="#6ABD50"/>
</radialGradient>
</defs>
</svg>
