<svg width="111" height="74" viewBox="0 0 111 74" fill="none" xmlns="http://www.w3.org/2000/svg">
<path fill-rule="evenodd" clip-rule="evenodd" d="M83.9189 91.4215C68.997 91.4215 56.9143 79.2625 56.9143 64.2465V-1L74.8734 17.0724V64.2465C74.8734 69.2297 78.901 73.2827 83.8529 73.2827C88.8048 73.2827 92.8324 69.2297 92.8324 64.2465V46.2406L110.791 64.313C110.857 79.329 98.7747 91.4215 83.9189 91.4215ZM26.9386 91.4215C41.8604 91.4215 53.9432 79.2625 53.9432 64.2465V-1L35.9841 17.0724V64.2465C35.9841 69.2297 31.9565 73.2827 27.0046 73.2827C22.0526 73.2827 18.0251 69.2297 18.0251 64.2465V46.2406L0 64.313C0 79.329 12.0827 91.4215 26.9386 91.4215Z" fill="#58B13C"/>
</svg>
