<svg width="38" height="38" viewBox="0 0 38 38" fill="none" xmlns="http://www.w3.org/2000/svg">
<path d="M23.75 3.16675V19.0001C23.75 20.7417 22.325 22.1667 20.5834 22.1667H3.16669V12.0651C4.32252 13.4426 6.0959 14.2976 8.05923 14.2501C9.6584 14.2184 11.0992 13.6009 12.1759 12.5718C12.6667 12.1601 13.0784 11.6376 13.3951 11.0676C13.9651 10.1017 14.2817 8.96171 14.25 7.77421C14.2025 5.92171 13.3792 4.29091 12.0967 3.16675H23.75Z" stroke="#1D9E00" stroke-width="2" stroke-linecap="round" stroke-linejoin="round"/>
<path d="M32.1258 14.25H30.0833C29.2125 14.25 28.5 14.9625 28.5 15.8333V20.5833C28.5 21.4542 29.2125 22.1667 30.0833 22.1667H34.8333V26.9167C34.8333 29.545 32.7117 31.6667 30.0833 31.6667H28.5C28.5 29.925 27.075 28.5 25.3333 28.5C23.5917 28.5 22.1667 29.925 22.1667 31.6667H15.8333C15.8333 29.925 14.4083 28.5 12.6667 28.5C10.925 28.5 9.5 29.925 9.5 31.6667H7.91667C6.23833 31.6667 4.7658 30.7958 3.92664 29.4975" stroke="#1D9E00" stroke-width="2" stroke-linecap="round" stroke-linejoin="round"/>
<path d="M3.16669 22.1667H20.5834C22.325 22.1667 23.75 20.7417 23.75 19.0001V7.91675H26.6634C27.2334 7.91675 27.7875 8.07511 28.2625 8.34428" stroke="#1D9E00" stroke-width="2" stroke-linecap="round" stroke-linejoin="round"/>
<path d="M12.6667 34.8333C14.4156 34.8333 15.8333 33.4156 15.8333 31.6667C15.8333 29.9178 14.4156 28.5 12.6667 28.5C10.9178 28.5 9.5 29.9178 9.5 31.6667C9.5 33.4156 10.9178 34.8333 12.6667 34.8333Z" stroke="#1D9E00" stroke-width="2" stroke-linecap="round" stroke-linejoin="round"/>
<path d="M25.3334 34.8333C27.0823 34.8333 28.5 33.4156 28.5 31.6667C28.5 29.9178 27.0823 28.5 25.3334 28.5C23.5845 28.5 22.1667 29.9178 22.1667 31.6667C22.1667 33.4156 23.5845 34.8333 25.3334 34.8333Z" stroke="#1D9E00" stroke-width="2" stroke-linecap="round" stroke-linejoin="round"/>
<path d="M34.8333 19V22.1667H30.0833C29.2125 22.1667 28.5 21.4542 28.5 20.5833V15.8333C28.5 14.9625 29.2125 14.25 30.0833 14.25H32.1258L34.8333 19Z" stroke="#1D9E00" stroke-width="2" stroke-linecap="round" stroke-linejoin="round"/>
<path d="M14.25 7.77426C14.2816 8.96176 13.965 10.1018 13.395 11.0676C13.0783 11.6376 12.6666 12.1601 12.1758 12.5718C11.0991 13.601 9.65834 14.2185 8.05918 14.2501C6.09584 14.2976 4.32247 13.4426 3.16663 12.0651C2.94497 11.8276 2.75497 11.5585 2.58081 11.2893C1.96331 10.3551 1.61497 9.24684 1.5833 8.05934C1.5358 6.06434 2.42246 4.24345 3.84746 3.05595C4.92412 2.16929 6.28576 1.61513 7.77409 1.58347C9.43659 1.5518 10.9567 2.15347 12.0967 3.1668C13.3792 4.29097 14.2025 5.92176 14.25 7.77426Z" stroke="#1D9E00" stroke-width="2" stroke-miterlimit="10" stroke-linecap="round" stroke-linejoin="round"/>
<path d="M5.44666 7.96431L7.04584 9.48425L10.355 6.28589" stroke="#1D9E00" stroke-width="2" stroke-linecap="round" stroke-linejoin="round"/>
</svg>
