<svg width="14" height="14" viewBox="0 0 14 14" fill="none" xmlns="http://www.w3.org/2000/svg">
<g clip-path="url(#clip0_406_9759)">
<path d="M1.5 5.5H2.5C2.63261 5.5 2.75979 5.55268 2.85355 5.64645C2.94732 5.74021 3 5.86739 3 6V9C3 9.13261 2.94732 9.25979 2.85355 9.35355C2.75979 9.44732 2.63261 9.5 2.5 9.5H1.5C1.23478 9.5 0.98043 9.39464 0.792893 9.20711C0.605357 9.01957 0.5 8.76522 0.5 8.5V6.5C0.5 6.23478 0.605357 5.98043 0.792893 5.79289C0.98043 5.60536 1.23478 5.5 1.5 5.5V5.5Z" stroke="black" stroke-linecap="round" stroke-linejoin="round"/>
<path d="M12.5 9.5H11.5C11.3674 9.5 11.2402 9.44732 11.1464 9.35355C11.0527 9.25979 11 9.13261 11 9V6C11 5.86739 11.0527 5.74021 11.1464 5.64645C11.2402 5.55268 11.3674 5.5 11.5 5.5H12.5C12.7652 5.5 13.0196 5.60536 13.2071 5.79289C13.3946 5.98043 13.5 6.23478 13.5 6.5V8.5C13.5 8.76522 13.3946 9.01957 13.2071 9.20711C13.0196 9.39464 12.7652 9.5 12.5 9.5V9.5Z" stroke="black" stroke-linecap="round" stroke-linejoin="round"/>
<path d="M9 12.25C9.53043 12.25 10.0391 12.0393 10.4142 11.6642C10.7893 11.2891 11 10.7804 11 10.25V8" stroke="black" stroke-linecap="round" stroke-linejoin="round"/>
<path d="M9 12.25C9 12.5815 8.8683 12.8995 8.63388 13.1339C8.39946 13.3683 8.08152 13.5 7.75 13.5H6.25C5.91848 13.5 5.60054 13.3683 5.36612 13.1339C5.1317 12.8995 5 12.5815 5 12.25C5 11.9185 5.1317 11.6005 5.36612 11.3661C5.60054 11.1317 5.91848 11 6.25 11H7.75C8.08152 11 8.39946 11.1317 8.63388 11.3661C8.8683 11.6005 9 11.9185 9 12.25Z" stroke="black" stroke-linecap="round" stroke-linejoin="round"/>
<path fill-rule="evenodd" clip-rule="evenodd" d="M5.67171 1.23798C6.09152 1.0725 6.53986 0.991486 6.99104 0.999575C6.99701 0.999682 7.00299 0.999682 7.00896 0.999575C7.46014 0.991486 7.90848 1.0725 8.32829 1.23798C8.7481 1.40346 9.13113 1.65015 9.45544 1.96392C9.77974 2.27769 10.039 2.65236 10.2182 3.06648C10.397 3.47948 10.4927 3.9236 10.5 4.37355V6.99965C10.5 7.2758 10.7239 7.49965 11 7.49965C11.2761 7.49965 11.5 7.2758 11.5 6.99965V4.36965H11.5001L11.4999 4.3621C11.4911 3.77936 11.3674 3.20409 11.1359 2.66924C10.9044 2.13439 10.5696 1.65048 10.1508 1.24523C9.73191 0.839987 9.23721 0.521374 8.695 0.30765C8.15558 0.0950204 7.57969 -0.00963609 7 -0.000416325C6.42031 -0.00963609 5.84442 0.0950205 5.305 0.30765C4.76279 0.521374 4.26809 0.839987 3.84923 1.24523C3.60698 1.47961 3.39285 1.74031 3.21055 2.02196C3.56861 2.09869 3.85556 2.36712 3.95875 2.7146C4.11785 2.4389 4.31488 2.18614 4.54456 1.96392C4.86887 1.65015 5.2519 1.40346 5.67171 1.23798ZM3.55155 3.83403C3.39345 3.93876 3.20385 3.99976 3 3.99976C2.83139 3.99976 2.67252 3.95802 2.53317 3.88433C2.51356 4.04257 2.50248 4.20205 2.50006 4.3621L2.5 4.3621V4.36965V6.99965C2.5 7.2758 2.72386 7.49965 3 7.49965C3.27614 7.49965 3.5 7.2758 3.5 6.99965V4.37356C3.50293 4.19222 3.52024 4.01182 3.55155 3.83403Z" fill="black"/>
</g>
<defs>
<clipPath id="clip0_406_9759">
<rect width="14" height="14" fill="white"/>
</clipPath>
</defs>
</svg>
