<svg width="12" height="12" viewBox="0 0 12 12" fill="none" xmlns="http://www.w3.org/2000/svg">
<path fill-rule="evenodd" clip-rule="evenodd" d="M3.6664 1.90923C4.06831 1.87715 4.44987 1.71911 4.75675 1.45759C5.47287 0.847308 6.52615 0.847308 7.24228 1.45759C7.54916 1.71911 7.93071 1.87715 8.33263 1.90923C9.27054 1.98407 10.0153 2.72885 10.0902 3.66676C10.1222 4.06868 10.2803 4.45024 10.5418 4.75711C11.1521 5.47324 11.1521 6.52652 10.5418 7.24264C10.2803 7.54952 10.1222 7.93108 10.0902 8.33299C10.0153 9.27091 9.27054 10.0157 8.33263 10.0905C7.93071 10.1226 7.54916 10.2807 7.24228 10.5422C6.52615 11.1524 5.47287 11.1524 4.75675 10.5422C4.44987 10.2807 4.06831 10.1226 3.6664 10.0905C2.72848 10.0157 1.98371 9.27091 1.90886 8.33299C1.87679 7.93108 1.71874 7.54952 1.45722 7.24264C0.846942 6.52652 0.846942 5.47324 1.45722 4.75711C1.71874 4.45024 1.87679 4.06868 1.90886 3.66676C1.98371 2.72885 2.72848 1.98407 3.6664 1.90923ZM8.26468 4.26504C8.41113 4.11859 8.41113 3.88116 8.26468 3.73471C8.11824 3.58826 7.8808 3.58826 7.73436 3.73471L3.73436 7.73471C3.58791 7.88116 3.58791 8.11859 3.73436 8.26504C3.8808 8.41149 4.11824 8.41149 4.26469 8.26504L8.26468 4.26504ZM4.49952 3.87487C4.15434 3.87487 3.87452 4.1547 3.87452 4.49987C3.87452 4.84505 4.15434 5.12487 4.49952 5.12487C4.8447 5.12487 5.12452 4.84505 5.12452 4.49987C5.12452 4.1547 4.8447 3.87487 4.49952 3.87487ZM7.49952 6.87487C7.15434 6.87487 6.87452 7.1547 6.87452 7.49987C6.87452 7.84505 7.15434 8.12487 7.49952 8.12487C7.8447 8.12487 8.12452 7.84505 8.12452 7.49987C8.12452 7.1547 7.8447 6.87487 7.49952 6.87487Z" fill="#1D9E00"/>
</svg>
