<svg width="38" height="39" viewBox="0 0 38 39" fill="none" xmlns="http://www.w3.org/2000/svg">
<path d="M23.2117 32.1825L20.805 34.5892C19.8234 35.5708 18.2083 35.5708 17.2267 34.5892L14.82 32.1825C14.4083 31.7708 13.6009 31.4384 13.0309 31.4384H9.62665C8.23332 31.4384 7.09335 30.2982 7.09335 28.9049V25.5009C7.09335 24.9309 6.76085 24.1233 6.34919 23.7117L3.94249 21.305C2.96082 20.3233 2.96082 18.7083 3.94249 17.7266L6.34919 15.3199C6.76085 14.9083 7.09335 14.1008 7.09335 13.5308V10.1266C7.09335 8.73322 8.23332 7.59326 9.62665 7.59326" stroke="#FFC700" stroke-width="2" stroke-linecap="round" stroke-linejoin="round"/>
<path d="M14.7883 6.81751L17.195 4.41081C18.1766 3.42914 19.7917 3.42914 20.7733 4.41081L23.18 6.81751C23.5917 7.22917 24.3992 7.56163 24.9692 7.56163H28.3734C29.7667 7.56163 30.9067 8.70178 30.9067 10.0951V13.4991C30.9067 14.0691 31.2392 14.8766 31.6508 15.2883L34.0575 17.695C35.0392 18.6767 35.0392 20.2917 34.0575 21.2733L31.6508 23.68C31.2392 24.0917 30.9067 24.8992 30.9067 25.4692V28.8734C30.9067 30.2668 29.7667 31.4067 28.3734 31.4067" stroke="#FFC700" stroke-width="2" stroke-linecap="round" stroke-linejoin="round"/>
<path d="M14.25 24.25L23.75 14.75" stroke="#FFC700" stroke-width="2" stroke-linecap="round" stroke-linejoin="round"/>
<path d="M22.9497 23.4584H22.9639" stroke="#FFC700" stroke-width="2" stroke-linecap="round" stroke-linejoin="round"/>
<path d="M15.033 15.5417H15.0472" stroke="#FFC700" stroke-width="2" stroke-linecap="round" stroke-linejoin="round"/>
</svg>
