<svg width="30" height="30" viewBox="0 0 30 30" fill="none" xmlns="http://www.w3.org/2000/svg">
<path d="M8.375 11.5747L15 15.4122L21.575 11.5997" stroke="black" stroke-width="2" stroke-linecap="round" stroke-linejoin="round"/>
<path d="M15 22.2124V15.3999" stroke="black" stroke-width="2" stroke-linecap="round" stroke-linejoin="round"/>
<path d="M7.7876 12.8747C7.7876 11.8372 8.52507 10.5747 9.43757 10.0747L13.4376 7.84966C14.2876 7.37466 15.6876 7.37466 16.5501 7.84966L20.5501 10.0747C21.4501 10.5747 22.2001 11.8372 22.2001 12.8747V17.1122C22.2001 18.1497 21.4626 19.4122 20.5501 19.9122L16.5501 22.1372C15.7001 22.6122 14.3001 22.6122 13.4376 22.1372L9.43757 19.9122C8.98757 19.6622 8.57508 19.2247 8.27508 18.7122" stroke="black" stroke-width="2" stroke-linecap="round" stroke-linejoin="round"/>
<path d="M27.5 18.75C27.5 23.5875 23.5875 27.5 18.75 27.5L20.0625 25.3125" stroke="black" stroke-width="2" stroke-linecap="round" stroke-linejoin="round"/>
<path d="M2.5 11.2498C2.5 6.41226 6.4125 2.49976 11.25 2.49976L9.93751 4.68726" stroke="black" stroke-width="2" stroke-linecap="round" stroke-linejoin="round"/>
</svg>
