<svg width="24" height="24" viewBox="0 0 24 24" fill="none" xmlns="http://www.w3.org/2000/svg">
<g clip-path="url(#clip0_406_14270)">
<path d="M10.2856 23.1258C11.2323 23.1258 11.9999 22.3583 11.9999 21.4116C11.9999 20.4648 11.2323 19.6973 10.2856 19.6973C9.3388 19.6973 8.57129 20.4648 8.57129 21.4116C8.57129 22.3583 9.3388 23.1258 10.2856 23.1258Z" stroke="black" stroke-width="2" stroke-linecap="round" stroke-linejoin="round"/>
<path d="M17.9999 23.1258C18.9467 23.1258 19.7142 22.3583 19.7142 21.4116C19.7142 20.4648 18.9467 19.6973 17.9999 19.6973C17.0532 19.6973 16.2856 20.4648 16.2856 21.4116C16.2856 22.3583 17.0532 23.1258 17.9999 23.1258Z" stroke="black" stroke-width="2" stroke-linecap="round" stroke-linejoin="round"/>
<path d="M14.3657 6.05151C14.1026 4.99472 13.5916 4.01579 12.875 3.19575C12.1584 2.37572 11.2567 1.73816 10.2447 1.33586C9.23272 0.933557 8.13944 0.778082 7.0554 0.882305C5.97136 0.986528 4.92773 1.34745 4.0109 1.93519C3.09408 2.52294 2.33043 3.3206 1.78317 4.26215C1.23591 5.2037 0.920779 6.26206 0.863864 7.34961C0.806949 8.43716 1.00989 9.52263 1.45588 10.5162C1.90187 11.5097 2.57809 12.3827 3.42855 13.0629" stroke="black" stroke-width="2" stroke-linecap="round" stroke-linejoin="round"/>
<path d="M7.71436 7.73159L10.2858 5.16016" stroke="black" stroke-width="2" stroke-linecap="round" stroke-linejoin="round"/>
<path d="M11.1428 16.2858V14.5715H8.57139C7.66208 14.5715 6.79001 14.9328 6.14703 15.5757C5.50405 16.2187 5.14282 17.0908 5.14282 18.0001V21.4287" stroke="black" stroke-width="2" stroke-linecap="round" stroke-linejoin="round"/>
<path d="M23.1428 21.4114V12.84C23.1428 12.3854 22.9622 11.9493 22.6407 11.6278C22.3192 11.3063 21.8832 11.1257 21.4285 11.1257H12.8571C12.4025 11.1257 11.9664 11.3063 11.6449 11.6278C11.3234 11.9493 11.1428 12.3854 11.1428 12.84V16.2686" stroke="black" stroke-width="2" stroke-linecap="round" stroke-linejoin="round"/>
</g>
<defs>
<clipPath id="clip0_406_14270">
<rect width="24" height="24" fill="white"/>
</clipPath>
</defs>
</svg>
