<svg width="18" height="17" viewBox="0 0 18 17" fill="none" xmlns="http://www.w3.org/2000/svg">
<path d="M16.5083 17C14.5407 17 12.5968 16.5712 10.6764 15.7137C8.75602 14.8561 7.0088 13.64 5.43472 12.0653C3.86065 10.4912 2.64483 8.74398 1.78728 6.82361C0.929722 4.90324 0.50063 2.95926 0.5 0.991667C0.5 0.708333 0.594444 0.472222 0.783333 0.283333C0.972222 0.0944444 1.20833 0 1.49167 0H5.31667C5.53704 0 5.7338 0.0749258 5.90694 0.224778C6.08009 0.37463 6.18241 0.551556 6.21389 0.755556L6.82778 4.06111C6.85926 4.31296 6.85139 4.52546 6.80417 4.69861C6.75694 4.87176 6.67037 5.0213 6.54444 5.14722L4.25417 7.46111C4.56898 8.04352 4.94267 8.60609 5.37522 9.14883C5.80778 9.69157 6.28409 10.2151 6.80417 10.7194C7.29213 11.2074 7.8037 11.6601 8.33889 12.0776C8.87407 12.495 9.44074 12.8766 10.0389 13.2222L12.2583 11.0028C12.4 10.8611 12.5851 10.755 12.8137 10.6845C13.0422 10.614 13.2664 10.5941 13.4861 10.625L16.7444 11.2861C16.9648 11.3491 17.1458 11.4634 17.2875 11.6289C17.4292 11.7945 17.5 11.9793 17.5 12.1833V16.0083C17.5 16.2917 17.4056 16.5278 17.2167 16.7167C17.0278 16.9056 16.7917 17 16.5083 17Z" fill="white"/>
</svg>
