<svg width="18" height="18" viewBox="0 0 18 18" fill="none" xmlns="http://www.w3.org/2000/svg">
<path d="M15.75 6.7125V11.91C15.75 13.14 14.745 14.1375 13.5 14.1375H12.93C12.33 14.1375 11.76 14.37 11.34 14.79L10.0575 16.0575C9.47248 16.635 8.52001 16.635 7.93501 16.0575L6.6525 14.79C6.2325 14.37 5.655 14.1375 5.0625 14.1375H4.5C3.255 14.1375 2.25 13.14 2.25 11.91V3.7275C2.25 2.4975 3.255 1.5 4.5 1.5H13.5C14.745 1.5 15.75 2.4975 15.75 3.7275" stroke="black" stroke-miterlimit="10" stroke-linecap="round" stroke-linejoin="round"/>
<path d="M9.05249 6.7126C9.02249 6.7126 8.97747 6.7126 8.93997 6.7126C8.15247 6.6826 7.52997 6.0451 7.52997 5.2501C7.52997 4.4401 8.18248 3.7876 8.99248 3.7876C9.80248 3.7876 10.455 4.4476 10.455 5.2501C10.4625 6.0451 9.83999 6.6901 9.05249 6.7126Z" stroke="black" stroke-linecap="round" stroke-linejoin="round"/>
<path d="M6.9375 11.3925C8.07 12.15 9.93 12.15 11.0625 11.3925C12.06 10.725 12.06 9.63748 11.0625 8.96998C9.93 8.21248 8.07 8.21248 6.9375 8.96998" stroke="black" stroke-linecap="round" stroke-linejoin="round"/>
</svg>
