<svg width="38" height="38" viewBox="0 0 38 38" fill="none" xmlns="http://www.w3.org/2000/svg">
<g clip-path="url(#clip0_406_9870)">
<path d="M35.8014 8.27863C36.3335 7.74009 36.6319 7.01354 36.6319 6.25649C36.6319 5.49943 36.3335 4.77288 35.8014 4.23434L33.7657 2.19863C33.2339 1.70645 32.536 1.43305 31.8114 1.43305C31.0868 1.43305 30.3889 1.70645 29.8571 2.19863L19 12.9201L8.27857 2.19863C7.74003 1.66655 7.01348 1.36816 6.25643 1.36816C5.49937 1.36816 4.77282 1.66655 4.23428 2.19863L2.19857 4.23434C1.66649 4.77288 1.3681 5.49943 1.3681 6.25649C1.3681 7.01354 1.66649 7.74009 2.19857 8.27863L13.0557 19.1358L2.19857 29.8572C1.66649 30.3957 1.3681 31.1223 1.3681 31.8793C1.3681 32.6364 1.66649 33.363 2.19857 33.9015L4.23428 35.9372C4.77282 36.4693 5.49937 36.7677 6.25643 36.7677C7.01348 36.7677 7.74003 36.4693 8.27857 35.9372L19 25.0801L29.8571 35.8015C30.3957 36.3336 31.1222 36.632 31.8793 36.632C32.6363 36.632 33.3629 36.3336 33.9014 35.8015L35.9371 33.7658C36.4692 33.2272 36.7676 32.5007 36.7676 31.7436C36.7676 30.9866 36.4692 30.26 35.9371 29.7215L25.08 19.0001L35.8014 8.27863Z" stroke="#FF0F00" stroke-width="2" stroke-linecap="round" stroke-linejoin="round"/>
</g>
<defs>
<clipPath id="clip0_406_9870">
<rect width="38" height="38" fill="white"/>
</clipPath>
</defs>
</svg>
