<svg width="12" height="12" viewBox="0 0 12 12" fill="none" xmlns="http://www.w3.org/2000/svg">
<path d="M3.47001 4.70994C3.06001 5.09994 2.41501 5.09494 2.00501 4.70994C1.44501 4.17494 0.800012 3.31494 1.03501 2.29994C1.43501 0.569941 4.04001 0.569941 4.43501 2.29994C4.49501 2.54494 4.50001 2.77494 4.47001 2.99994" stroke="black" stroke-linecap="round" stroke-linejoin="round"/>
<path d="M7.535 8.29994C7.935 6.56994 10.555 6.56994 10.955 8.29994C11.19 9.31494 10.545 10.1749 9.98 10.7099C9.57 11.0999 8.92 11.0949 8.51 10.7099C7.945 10.1749 7.3 9.31494 7.535 8.29994Z" stroke="black"/>
<path d="M5.99997 2.5H7.33997C8.26497 2.5 8.69497 3.645 7.99997 4.255L4.00497 7.75C3.30997 8.355 3.73997 9.5 4.65997 9.5H5.99997" stroke="black" stroke-linecap="round" stroke-linejoin="round"/>
<path d="M5.99997 2.5H7.33997C8.26497 2.5 8.69497 3.645 7.99997 4.255L4.00497 7.75C3.30997 8.355 3.73997 9.5 4.65997 9.5H5.99997" stroke="black" stroke-linecap="round" stroke-linejoin="round"/>
<path d="M2.74311 2.75H2.74889" stroke="black" stroke-linecap="round" stroke-linejoin="round"/>
<path d="M9.24311 8.75H9.24889" stroke="black" stroke-linecap="round" stroke-linejoin="round"/>
</svg>
