<svg width="18" height="18" viewBox="0 0 18 18" fill="none" xmlns="http://www.w3.org/2000/svg">
<path d="M11.295 14.5427C10.83 14.8577 10.245 15.1202 9.53251 15.3527L8.34751 15.7427C5.37001 16.7027 3.80251 15.9002 2.83501 12.9227L1.87501 9.9602C0.915012 6.9827 1.71001 5.4077 4.68751 4.4477L5.87251 4.0577C6.18001 3.9602 6.47251 3.8777 6.75001 3.8252C6.52501 4.2827 6.34501 4.8377 6.19501 5.4752L5.46001 8.6177C4.72501 11.7527 5.69251 13.2977 8.82001 14.0402L10.08 14.3402C10.515 14.4452 10.92 14.5127 11.295 14.5427Z" stroke="black" stroke-linecap="round" stroke-linejoin="round"/>
<path d="M9.47998 6.39746L13.1175 7.31996" stroke="black" stroke-linecap="round" stroke-linejoin="round"/>
<path d="M8.745 9.2998L10.92 9.85481" stroke="black" stroke-linecap="round" stroke-linejoin="round"/>
<path d="M15.72 3.82488C16.53 4.72488 16.6725 6.01488 16.245 7.82988L15.51 10.9649C14.88 13.6724 13.635 14.7674 11.295 14.5424C10.92 14.5124 10.515 14.4449 10.08 14.3399L8.82001 14.0399C5.69251 13.2974 4.72501 11.7524 5.46001 8.61738L6.19501 5.47488C6.34501 4.83738 6.52501 4.28238 6.75001 3.82488C7.62751 2.00988 9.12001 1.52238 11.625 2.11488L12.8775 2.40738" stroke="black" stroke-linecap="round" stroke-linejoin="round"/>
</svg>
