<svg width="13" height="13" viewBox="0 0 13 13" fill="none" xmlns="http://www.w3.org/2000/svg">
<path d="M12 9V2L6 5.76923L6.75 9H12Z" fill="white"/>
<path d="M6.49997 7.58337H5.9583C5.36247 7.58337 4.87497 7.09587 4.87497 6.50004V1.08337H9.74997C10.5625 1.08337 11.272 1.53295 11.6404 2.19378" fill="white"/>
<path d="M6.49997 7.58337H5.9583C5.36247 7.58337 4.87497 7.09587 4.87497 6.50004V1.08337H9.74997C10.5625 1.08337 11.272 1.53295 11.6404 2.19378" stroke="#051A00" stroke-linecap="round" stroke-linejoin="round"/>
<path d="M11.9167 9.20837C11.9167 10.1075 11.1909 10.8334 10.2917 10.8334H9.75002C9.75002 10.2375 9.26252 9.75004 8.66669 9.75004C8.07085 9.75004 7.58335 10.2375 7.58335 10.8334H5.41669C5.41669 10.2375 4.92919 9.75004 4.33335 9.75004C3.73752 9.75004 3.25002 10.2375 3.25002 10.8334H2.70835C1.80919 10.8334 1.08335 10.1075 1.08335 9.20837V7.58337H2.70835C3.00627 7.58337 3.25002 7.33962 3.25002 7.04171V5.41671C3.25002 5.11879 3.00627 4.87504 2.70835 4.87504H2.00962L2.93585 3.25546C3.13085 2.91963 3.48834 2.70837 3.87834 2.70837H4.87502V6.50004C4.87502 7.09587 5.36252 7.58337 5.95835 7.58337H6.50002" fill="white"/>
<path d="M11.9167 9.20837C11.9167 10.1075 11.1909 10.8334 10.2917 10.8334H9.75002C9.75002 10.2375 9.26252 9.75004 8.66669 9.75004C8.07085 9.75004 7.58335 10.2375 7.58335 10.8334H5.41669C5.41669 10.2375 4.92919 9.75004 4.33335 9.75004C3.73752 9.75004 3.25002 10.2375 3.25002 10.8334H2.70835C1.80919 10.8334 1.08335 10.1075 1.08335 9.20837V7.58337H2.70835C3.00627 7.58337 3.25002 7.33962 3.25002 7.04171V5.41671C3.25002 5.11879 3.00627 4.87504 2.70835 4.87504H2.00962L2.93585 3.25546C3.13085 2.91963 3.48834 2.70837 3.87834 2.70837H4.87502V6.50004C4.87502 7.09587 5.36252 7.58337 5.95835 7.58337H6.50002" stroke="#051A00" stroke-linecap="round" stroke-linejoin="round"/>
<path d="M8.66667 11.9167C8.06836 11.9167 7.58333 11.4316 7.58333 10.8333C7.58333 10.235 8.06836 9.75 8.66667 9.75C9.26498 9.75 9.75 10.235 9.75 10.8333C9.75 11.4316 9.26498 11.9167 8.66667 11.9167Z" fill="white" stroke="#051A00" stroke-linecap="round" stroke-linejoin="round"/>
<path d="M4.33335 11.9167C3.73505 11.9167 3.25002 11.4316 3.25002 10.8333C3.25002 10.235 3.73505 9.75 4.33335 9.75C4.93166 9.75 5.41669 10.235 5.41669 10.8333C5.41669 11.4316 4.93166 11.9167 4.33335 11.9167Z" fill="white" stroke="#051A00" stroke-linecap="round" stroke-linejoin="round"/>
<path d="M1.08333 6.5V7.58333H2.70833C3.00625 7.58333 3.25 7.33958 3.25 7.04167V5.41667C3.25 5.11875 3.00625 4.875 2.70833 4.875H2.0096L1.08333 6.5Z" fill="white" stroke="#051A00" stroke-linecap="round" stroke-linejoin="round"/>
<path d="M11.9167 4.33337H8.66669" stroke="#051A00" stroke-linecap="round" stroke-linejoin="round"/>
<path d="M11.9167 5.95837H9.75002" stroke="#051A00" stroke-linecap="round" stroke-linejoin="round"/>
<path d="M11.9167 7.58337H10.8334" stroke="#051A00" stroke-linecap="round" stroke-linejoin="round"/>
</svg>
