<svg width="12" height="12" viewBox="0 0 12 12" fill="none" xmlns="http://www.w3.org/2000/svg">
<path d="M1.3804 4.79076C1.26033 4.74069 1.18276 4.71846 1.11142 4.64718C1.04008 4.57589 1 4.47921 1 4.3784C1 4.27758 1.04008 4.1809 1.11142 4.10961C1.18276 4.03833 1.20683 3.99562 1.3804 3.94471C1.55398 3.89381 9.99276 1.04099 9.99276 1.04099C10.1274 0.994916 10.2723 0.987518 10.411 1.01963C10.5496 1.05175 10.6765 1.12209 10.7772 1.22267C10.8778 1.32324 10.9482 1.45001 10.9804 1.58857C11.0125 1.72713 11.0051 1.87192 10.959 2.00648C10.959 2.00648 8.03869 10.5044 8.00302 10.6199C7.96734 10.7354 7.92132 10.8174 7.84998 10.8887C7.77864 10.96 7.68188 11 7.58099 11C7.4801 11 7.38335 10.96 7.31201 10.8887C7.24067 10.8174 7.22436 10.777 7.17088 10.6199C7.1174 10.4628 5.67897 6.31698 5.67897 6.31698C5.67897 6.31698 1.50048 4.84082 1.3804 4.79076Z" stroke="black" stroke-linecap="round" stroke-linejoin="round"/>
</svg>
